<svg width="512" height="170" viewBox="0 0 512 170" fill="none" xmlns="http://www.w3.org/2000/svg">
<g opacity="0.3">
<path d="M0 170L-8.74228e-08 168L2 168L2 170L0 170Z" fill="#5F5F6C"/>
<path d="M-7.43094e-07 153L-8.30516e-07 151L2 151L2 153L-7.43094e-07 153Z" fill="#5F5F6C"/>
<path d="M17 168L17 170L19 170L19 168L17 168Z" fill="#5F5F6C"/>
<path d="M17 153L17 151L19 151L19 153L17 153Z" fill="#5F5F6C"/>
<path d="M-1.57361e-06 134L-1.48619e-06 136L2 136L2 134L-1.57361e-06 134Z" fill="#5F5F6C"/>
<path d="M-2.22928e-06 119L-2.3167e-06 117L2 117L2 119L-2.22928e-06 119Z" fill="#5F5F6C"/>
<path d="M17 134L17 136L19 136L19 134L17 134Z" fill="#5F5F6C"/>
<path d="M17 119L17 117L19 117L19 119L17 119Z" fill="#5F5F6C"/>
<path d="M34 168L34 170L36 170L36 168L34 168Z" fill="#5F5F6C"/>
<path d="M34 153L34 151L36 151L36 153L34 153Z" fill="#5F5F6C"/>
<path d="M51 168L51 170L53 170L53 168L51 168Z" fill="#5F5F6C"/>
<path d="M51 153L51 151L53 151L53 153L51 153Z" fill="#5F5F6C"/>
<path d="M34 134L34 136L36 136L36 134L34 134Z" fill="#5F5F6C"/>
<path d="M34 119L34 117L36 117L36 119L34 119Z" fill="#5F5F6C"/>
<path d="M51 134L51 136L53 136L53 134L51 134Z" fill="#5F5F6C"/>
<path d="M51 119L51 117L53 117L53 119L51 119Z" fill="#5F5F6C"/>
<path d="M-2.97237e-06 102L-3.0598e-06 100L2 100L2 102L-2.97237e-06 102Z" fill="#5F5F6C"/>
<path d="M-3.71547e-06 85L-3.80289e-06 83L2 83L2 85L-3.71547e-06 85Z" fill="#5F5F6C"/>
<path d="M17 100L17 102L19 102L19 100L17 100Z" fill="#5F5F6C"/>
<path d="M17 85L17 83L19 83L19 85L17 85Z" fill="#5F5F6C"/>
<path d="M-4.54598e-06 66L-4.45856e-06 68L2 68L2 66L-4.54598e-06 66Z" fill="#5F5F6C"/>
<path d="M-5.20166e-06 51L-5.28908e-06 49L1.99999 49L1.99999 51L-5.20166e-06 51Z" fill="#5F5F6C"/>
<path d="M17 66L17 68L19 68L19 66L17 66Z" fill="#5F5F6C"/>
<path d="M17 51L17 49L19 49L19 51L17 51Z" fill="#5F5F6C"/>
<path d="M34 100L34 102L36 102L36 100L34 100Z" fill="#5F5F6C"/>
<path d="M34 85L34 83L36 83L36 85L34 85Z" fill="#5F5F6C"/>
<path d="M51 100L51 102L53 102L53 100L51 100Z" fill="#5F5F6C"/>
<path d="M51 85L51 83L53 83L53 85L51 85Z" fill="#5F5F6C"/>
<path d="M34 66L34 68L36 68L36 66L34 66Z" fill="#5F5F6C"/>
<path d="M34 51L34 49L36 49L36 51L34 51Z" fill="#5F5F6C"/>
<path d="M51 66L51 68L53 68L53 66L51 66Z" fill="#5F5F6C"/>
<path d="M51 51L51 49L53 49L53 51L51 51Z" fill="#5F5F6C"/>
<path d="M68 170L68 168L70 168L70 170L68 170Z" fill="#5F5F6C"/>
<path d="M68 153L68 151L70 151L70 153L68 153Z" fill="#5F5F6C"/>
<path d="M85 168L85 170L87 170L87 168L85 168Z" fill="#5F5F6C"/>
<path d="M85 153L85 151L87 151L87 153L85 153Z" fill="#5F5F6C"/>
<path d="M68 134L68 136L70 136L70 134L68 134Z" fill="#5F5F6C"/>
<path d="M68 119L68 117L70 117L70 119L68 119Z" fill="#5F5F6C"/>
<path d="M85 134L85 136L87 136L87 134L85 134Z" fill="#5F5F6C"/>
<path d="M85 119L85 117L87 117L87 119L85 119Z" fill="#5F5F6C"/>
<path d="M102 168L102 170L104 170L104 168L102 168Z" fill="#5F5F6C"/>
<path d="M102 153L102 151L104 151L104 153L102 153Z" fill="#5F5F6C"/>
<path d="M119 168L119 170L121 170L121 168L119 168Z" fill="#5F5F6C"/>
<path d="M119 153L119 151L121 151L121 153L119 153Z" fill="#5F5F6C"/>
<path d="M102 134L102 136L104 136L104 134L102 134Z" fill="#5F5F6C"/>
<path d="M102 119L102 117L104 117L104 119L102 119Z" fill="#5F5F6C"/>
<path d="M119 134L119 136L121 136L121 134L119 134Z" fill="#5F5F6C"/>
<path d="M119 119L119 117L121 117L121 119L119 119Z" fill="#5F5F6C"/>
<path d="M68 102L68 100L70 100L70 102L68 102Z" fill="#5F5F6C"/>
<path d="M68 85L68 83L70 83L70 85L68 85Z" fill="#5F5F6C"/>
<path d="M85 100L85 102L87 102L87 100L85 100Z" fill="#5F5F6C"/>
<path d="M85 85L85 83L87 83L87 85L85 85Z" fill="#5F5F6C"/>
<path d="M68 66L68 68L70 68L70 66L68 66Z" fill="#5F5F6C"/>
<path d="M68 51L68 49L70 49L70 51L68 51Z" fill="#5F5F6C"/>
<path d="M85 66L85 68L87 68L87 66L85 66Z" fill="#5F5F6C"/>
<path d="M85 51L85 49L87 49L87 51L85 51Z" fill="#5F5F6C"/>
<path d="M102 100L102 102L104 102L104 100L102 100Z" fill="#5F5F6C"/>
<path d="M102 85L102 83L104 83L104 85L102 85Z" fill="#5F5F6C"/>
<path d="M119 100L119 102L121 102L121 100L119 100Z" fill="#5F5F6C"/>
<path d="M119 85L119 83L121 83L121 85L119 85Z" fill="#5F5F6C"/>
<path d="M102 66L102 68L104 68L104 66L102 66Z" fill="#5F5F6C"/>
<path d="M102 51L102 49L104 49L104 51L102 51Z" fill="#5F5F6C"/>
<path d="M119 66L119 68L121 68L121 66L119 66Z" fill="#5F5F6C"/>
<path d="M119 51L119 49L121 49L121 51L119 51Z" fill="#5F5F6C"/>
<path d="M-5.94475e-06 34L-6.03217e-06 32L1.99999 32L1.99999 34L-5.94475e-06 34Z" fill="#5F5F6C"/>
<path d="M-6.68784e-06 17L-6.77527e-06 15L1.99999 15L1.99999 17L-6.68784e-06 17Z" fill="#5F5F6C"/>
<path d="M17 32L17 34L19 34L19 32L17 32Z" fill="#5F5F6C"/>
<path d="M17 17L17 15L19 15L19 17L17 17Z" fill="#5F5F6C"/>
<path d="M-7.51836e-06 -2L-7.43094e-06 0L1.99999 -8.74228e-08L1.99999 -2L-7.51836e-06 -2Z" fill="#5F5F6C"/>
<path d="M-8.17403e-06 -17L-8.26145e-06 -19L1.99999 -19L1.99999 -17L-8.17403e-06 -17Z" fill="#5F5F6C"/>
<path d="M17 -2L17 -7.43094e-07L19 -8.30516e-07L19 -2L17 -2Z" fill="#5F5F6C"/>
<path d="M17 -17L17 -19L19 -19L19 -17L17 -17Z" fill="#5F5F6C"/>
<path d="M34 32L34 34L36 34L36 32L34 32Z" fill="#5F5F6C"/>
<path d="M34 17L34 15L36 15L36 17L34 17Z" fill="#5F5F6C"/>
<path d="M51 32L51 34L53 34L53 32L51 32Z" fill="#5F5F6C"/>
<path d="M51 17L51 15L53 15L53 17L51 17Z" fill="#5F5F6C"/>
<path d="M34 -2L34 -1.48619e-06L36 -1.57361e-06L36 -2L34 -2Z" fill="#5F5F6C"/>
<path d="M34 -17L34 -19L36 -19L36 -17L34 -17Z" fill="#5F5F6C"/>
<path d="M51 -2L51 -2.22928e-06L53 -2.3167e-06L53 -2L51 -2Z" fill="#5F5F6C"/>
<path d="M51 -17L51 -19L53 -19L53 -17L51 -17Z" fill="#5F5F6C"/>
<path d="M-8.91712e-06 -34L-9.00455e-06 -36L1.99999 -36L1.99999 -34L-8.91712e-06 -34Z" fill="#5F5F6C"/>
<path d="M-9.66022e-06 -51L-9.74764e-06 -53L1.99999 -53L1.99999 -51L-9.66022e-06 -51Z" fill="#5F5F6C"/>
<path d="M17 -36L17 -34L19 -34L19 -36L17 -36Z" fill="#5F5F6C"/>
<path d="M17 -51L17 -53L19 -53L19 -51L17 -51Z" fill="#5F5F6C"/>
<path d="M-1.04907e-05 -70L-1.04033e-05 -68L1.99999 -68L1.99999 -70L-1.04907e-05 -70Z" fill="#5F5F6C"/>
<path d="M-1.11464e-05 -85L-1.12338e-05 -87L1.99999 -87L1.99999 -85L-1.11464e-05 -85Z" fill="#5F5F6C"/>
<path d="M17 -70L17 -68L19 -68L19 -70L17 -70Z" fill="#5F5F6C"/>
<path d="M17 -85L17 -87L19 -87L19 -85L17 -85Z" fill="#5F5F6C"/>
<path d="M34 -36L34 -34L36 -34L36 -36L34 -36Z" fill="#5F5F6C"/>
<path d="M34 -51L34 -53L36 -53L36 -51L34 -51Z" fill="#5F5F6C"/>
<path d="M51 -36L51 -34L53 -34L53 -36L51 -36Z" fill="#5F5F6C"/>
<path d="M51 -51L51 -53L53 -53L53 -51L51 -51Z" fill="#5F5F6C"/>
<path d="M34 -70L34 -68L36 -68L36 -70L34 -70Z" fill="#5F5F6C"/>
<path d="M34 -85L34 -87L36 -87L36 -85L34 -85Z" fill="#5F5F6C"/>
<path d="M51 -70L51 -68L53 -68L53 -70L51 -70Z" fill="#5F5F6C"/>
<path d="M51 -85L51 -87L53 -87L53 -85L51 -85Z" fill="#5F5F6C"/>
<path d="M68 34L68 32L70 32L70 34L68 34Z" fill="#5F5F6C"/>
<path d="M68 17L68 15L70 15L70 17L68 17Z" fill="#5F5F6C"/>
<path d="M85 32L85 34L87 34L87 32L85 32Z" fill="#5F5F6C"/>
<path d="M85 17L85 15L87 15L87 17L85 17Z" fill="#5F5F6C"/>
<path d="M68 -2L68 -2.97237e-06L70 -3.0598e-06L70 -2L68 -2Z" fill="#5F5F6C"/>
<path d="M68 -17L68 -19L70 -19L70 -17L68 -17Z" fill="#5F5F6C"/>
<path d="M85 -2L85 -3.71547e-06L87 -3.80289e-06L87 -2L85 -2Z" fill="#5F5F6C"/>
<path d="M85 -17L85 -19L87 -19L87 -17L85 -17Z" fill="#5F5F6C"/>
<path d="M102 32L102 34L104 34L104 32L102 32Z" fill="#5F5F6C"/>
<path d="M102 17L102 15L104 15L104 17L102 17Z" fill="#5F5F6C"/>
<path d="M119 32L119 34L121 34L121 32L119 32Z" fill="#5F5F6C"/>
<path d="M119 17L119 15L121 15L121 17L119 17Z" fill="#5F5F6C"/>
<path d="M102 -2L102 -4.45856e-06L104 -4.54598e-06L104 -2L102 -2Z" fill="#5F5F6C"/>
<path d="M102 -17L102 -19L104 -19L104 -17L102 -17Z" fill="#5F5F6C"/>
<path d="M119 -2.00001L119 -5.20166e-06L121 -5.28908e-06L121 -2.00001L119 -2.00001Z" fill="#5F5F6C"/>
<path d="M119 -17L119 -19L121 -19L121 -17L119 -17Z" fill="#5F5F6C"/>
<path d="M68 -34L68 -36L70 -36L70 -34L68 -34Z" fill="#5F5F6C"/>
<path d="M68 -51L68 -53L70 -53L70 -51L68 -51Z" fill="#5F5F6C"/>
<path d="M85 -36L85 -34L87 -34L87 -36L85 -36Z" fill="#5F5F6C"/>
<path d="M85 -51L85 -53L87 -53L87 -51L85 -51Z" fill="#5F5F6C"/>
<path d="M68 -70L68 -68L70 -68L70 -70L68 -70Z" fill="#5F5F6C"/>
<path d="M68 -85L68 -87L70 -87L70 -85L68 -85Z" fill="#5F5F6C"/>
<path d="M85 -70L85 -68L87 -68L87 -70L85 -70Z" fill="#5F5F6C"/>
<path d="M85 -85L85 -87L87 -87L87 -85L85 -85Z" fill="#5F5F6C"/>
<path d="M102 -36L102 -34L104 -34L104 -36L102 -36Z" fill="#5F5F6C"/>
<path d="M102 -51L102 -53L104 -53L104 -51L102 -51Z" fill="#5F5F6C"/>
<path d="M119 -36L119 -34L121 -34L121 -36L119 -36Z" fill="#5F5F6C"/>
<path d="M119 -51L119 -53L121 -53L121 -51L119 -51Z" fill="#5F5F6C"/>
<path d="M102 -70L102 -68L104 -68L104 -70L102 -70Z" fill="#5F5F6C"/>
<path d="M102 -85L102 -87L104 -87L104 -85L102 -85Z" fill="#5F5F6C"/>
<path d="M119 -70L119 -68L121 -68L121 -70L119 -70Z" fill="#5F5F6C"/>
<path d="M119 -85L119 -87L121 -87L121 -85L119 -85Z" fill="#5F5F6C"/>
<path d="M136 168L136 170L138 170L138 168L136 168Z" fill="#5F5F6C"/>
<path d="M136 151L136 153L138 153L138 151L136 151Z" fill="#5F5F6C"/>
<path d="M153 170L153 168L155 168L155 170L153 170Z" fill="#5F5F6C"/>
<path d="M153 151L153 153L155 153L155 151L153 151Z" fill="#5F5F6C"/>
<path d="M136 136L136 134L138 134L138 136L136 136Z" fill="#5F5F6C"/>
<path d="M136 117L136 119L138 119L138 117L136 117Z" fill="#5F5F6C"/>
<path d="M153 136L153 134L155 134L155 136L153 136Z" fill="#5F5F6C"/>
<path d="M153 117L153 119L155 119L155 117L153 117Z" fill="#5F5F6C"/>
<path d="M170 170L170 168L172 168L172 170L170 170Z" fill="#5F5F6C"/>
<path d="M170 151L170 153L172 153L172 151L170 151Z" fill="#5F5F6C"/>
<path d="M187 170L187 168L189 168L189 170L187 170Z" fill="#5F5F6C"/>
<path d="M187 151L187 153L189 153L189 151L187 151Z" fill="#5F5F6C"/>
<path d="M170 136L170 134L172 134L172 136L170 136Z" fill="#5F5F6C"/>
<path d="M170 117L170 119L172 119L172 117L170 117Z" fill="#5F5F6C"/>
<path d="M187 136L187 134L189 134L189 136L187 136Z" fill="#5F5F6C"/>
<path d="M187 117L187 119L189 119L189 117L187 117Z" fill="#5F5F6C"/>
<path d="M136 100L136 102L138 102L138 100L136 100Z" fill="#5F5F6C"/>
<path d="M136 83L136 85L138 85L138 83L136 83Z" fill="#5F5F6C"/>
<path d="M153 102L153 100L155 100L155 102L153 102Z" fill="#5F5F6C"/>
<path d="M153 83L153 85L155 85L155 83L153 83Z" fill="#5F5F6C"/>
<path d="M136 68L136 66L138 66L138 68L136 68Z" fill="#5F5F6C"/>
<path d="M136 49L136 51L138 51L138 49L136 49Z" fill="#5F5F6C"/>
<path d="M153 68L153 66L155 66L155 68L153 68Z" fill="#5F5F6C"/>
<path d="M153 49L153 51L155 51L155 49L153 49Z" fill="#5F5F6C"/>
<path d="M170 102L170 100L172 100L172 102L170 102Z" fill="#5F5F6C"/>
<path d="M170 83L170 85L172 85L172 83L170 83Z" fill="#5F5F6C"/>
<path d="M187 102L187 100L189 100L189 102L187 102Z" fill="#5F5F6C"/>
<path d="M187 83L187 85L189 85L189 83L187 83Z" fill="#5F5F6C"/>
<path d="M170 68L170 66L172 66L172 68L170 68Z" fill="#5F5F6C"/>
<path d="M170 49L170 51L172 51L172 49L170 49Z" fill="#5F5F6C"/>
<path d="M187 68L187 66L189 66L189 68L187 68Z" fill="#5F5F6C"/>
<path d="M187 49L187 51L189 51L189 49L187 49Z" fill="#5F5F6C"/>
<path d="M204 168L204 170L206 170L206 168L204 168Z" fill="#5F5F6C"/>
<path d="M204 151L204 153L206 153L206 151L204 151Z" fill="#5F5F6C"/>
<path d="M221 170L221 168L223 168L223 170L221 170Z" fill="#5F5F6C"/>
<path d="M221 151L221 153L223 153L223 151L221 151Z" fill="#5F5F6C"/>
<path d="M204 136L204 134L206 134L206 136L204 136Z" fill="#5F5F6C"/>
<path d="M204 117L204 119L206 119L206 117L204 117Z" fill="#5F5F6C"/>
<path d="M221 136L221 134L223 134L223 136L221 136Z" fill="#5F5F6C"/>
<path d="M221 117L221 119L223 119L223 117L221 117Z" fill="#5F5F6C"/>
<path d="M238 170L238 168L240 168L240 170L238 170Z" fill="#5F5F6C"/>
<path d="M238 151L238 153L240 153L240 151L238 151Z" fill="#5F5F6C"/>
<path d="M255 170L255 168L257 168L257 170L255 170Z" fill="#5F5F6C"/>
<path d="M255 151L255 153L257 153L257 151L255 151Z" fill="#5F5F6C"/>
<path d="M238 136L238 134L240 134L240 136L238 136Z" fill="#5F5F6C"/>
<path d="M238 117L238 119L240 119L240 117L238 117Z" fill="#5F5F6C"/>
<path d="M255 136L255 134L257 134L257 136L255 136Z" fill="#5F5F6C"/>
<path d="M255 117L255 119L257 119L257 117L255 117Z" fill="#5F5F6C"/>
<path d="M204 100L204 102L206 102L206 100L204 100Z" fill="#5F5F6C"/>
<path d="M204 83L204 85L206 85L206 83L204 83Z" fill="#5F5F6C"/>
<path d="M221 102L221 100L223 100L223 102L221 102Z" fill="#5F5F6C"/>
<path d="M221 83L221 85L223 85L223 83L221 83Z" fill="#5F5F6C"/>
<path d="M204 68L204 66L206 66L206 68L204 68Z" fill="#5F5F6C"/>
<path d="M204 49L204 51L206 51L206 49L204 49Z" fill="#5F5F6C"/>
<path d="M221 68L221 66L223 66L223 68L221 68Z" fill="#5F5F6C"/>
<path d="M221 49L221 51L223 51L223 49L221 49Z" fill="#5F5F6C"/>
<path d="M238 102L238 100L240 100L240 102L238 102Z" fill="#5F5F6C"/>
<path d="M238 83L238 85L240 85L240 83L238 83Z" fill="#5F5F6C"/>
<path d="M255 102L255 100L257 100L257 102L255 102Z" fill="#5F5F6C"/>
<path d="M255 83L255 85L257 85L257 83L255 83Z" fill="#5F5F6C"/>
<path d="M238 68L238 66L240 66L240 68L238 68Z" fill="#5F5F6C"/>
<path d="M238 49L238 51L240 51L240 49L238 49Z" fill="#5F5F6C"/>
<path d="M255 68L255 66L257 66L257 68L255 68Z" fill="#5F5F6C"/>
<path d="M255 49L255 51L257 51L257 49L255 49Z" fill="#5F5F6C"/>
<path d="M136 34L136 32L138 32L138 34L136 34Z" fill="#5F5F6C"/>
<path d="M136 17L136 15L138 15L138 17L136 17Z" fill="#5F5F6C"/>
<path d="M153 32L153 34L155 34L155 32L153 32Z" fill="#5F5F6C"/>
<path d="M153 17L153 15L155 15L155 17L153 17Z" fill="#5F5F6C"/>
<path d="M136 -2.00001L136 -5.94475e-06L138 -6.03217e-06L138 -2.00001L136 -2.00001Z" fill="#5F5F6C"/>
<path d="M136 -17L136 -19L138 -19L138 -17L136 -17Z" fill="#5F5F6C"/>
<path d="M153 -2.00001L153 -6.68784e-06L155 -6.77527e-06L155 -2.00001L153 -2.00001Z" fill="#5F5F6C"/>
<path d="M153 -17L153 -19L155 -19L155 -17L153 -17Z" fill="#5F5F6C"/>
<path d="M170 32L170 34L172 34L172 32L170 32Z" fill="#5F5F6C"/>
<path d="M170 17L170 15L172 15L172 17L170 17Z" fill="#5F5F6C"/>
<path d="M187 32L187 34L189 34L189 32L187 32Z" fill="#5F5F6C"/>
<path d="M187 17L187 15L189 15L189 17L187 17Z" fill="#5F5F6C"/>
<path d="M170 -2.00001L170 -7.43094e-06L172 -7.51836e-06L172 -2.00001L170 -2.00001Z" fill="#5F5F6C"/>
<path d="M170 -17L170 -19L172 -19L172 -17L170 -17Z" fill="#5F5F6C"/>
<path d="M187 -2.00001L187 -8.17403e-06L189 -8.26145e-06L189 -2.00001L187 -2.00001Z" fill="#5F5F6C"/>
<path d="M187 -17L187 -19L189 -19L189 -17L187 -17Z" fill="#5F5F6C"/>
<path d="M136 -34L136 -36L138 -36L138 -34L136 -34Z" fill="#5F5F6C"/>
<path d="M136 -51L136 -53L138 -53L138 -51L136 -51Z" fill="#5F5F6C"/>
<path d="M153 -36L153 -34L155 -34L155 -36L153 -36Z" fill="#5F5F6C"/>
<path d="M153 -51L153 -53L155 -53L155 -51L153 -51Z" fill="#5F5F6C"/>
<path d="M136 -70L136 -68L138 -68L138 -70L136 -70Z" fill="#5F5F6C"/>
<path d="M136 -85L136 -87L138 -87L138 -85L136 -85Z" fill="#5F5F6C"/>
<path d="M153 -70L153 -68L155 -68L155 -70L153 -70Z" fill="#5F5F6C"/>
<path d="M153 -85L153 -87L155 -87L155 -85L153 -85Z" fill="#5F5F6C"/>
<path d="M170 -36L170 -34L172 -34L172 -36L170 -36Z" fill="#5F5F6C"/>
<path d="M170 -51L170 -53L172 -53L172 -51L170 -51Z" fill="#5F5F6C"/>
<path d="M187 -36L187 -34L189 -34L189 -36L187 -36Z" fill="#5F5F6C"/>
<path d="M187 -51L187 -53L189 -53L189 -51L187 -51Z" fill="#5F5F6C"/>
<path d="M170 -70L170 -68L172 -68L172 -70L170 -70Z" fill="#5F5F6C"/>
<path d="M170 -85L170 -87L172 -87L172 -85L170 -85Z" fill="#5F5F6C"/>
<path d="M187 -70L187 -68L189 -68L189 -70L187 -70Z" fill="#5F5F6C"/>
<path d="M187 -85L187 -87L189 -87L189 -85L187 -85Z" fill="#5F5F6C"/>
<path d="M204 34L204 32L206 32L206 34L204 34Z" fill="#5F5F6C"/>
<path d="M204 17L204 15L206 15L206 17L204 17Z" fill="#5F5F6C"/>
<path d="M221 32L221 34L223 34L223 32L221 32Z" fill="#5F5F6C"/>
<path d="M221 17L221 15L223 15L223 17L221 17Z" fill="#5F5F6C"/>
<path d="M204 -2.00001L204 -8.91712e-06L206 -9.00455e-06L206 -2.00001L204 -2.00001Z" fill="#5F5F6C"/>
<path d="M204 -17L204 -19L206 -19L206 -17L204 -17Z" fill="#5F5F6C"/>
<path d="M221 -2.00001L221 -9.66022e-06L223 -9.74764e-06L223 -2.00001L221 -2.00001Z" fill="#5F5F6C"/>
<path d="M221 -17L221 -19L223 -19L223 -17L221 -17Z" fill="#5F5F6C"/>
<path d="M238 32L238 34L240 34L240 32L238 32Z" fill="#5F5F6C"/>
<path d="M238 17L238 15L240 15L240 17L238 17Z" fill="#5F5F6C"/>
<path d="M255 32L255 34L257 34L257 32L255 32Z" fill="#5F5F6C"/>
<path d="M255 17L255 15L257 15L257 17L255 17Z" fill="#5F5F6C"/>
<path d="M238 -2.00001L238 -1.04033e-05L240 -1.04907e-05L240 -2.00001L238 -2.00001Z" fill="#5F5F6C"/>
<path d="M238 -17L238 -19L240 -19L240 -17L238 -17Z" fill="#5F5F6C"/>
<path d="M255 -2.00001L255 -1.11464e-05L257 -1.12338e-05L257 -2.00001L255 -2.00001Z" fill="#5F5F6C"/>
<path d="M255 -17L255 -19L257 -19L257 -17L255 -17Z" fill="#5F5F6C"/>
<path d="M204 -34L204 -36L206 -36L206 -34L204 -34Z" fill="#5F5F6C"/>
<path d="M204 -51L204 -53L206 -53L206 -51L204 -51Z" fill="#5F5F6C"/>
<path d="M221 -36L221 -34L223 -34L223 -36L221 -36Z" fill="#5F5F6C"/>
<path d="M221 -51L221 -53L223 -53L223 -51L221 -51Z" fill="#5F5F6C"/>
<path d="M204 -70L204 -68L206 -68L206 -70L204 -70Z" fill="#5F5F6C"/>
<path d="M204 -85L204 -87L206 -87L206 -85L204 -85Z" fill="#5F5F6C"/>
<path d="M221 -70L221 -68L223 -68L223 -70L221 -70Z" fill="#5F5F6C"/>
<path d="M221 -85L221 -87L223 -87L223 -85L221 -85Z" fill="#5F5F6C"/>
<path d="M238 -36L238 -34L240 -34L240 -36L238 -36Z" fill="#5F5F6C"/>
<path d="M238 -51L238 -53L240 -53L240 -51L238 -51Z" fill="#5F5F6C"/>
<path d="M255 -36L255 -34L257 -34L257 -36L255 -36Z" fill="#5F5F6C"/>
<path d="M255 -51L255 -53L257 -53L257 -51L255 -51Z" fill="#5F5F6C"/>
<path d="M238 -70L238 -68L240 -68L240 -70L238 -70Z" fill="#5F5F6C"/>
<path d="M238 -85L238 -87L240 -87L240 -85L238 -85Z" fill="#5F5F6C"/>
<path d="M255 -70L255 -68L257 -68L257 -70L255 -70Z" fill="#5F5F6C"/>
<path d="M255 -85L255 -87L257 -87L257 -85L255 -85Z" fill="#5F5F6C"/>
<path d="M272 170L272 168L274 168L274 170L272 170Z" fill="#5F5F6C"/>
<path d="M272 153L272 151L274 151L274 153L272 153Z" fill="#5F5F6C"/>
<path d="M289 168L289 170L291 170L291 168L289 168Z" fill="#5F5F6C"/>
<path d="M289 153L289 151L291 151L291 153L289 153Z" fill="#5F5F6C"/>
<path d="M272 134L272 136L274 136L274 134L272 134Z" fill="#5F5F6C"/>
<path d="M272 119L272 117L274 117L274 119L272 119Z" fill="#5F5F6C"/>
<path d="M289 134L289 136L291 136L291 134L289 134Z" fill="#5F5F6C"/>
<path d="M289 119L289 117L291 117L291 119L289 119Z" fill="#5F5F6C"/>
<path d="M306 168L306 170L308 170L308 168L306 168Z" fill="#5F5F6C"/>
<path d="M306 153L306 151L308 151L308 153L306 153Z" fill="#5F5F6C"/>
<path d="M323 168L323 170L325 170L325 168L323 168Z" fill="#5F5F6C"/>
<path d="M323 153L323 151L325 151L325 153L323 153Z" fill="#5F5F6C"/>
<path d="M306 134L306 136L308 136L308 134L306 134Z" fill="#5F5F6C"/>
<path d="M306 119L306 117L308 117L308 119L306 119Z" fill="#5F5F6C"/>
<path d="M323 134L323 136L325 136L325 134L323 134Z" fill="#5F5F6C"/>
<path d="M323 119L323 117L325 117L325 119L323 119Z" fill="#5F5F6C"/>
<path d="M272 102L272 100L274 100L274 102L272 102Z" fill="#5F5F6C"/>
<path d="M272 85L272 83L274 83L274 85L272 85Z" fill="#5F5F6C"/>
<path d="M289 100L289 102L291 102L291 100L289 100Z" fill="#5F5F6C"/>
<path d="M289 85L289 83L291 83L291 85L289 85Z" fill="#5F5F6C"/>
<path d="M272 66L272 68L274 68L274 66L272 66Z" fill="#5F5F6C"/>
<path d="M272 51L272 49L274 49L274 51L272 51Z" fill="#5F5F6C"/>
<path d="M289 66L289 68L291 68L291 66L289 66Z" fill="#5F5F6C"/>
<path d="M289 51L289 49L291 49L291 51L289 51Z" fill="#5F5F6C"/>
<path d="M306 100L306 102L308 102L308 100L306 100Z" fill="#5F5F6C"/>
<path d="M306 85L306 83L308 83L308 85L306 85Z" fill="#5F5F6C"/>
<path d="M323 100L323 102L325 102L325 100L323 100Z" fill="#5F5F6C"/>
<path d="M323 85L323 83L325 83L325 85L323 85Z" fill="#5F5F6C"/>
<path d="M306 66L306 68L308 68L308 66L306 66Z" fill="#5F5F6C"/>
<path d="M306 51L306 49L308 49L308 51L306 51Z" fill="#5F5F6C"/>
<path d="M323 66L323 68L325 68L325 66L323 66Z" fill="#5F5F6C"/>
<path d="M323 51L323 49L325 49L325 51L323 51Z" fill="#5F5F6C"/>
<path d="M340 170L340 168L342 168L342 170L340 170Z" fill="#5F5F6C"/>
<path d="M340 153L340 151L342 151L342 153L340 153Z" fill="#5F5F6C"/>
<path d="M357 168L357 170L359 170L359 168L357 168Z" fill="#5F5F6C"/>
<path d="M357 153L357 151L359 151L359 153L357 153Z" fill="#5F5F6C"/>
<path d="M340 134L340 136L342 136L342 134L340 134Z" fill="#5F5F6C"/>
<path d="M340 119L340 117L342 117L342 119L340 119Z" fill="#5F5F6C"/>
<path d="M357 134L357 136L359 136L359 134L357 134Z" fill="#5F5F6C"/>
<path d="M357 119L357 117L359 117L359 119L357 119Z" fill="#5F5F6C"/>
<path d="M374 168L374 170L376 170L376 168L374 168Z" fill="#5F5F6C"/>
<path d="M374 153L374 151L376 151L376 153L374 153Z" fill="#5F5F6C"/>
<path d="M391 168L391 170L393 170L393 168L391 168Z" fill="#5F5F6C"/>
<path d="M391 153L391 151L393 151L393 153L391 153Z" fill="#5F5F6C"/>
<path d="M374 134L374 136L376 136L376 134L374 134Z" fill="#5F5F6C"/>
<path d="M374 119L374 117L376 117L376 119L374 119Z" fill="#5F5F6C"/>
<path d="M391 134L391 136L393 136L393 134L391 134Z" fill="#5F5F6C"/>
<path d="M391 119L391 117L393 117L393 119L391 119Z" fill="#5F5F6C"/>
<path d="M340 102L340 100L342 100L342 102L340 102Z" fill="#5F5F6C"/>
<path d="M340 85L340 83L342 83L342 85L340 85Z" fill="#5F5F6C"/>
<path d="M357 100L357 102L359 102L359 100L357 100Z" fill="#5F5F6C"/>
<path d="M357 85L357 83L359 83L359 85L357 85Z" fill="#5F5F6C"/>
<path d="M340 66L340 68L342 68L342 66L340 66Z" fill="#5F5F6C"/>
<path d="M340 51L340 49L342 49L342 51L340 51Z" fill="#5F5F6C"/>
<path d="M357 66L357 68L359 68L359 66L357 66Z" fill="#5F5F6C"/>
<path d="M357 51L357 49L359 49L359 51L357 51Z" fill="#5F5F6C"/>
<path d="M374 100L374 102L376 102L376 100L374 100Z" fill="#5F5F6C"/>
<path d="M374 85L374 83L376 83L376 85L374 85Z" fill="#5F5F6C"/>
<path d="M391 100L391 102L393 102L393 100L391 100Z" fill="#5F5F6C"/>
<path d="M391 85L391 83L393 83L393 85L391 85Z" fill="#5F5F6C"/>
<path d="M374 66L374 68L376 68L376 66L374 66Z" fill="#5F5F6C"/>
<path d="M374 51L374 49L376 49L376 51L374 51Z" fill="#5F5F6C"/>
<path d="M391 66L391 68L393 68L393 66L391 66Z" fill="#5F5F6C"/>
<path d="M391 51L391 49L393 49L393 51L391 51Z" fill="#5F5F6C"/>
<path d="M272 34L272 32L274 32L274 34L272 34Z" fill="#5F5F6C"/>
<path d="M272 17L272 15L274 15L274 17L272 17Z" fill="#5F5F6C"/>
<path d="M289 32L289 34L291 34L291 32L289 32Z" fill="#5F5F6C"/>
<path d="M289 17L289 15L291 15L291 17L289 17Z" fill="#5F5F6C"/>
<path d="M272 -2.00001L272 -1.18895e-05L274 -1.19769e-05L274 -2.00001L272 -2.00001Z" fill="#5F5F6C"/>
<path d="M272 -17L272 -19L274 -19L274 -17L272 -17Z" fill="#5F5F6C"/>
<path d="M289 -2.00001L289 -1.26326e-05L291 -1.272e-05L291 -2.00001L289 -2.00001Z" fill="#5F5F6C"/>
<path d="M289 -17L289 -19L291 -19L291 -17L289 -17Z" fill="#5F5F6C"/>
<path d="M306 32L306 34L308 34L308 32L306 32Z" fill="#5F5F6C"/>
<path d="M306 17L306 15L308 15L308 17L306 17Z" fill="#5F5F6C"/>
<path d="M323 32L323 34L325 34L325 32L323 32Z" fill="#5F5F6C"/>
<path d="M323 17L323 15L325 15L325 17L323 17Z" fill="#5F5F6C"/>
<path d="M306 -2.00001L306 -1.33757e-05L308 -1.34631e-05L308 -2.00001L306 -2.00001Z" fill="#5F5F6C"/>
<path d="M306 -17L306 -19L308 -19L308 -17L306 -17Z" fill="#5F5F6C"/>
<path d="M323 -2.00001L323 -1.41188e-05L325 -1.42062e-05L325 -2.00001L323 -2.00001Z" fill="#5F5F6C"/>
<path d="M323 -17L323 -19L325 -19L325 -17L323 -17Z" fill="#5F5F6C"/>
<path d="M272 -34L272 -36L274 -36L274 -34L272 -34Z" fill="#5F5F6C"/>
<path d="M272 -51L272 -53L274 -53L274 -51L272 -51Z" fill="#5F5F6C"/>
<path d="M289 -36L289 -34L291 -34L291 -36L289 -36Z" fill="#5F5F6C"/>
<path d="M289 -51L289 -53L291 -53L291 -51L289 -51Z" fill="#5F5F6C"/>
<path d="M272 -70L272 -68L274 -68L274 -70L272 -70Z" fill="#5F5F6C"/>
<path d="M272 -85L272 -87L274 -87L274 -85L272 -85Z" fill="#5F5F6C"/>
<path d="M289 -70L289 -68L291 -68L291 -70L289 -70Z" fill="#5F5F6C"/>
<path d="M289 -85L289 -87L291 -87L291 -85L289 -85Z" fill="#5F5F6C"/>
<path d="M306 -36L306 -34L308 -34L308 -36L306 -36Z" fill="#5F5F6C"/>
<path d="M306 -51L306 -53L308 -53L308 -51L306 -51Z" fill="#5F5F6C"/>
<path d="M323 -36L323 -34L325 -34L325 -36L323 -36Z" fill="#5F5F6C"/>
<path d="M323 -51L323 -53L325 -53L325 -51L323 -51Z" fill="#5F5F6C"/>
<path d="M306 -70L306 -68L308 -68L308 -70L306 -70Z" fill="#5F5F6C"/>
<path d="M306 -85L306 -87L308 -87L308 -85L306 -85Z" fill="#5F5F6C"/>
<path d="M323 -70L323 -68L325 -68L325 -70L323 -70Z" fill="#5F5F6C"/>
<path d="M323 -85L323 -87L325 -87L325 -85L323 -85Z" fill="#5F5F6C"/>
<path d="M340 34L340 32L342 32L342 34L340 34Z" fill="#5F5F6C"/>
<path d="M340 17L340 15L342 15L342 17L340 17Z" fill="#5F5F6C"/>
<path d="M357 32L357 34L359 34L359 32L357 32Z" fill="#5F5F6C"/>
<path d="M357 17L357 15L359 15L359 17L357 17Z" fill="#5F5F6C"/>
<path d="M340 -2.00001L340 -1.48619e-05L342 -1.49493e-05L342 -2.00001L340 -2.00001Z" fill="#5F5F6C"/>
<path d="M340 -17L340 -19L342 -19L342 -17L340 -17Z" fill="#5F5F6C"/>
<path d="M357 -2.00002L357 -1.5605e-05L359 -1.56924e-05L359 -2.00002L357 -2.00002Z" fill="#5F5F6C"/>
<path d="M357 -17L357 -19L359 -19L359 -17L357 -17Z" fill="#5F5F6C"/>
<path d="M374 32L374 34L376 34L376 32L374 32Z" fill="#5F5F6C"/>
<path d="M374 17L374 15L376 15L376 17L374 17Z" fill="#5F5F6C"/>
<path d="M391 32L391 34L393 34L393 32L391 32Z" fill="#5F5F6C"/>
<path d="M391 17L391 15L393 15L393 17L391 17Z" fill="#5F5F6C"/>
<path d="M374 -2.00002L374 -1.63481e-05L376 -1.64355e-05L376 -2.00002L374 -2.00002Z" fill="#5F5F6C"/>
<path d="M374 -17L374 -19L376 -19L376 -17L374 -17Z" fill="#5F5F6C"/>
<path d="M391 -2.00002L391 -1.70912e-05L393 -1.71786e-05L393 -2.00002L391 -2.00002Z" fill="#5F5F6C"/>
<path d="M391 -17L391 -19L393 -19L393 -17L391 -17Z" fill="#5F5F6C"/>
<path d="M340 -34L340 -36L342 -36L342 -34L340 -34Z" fill="#5F5F6C"/>
<path d="M340 -51L340 -53L342 -53L342 -51L340 -51Z" fill="#5F5F6C"/>
<path d="M357 -36L357 -34L359 -34L359 -36L357 -36Z" fill="#5F5F6C"/>
<path d="M357 -51L357 -53L359 -53L359 -51L357 -51Z" fill="#5F5F6C"/>
<path d="M340 -70L340 -68L342 -68L342 -70L340 -70Z" fill="#5F5F6C"/>
<path d="M340 -85L340 -87L342 -87L342 -85L340 -85Z" fill="#5F5F6C"/>
<path d="M357 -70L357 -68L359 -68L359 -70L357 -70Z" fill="#5F5F6C"/>
<path d="M357 -85L357 -87L359 -87L359 -85L357 -85Z" fill="#5F5F6C"/>
<path d="M374 -36L374 -34L376 -34L376 -36L374 -36Z" fill="#5F5F6C"/>
<path d="M374 -51L374 -53L376 -53L376 -51L374 -51Z" fill="#5F5F6C"/>
<path d="M391 -36L391 -34L393 -34L393 -36L391 -36Z" fill="#5F5F6C"/>
<path d="M391 -51L391 -53L393 -53L393 -51L391 -51Z" fill="#5F5F6C"/>
<path d="M374 -70L374 -68L376 -68L376 -70L374 -70Z" fill="#5F5F6C"/>
<path d="M374 -85L374 -87L376 -87L376 -85L374 -85Z" fill="#5F5F6C"/>
<path d="M391 -70L391 -68L393 -68L393 -70L391 -70Z" fill="#5F5F6C"/>
<path d="M391 -85L391 -87L393 -87L393 -85L391 -85Z" fill="#5F5F6C"/>
<path d="M408 168L408 170L410 170L410 168L408 168Z" fill="#5F5F6C"/>
<path d="M408 151L408 153L410 153L410 151L408 151Z" fill="#5F5F6C"/>
<path d="M425 170L425 168L427 168L427 170L425 170Z" fill="#5F5F6C"/>
<path d="M425 151L425 153L427 153L427 151L425 151Z" fill="#5F5F6C"/>
<path d="M408 136L408 134L410 134L410 136L408 136Z" fill="#5F5F6C"/>
<path d="M408 117L408 119L410 119L410 117L408 117Z" fill="#5F5F6C"/>
<path d="M425 136L425 134L427 134L427 136L425 136Z" fill="#5F5F6C"/>
<path d="M425 117L425 119L427 119L427 117L425 117Z" fill="#5F5F6C"/>
<path d="M442 170L442 168L444 168L444 170L442 170Z" fill="#5F5F6C"/>
<path d="M442 151L442 153L444 153L444 151L442 151Z" fill="#5F5F6C"/>
<path d="M459 170L459 168L461 168L461 170L459 170Z" fill="#5F5F6C"/>
<path d="M459 151L459 153L461 153L461 151L459 151Z" fill="#5F5F6C"/>
<path d="M442 136L442 134L444 134L444 136L442 136Z" fill="#5F5F6C"/>
<path d="M442 117L442 119L444 119L444 117L442 117Z" fill="#5F5F6C"/>
<path d="M459 136L459 134L461 134L461 136L459 136Z" fill="#5F5F6C"/>
<path d="M459 117L459 119L461 119L461 117L459 117Z" fill="#5F5F6C"/>
<path d="M408 100L408 102L410 102L410 100L408 100Z" fill="#5F5F6C"/>
<path d="M408 83L408 85L410 85L410 83L408 83Z" fill="#5F5F6C"/>
<path d="M425 102L425 100L427 100L427 102L425 102Z" fill="#5F5F6C"/>
<path d="M425 83L425 85L427 85L427 83L425 83Z" fill="#5F5F6C"/>
<path d="M408 68L408 66L410 66L410 68L408 68Z" fill="#5F5F6C"/>
<path d="M408 49L408 51L410 51L410 49L408 49Z" fill="#5F5F6C"/>
<path d="M425 68L425 66L427 66L427 68L425 68Z" fill="#5F5F6C"/>
<path d="M425 49L425 51L427 51L427 49L425 49Z" fill="#5F5F6C"/>
<path d="M442 102L442 100L444 100L444 102L442 102Z" fill="#5F5F6C"/>
<path d="M442 83L442 85L444 85L444 83L442 83Z" fill="#5F5F6C"/>
<path d="M459 102L459 100L461 100L461 102L459 102Z" fill="#5F5F6C"/>
<path d="M459 83L459 85L461 85L461 83L459 83Z" fill="#5F5F6C"/>
<path d="M442 68L442 66L444 66L444 68L442 68Z" fill="#5F5F6C"/>
<path d="M442 49L442 51L444 51L444 49L442 49Z" fill="#5F5F6C"/>
<path d="M459 68L459 66L461 66L461 68L459 68Z" fill="#5F5F6C"/>
<path d="M459 49L459 51L461 51L461 49L459 49Z" fill="#5F5F6C"/>
<path d="M476 168L476 170L478 170L478 168L476 168Z" fill="#5F5F6C"/>
<path d="M476 151L476 153L478 153L478 151L476 151Z" fill="#5F5F6C"/>
<path d="M493 170L493 168L495 168L495 170L493 170Z" fill="#5F5F6C"/>
<path d="M493 151L493 153L495 153L495 151L493 151Z" fill="#5F5F6C"/>
<path d="M476 136L476 134L478 134L478 136L476 136Z" fill="#5F5F6C"/>
<path d="M476 117L476 119L478 119L478 117L476 117Z" fill="#5F5F6C"/>
<path d="M493 136L493 134L495 134L495 136L493 136Z" fill="#5F5F6C"/>
<path d="M493 117L493 119L495 119L495 117L493 117Z" fill="#5F5F6C"/>
<path d="M510 170L510 168L512 168L512 170L510 170Z" fill="#5F5F6C"/>
<path d="M510 151L510 153L512 153L512 151L510 151Z" fill="#5F5F6C"/>
<path d="M510 136L510 134L512 134L512 136L510 136Z" fill="#5F5F6C"/>
<path d="M510 117L510 119L512 119L512 117L510 117Z" fill="#5F5F6C"/>
<path d="M476 100L476 102L478 102L478 100L476 100Z" fill="#5F5F6C"/>
<path d="M476 83L476 85L478 85L478 83L476 83Z" fill="#5F5F6C"/>
<path d="M493 102L493 100L495 100L495 102L493 102Z" fill="#5F5F6C"/>
<path d="M493 83L493 85L495 85L495 83L493 83Z" fill="#5F5F6C"/>
<path d="M476 68L476 66L478 66L478 68L476 68Z" fill="#5F5F6C"/>
<path d="M476 49L476 51L478 51L478 49L476 49Z" fill="#5F5F6C"/>
<path d="M493 68L493 66L495 66L495 68L493 68Z" fill="#5F5F6C"/>
<path d="M493 49L493 51L495 51L495 49L493 49Z" fill="#5F5F6C"/>
<path d="M510 102L510 100L512 100L512 102L510 102Z" fill="#5F5F6C"/>
<path d="M510 83L510 85L512 85L512 83L510 83Z" fill="#5F5F6C"/>
<path d="M510 68L510 66L512 66L512 68L510 68Z" fill="#5F5F6C"/>
<path d="M510 49L510 51L512 51L512 49L510 49Z" fill="#5F5F6C"/>
<path d="M408 34L408 32L410 32L410 34L408 34Z" fill="#5F5F6C"/>
<path d="M408 17L408 15L410 15L410 17L408 17Z" fill="#5F5F6C"/>
<path d="M425 32L425 34L427 34L427 32L425 32Z" fill="#5F5F6C"/>
<path d="M425 17L425 15L427 15L427 17L425 17Z" fill="#5F5F6C"/>
<path d="M408 -2.00002L408 -1.78342e-05L410 -1.79217e-05L410 -2.00002L408 -2.00002Z" fill="#5F5F6C"/>
<path d="M408 -17L408 -19L410 -19L410 -17L408 -17Z" fill="#5F5F6C"/>
<path d="M425 -2.00002L425 -1.85773e-05L427 -1.86648e-05L427 -2.00002L425 -2.00002Z" fill="#5F5F6C"/>
<path d="M425 -17L425 -19L427 -19L427 -17L425 -17Z" fill="#5F5F6C"/>
<path d="M442 32L442 34L444 34L444 32L442 32Z" fill="#5F5F6C"/>
<path d="M442 17L442 15L444 15L444 17L442 17Z" fill="#5F5F6C"/>
<path d="M459 32L459 34L461 34L461 32L459 32Z" fill="#5F5F6C"/>
<path d="M459 17L459 15L461 15L461 17L459 17Z" fill="#5F5F6C"/>
<path d="M442 -2.00002L442 -1.93204e-05L444 -1.94079e-05L444 -2.00002L442 -2.00002Z" fill="#5F5F6C"/>
<path d="M442 -17L442 -19L444 -19L444 -17L442 -17Z" fill="#5F5F6C"/>
<path d="M459 -2.00002L459 -2.00635e-05L461 -2.0151e-05L461 -2.00002L459 -2.00002Z" fill="#5F5F6C"/>
<path d="M459 -17L459 -19L461 -19L461 -17L459 -17Z" fill="#5F5F6C"/>
<path d="M408 -34L408 -36L410 -36L410 -34L408 -34Z" fill="#5F5F6C"/>
<path d="M408 -51L408 -53L410 -53L410 -51L408 -51Z" fill="#5F5F6C"/>
<path d="M425 -36L425 -34L427 -34L427 -36L425 -36Z" fill="#5F5F6C"/>
<path d="M425 -51L425 -53L427 -53L427 -51L425 -51Z" fill="#5F5F6C"/>
<path d="M408 -70L408 -68L410 -68L410 -70L408 -70Z" fill="#5F5F6C"/>
<path d="M408 -85L408 -87L410 -87L410 -85L408 -85Z" fill="#5F5F6C"/>
<path d="M425 -70L425 -68L427 -68L427 -70L425 -70Z" fill="#5F5F6C"/>
<path d="M425 -85L425 -87L427 -87L427 -85L425 -85Z" fill="#5F5F6C"/>
<path d="M442 -36L442 -34L444 -34L444 -36L442 -36Z" fill="#5F5F6C"/>
<path d="M442 -51L442 -53L444 -53L444 -51L442 -51Z" fill="#5F5F6C"/>
<path d="M459 -36L459 -34L461 -34L461 -36L459 -36Z" fill="#5F5F6C"/>
<path d="M459 -51L459 -53L461 -53L461 -51L459 -51Z" fill="#5F5F6C"/>
<path d="M442 -70L442 -68L444 -68L444 -70L442 -70Z" fill="#5F5F6C"/>
<path d="M442 -85L442 -87L444 -87L444 -85L442 -85Z" fill="#5F5F6C"/>
<path d="M459 -70L459 -68L461 -68L461 -70L459 -70Z" fill="#5F5F6C"/>
<path d="M459 -85L459 -87L461 -87L461 -85L459 -85Z" fill="#5F5F6C"/>
<path d="M476 34L476 32L478 32L478 34L476 34Z" fill="#5F5F6C"/>
<path d="M476 17L476 15L478 15L478 17L476 17Z" fill="#5F5F6C"/>
<path d="M493 32L493 34L495 34L495 32L493 32Z" fill="#5F5F6C"/>
<path d="M493 17L493 15L495 15L495 17L493 17Z" fill="#5F5F6C"/>
<path d="M476 -2.00002L476 -2.08066e-05L478 -2.0894e-05L478 -2.00002L476 -2.00002Z" fill="#5F5F6C"/>
<path d="M476 -17L476 -19L478 -19L478 -17L476 -17Z" fill="#5F5F6C"/>
<path d="M493 -2.00002L493 -2.15497e-05L495 -2.16371e-05L495 -2.00002L493 -2.00002Z" fill="#5F5F6C"/>
<path d="M493 -17L493 -19L495 -19L495 -17L493 -17Z" fill="#5F5F6C"/>
<path d="M510 32L510 34L512 34L512 32L510 32Z" fill="#5F5F6C"/>
<path d="M510 17L510 15L512 15L512 17L510 17Z" fill="#5F5F6C"/>
<path d="M510 -2.00002L510 -2.22928e-05L512 -2.23802e-05L512 -2.00002L510 -2.00002Z" fill="#5F5F6C"/>
<path d="M510 -17L510 -19L512 -19L512 -17L510 -17Z" fill="#5F5F6C"/>
<path d="M476 -34L476 -36L478 -36L478 -34L476 -34Z" fill="#5F5F6C"/>
<path d="M476 -51L476 -53L478 -53L478 -51L476 -51Z" fill="#5F5F6C"/>
<path d="M493 -36L493 -34L495 -34L495 -36L493 -36Z" fill="#5F5F6C"/>
<path d="M493 -51L493 -53L495 -53L495 -51L493 -51Z" fill="#5F5F6C"/>
<path d="M476 -70L476 -68L478 -68L478 -70L476 -70Z" fill="#5F5F6C"/>
<path d="M476 -85L476 -87L478 -87L478 -85L476 -85Z" fill="#5F5F6C"/>
<path d="M493 -70L493 -68L495 -68L495 -70L493 -70Z" fill="#5F5F6C"/>
<path d="M493 -85L493 -87L495 -87L495 -85L493 -85Z" fill="#5F5F6C"/>
<path d="M510 -36L510 -34L512 -34L512 -36L510 -36Z" fill="#5F5F6C"/>
<path d="M510 -51L510 -53L512 -53L512 -51L510 -51Z" fill="#5F5F6C"/>
<path d="M510 -70L510 -68L512 -68L512 -70L510 -70Z" fill="#5F5F6C"/>
<path d="M510 -85L510 -87L512 -87L512 -85L510 -85Z" fill="#5F5F6C"/>
</g>
</svg>
