<svg width="181" height="47" viewBox="0 0 181 47" fill="none" xmlns="http://www.w3.org/2000/svg">
<path d="M39.5934 6.94814C36.364 3.71874 32.2495 1.5195 27.7702 0.62851C23.2909 -0.262479 18.648 0.19481 14.4286 1.94255C10.2091 3.69029 6.60276 6.64998 4.06544 10.4473C1.52812 14.2447 0.173827 18.7092 0.173828 23.2763C0.173829 27.8433 1.52812 32.3078 4.06544 36.1052C6.60276 39.9026 10.2092 42.8623 14.4286 44.61C18.648 46.3577 23.2909 46.815 27.7702 45.924C32.2495 45.033 36.364 42.8338 39.5934 39.6044L34.9597 34.9707C32.6468 37.2836 29.6999 38.8588 26.4918 39.4969C23.2836 40.135 19.9583 39.8075 16.9363 38.5558C13.9143 37.304 11.3314 35.1842 9.51409 32.4645C7.69683 29.7448 6.72687 26.5473 6.72687 23.2763C6.72687 20.0053 7.69683 16.8077 9.51409 14.088C11.3314 11.3683 13.9143 9.24852 16.9363 7.99677C19.9583 6.74501 23.2836 6.4175 26.4918 7.05563C29.6999 7.69377 32.6468 9.2689 34.9597 11.5818L39.5934 6.94814Z" fill="#DCDCDC"/>
<path d="M18.6875 8.05865C14.6515 9.27276 11.2632 12.0404 9.26781 15.7528C7.27246 19.4652 6.83356 23.8181 8.04767 27.8541C9.26178 31.8901 12.0294 35.2785 15.7418 37.2738C19.4542 39.2692 23.8072 39.7081 27.8431 38.494L26.544 34.1754C23.6534 35.045 20.5357 34.7306 17.8769 33.3015C15.218 31.8724 13.2358 29.4456 12.3662 26.555C11.4967 23.6644 11.811 20.5467 13.2401 17.8879C14.6692 15.229 17.096 13.2468 19.9866 12.3772L18.6875 8.05865Z" fill="#DCDCDC"/>
<path d="M30.4293 30.8471C29.4289 31.8475 28.2361 32.6348 26.9229 33.1614C25.6098 33.688 24.2035 33.943 22.789 33.911C21.3745 33.879 19.9812 33.5607 18.6932 32.9752C17.4052 32.3898 16.2492 31.5493 15.2951 30.5047C14.3409 29.46 13.6083 28.2328 13.1417 26.8972C12.675 25.5615 12.4838 24.1452 12.5798 22.7336C12.6757 21.322 13.0567 19.9445 13.6998 18.6843C14.3429 17.4241 15.2348 16.3073 16.3215 15.4014L18.7304 18.2909C18.0341 18.8714 17.4627 19.5869 17.0507 20.3943C16.6386 21.2017 16.3945 22.0843 16.3331 22.9887C16.2716 23.8931 16.3941 24.8005 16.6931 25.6563C16.9921 26.512 17.4614 27.2983 18.0727 27.9676C18.6841 28.6369 19.4247 29.1754 20.2499 29.5505C21.0752 29.9256 21.9679 30.1295 22.8741 30.15C23.7803 30.1705 24.6813 30.0072 25.5227 29.6698C26.364 29.3324 27.1283 28.8279 27.7692 28.187L30.4293 30.8471Z" fill="#DCDCDC"/>
<path d="M68.988 16.6897C67.8461 16.0838 66.4012 15.7808 64.6533 15.7808C63.255 15.7808 61.9616 16.1188 60.773 16.7946C59.6078 17.4704 58.6639 18.4143 57.9415 19.6261C57.219 20.8147 56.8578 22.213 56.8578 23.821C56.8578 25.2893 57.1724 26.6176 57.8017 27.8062C58.4309 28.9714 59.3398 29.9036 60.5283 30.6028C61.7402 31.2786 63.1851 31.6165 64.8631 31.6165C65.702 31.6165 66.4828 31.535 67.2052 31.3718C67.951 31.2087 68.6152 30.9757 69.1978 30.6727C69.3143 30.6028 69.4425 30.5678 69.5823 30.5678C69.8387 30.5678 70.0484 30.6494 70.2116 30.8125C70.3747 30.9757 70.4563 31.1854 70.4563 31.4418C70.4563 31.8146 70.2931 32.071 69.9669 32.2108C69.2677 32.5837 68.487 32.8634 67.6247 33.0498C66.7624 33.2595 65.8419 33.3644 64.8631 33.3644C62.8122 33.3644 61.0527 32.9449 59.5845 32.106C58.1396 31.267 57.0326 30.125 56.2635 28.6801C55.4945 27.2352 55.1099 25.6155 55.1099 23.821C55.1099 21.8634 55.5527 20.1505 56.4383 18.6823C57.3239 17.2141 58.4892 16.0721 59.9341 15.2565C61.379 14.4408 62.9521 14.033 64.6533 14.033C66.7508 14.033 68.4753 14.4058 69.827 15.1516C70.13 15.338 70.2815 15.5944 70.2815 15.9207C70.2815 16.1304 70.1999 16.3285 70.0368 16.5149C69.8736 16.7014 69.6639 16.7946 69.4075 16.7946C69.2677 16.7946 69.1279 16.7596 68.988 16.6897ZM80.9227 32.1759C80.9227 32.4089 80.8412 32.6187 80.678 32.8051C80.5149 32.9682 80.3052 33.0498 80.0488 33.0498C79.8157 33.0498 79.606 32.9682 79.4196 32.8051C79.2564 32.6187 79.1749 32.4089 79.1749 32.1759V15.2215C79.1749 14.9652 79.2564 14.7554 79.4196 14.5923C79.606 14.4291 79.8157 14.3476 80.0488 14.3476C80.3052 14.3476 80.5149 14.4291 80.678 14.5923C80.8412 14.7554 80.9227 14.9652 80.9227 15.2215V32.1759ZM104.06 33.0498C103.803 33.0498 103.582 32.9449 103.395 32.7352C102.953 32.2225 102.405 31.5932 101.752 30.8475C101.123 30.0784 100.447 29.2627 99.7249 28.4005C99.0258 27.5382 98.3266 26.6992 97.6275 25.8835C96.9516 25.0446 96.3457 24.2988 95.8097 23.6463C95.1105 24.2988 94.4696 24.8931 93.887 25.4291C93.3044 25.9418 92.8383 26.3613 92.4887 26.6876V32.1759C92.4887 32.4089 92.4072 32.6187 92.244 32.8051C92.0809 32.9682 91.8711 33.0498 91.6148 33.0498C91.3817 33.0498 91.172 32.9682 90.9856 32.8051C90.8224 32.6187 90.7409 32.4089 90.7409 32.1759V15.2215C90.7409 14.9652 90.8224 14.7554 90.9856 14.5923C91.172 14.4291 91.3817 14.3476 91.6148 14.3476C91.8711 14.3476 92.0809 14.4291 92.244 14.5923C92.4072 14.7554 92.4887 14.9652 92.4887 15.2215V24.3454C93.1413 23.7395 93.8987 23.0403 94.761 22.248C95.6465 21.4323 96.5671 20.5817 97.5226 19.6961C98.4781 18.7872 99.4103 17.9016 100.319 17.0393C101.228 16.1537 102.032 15.3497 102.731 14.6272C102.918 14.4408 103.127 14.3476 103.36 14.3476C103.594 14.3476 103.792 14.4408 103.955 14.6272C104.141 14.7904 104.234 14.9885 104.234 15.2215C104.234 15.408 104.153 15.606 103.99 15.8158C103.081 16.7713 101.997 17.855 100.739 19.0668C99.5035 20.2554 98.2917 21.3973 97.1031 22.4927C97.6391 23.1219 98.2451 23.856 98.9209 24.695C99.62 25.534 100.331 26.3846 101.053 27.2469C101.776 28.1092 102.452 28.9248 103.081 29.6939C103.733 30.463 104.281 31.1038 104.724 31.6165C104.864 31.7564 104.934 31.9428 104.934 32.1759C104.934 32.3856 104.852 32.5837 104.689 32.7701C104.526 32.9566 104.316 33.0498 104.06 33.0498ZM113.87 33.0498C113.637 33.0498 113.427 32.9682 113.241 32.8051C113.078 32.6187 112.996 32.4089 112.996 32.1759V15.2215C112.996 14.9652 113.078 14.7554 113.241 14.5923C113.427 14.4291 113.637 14.3476 113.87 14.3476C114.126 14.3476 114.336 14.4291 114.499 14.5923C114.662 14.7554 114.744 14.9652 114.744 15.2215V31.3019H123.344C123.6 31.3019 123.81 31.3835 123.973 31.5466C124.136 31.7098 124.218 31.9195 124.218 32.1759C124.218 32.4089 124.136 32.6187 123.973 32.8051C123.81 32.9682 123.6 33.0498 123.344 33.0498H113.87ZM132.654 25.5689C132.654 27.5032 133.202 28.9947 134.297 30.0435C135.416 31.0922 136.849 31.6165 138.597 31.6165C140.531 31.6165 142.023 31.0922 143.071 30.0435C144.143 28.9714 144.679 27.445 144.679 25.464V15.2215C144.679 14.9652 144.761 14.7554 144.924 14.5923C145.11 14.4291 145.32 14.3476 145.553 14.3476C145.81 14.3476 146.019 14.4291 146.183 14.5923C146.346 14.7554 146.427 14.9652 146.427 15.2215V25.464C146.427 28.0043 145.74 29.9619 144.365 31.3369C143.013 32.6886 141.09 33.3644 138.597 33.3644C136.336 33.3644 134.483 32.6886 133.039 31.3369C131.617 29.9852 130.906 28.0625 130.906 25.5689V15.2215C130.906 14.9652 130.988 14.7554 131.151 14.5923C131.337 14.4291 131.547 14.3476 131.78 14.3476C132.036 14.3476 132.246 14.4291 132.409 14.5923C132.572 14.7554 132.654 14.9652 132.654 15.2215V25.5689ZM176.685 33.1197C176.475 33.1197 176.289 33.0498 176.126 32.91C175.963 32.7701 175.858 32.5837 175.811 32.3507C175.648 31.0223 175.438 29.5191 175.182 27.8411C174.926 26.1632 174.646 24.427 174.343 22.6325C174.04 20.838 173.725 19.1018 173.399 17.4238C172.63 18.9853 171.838 20.6166 171.022 22.3179C170.23 23.9958 169.472 25.6505 168.75 27.2818C168.027 28.9132 167.375 30.4396 166.792 31.8613C166.629 32.2574 166.373 32.4555 166.023 32.4555C165.604 32.4555 165.324 32.2924 165.184 31.9661C164.508 30.5212 163.762 28.9598 162.947 27.2818C162.131 25.5806 161.315 23.8793 160.5 22.178C159.707 20.4768 158.962 18.9037 158.263 17.4588C158.076 18.694 157.878 19.999 157.668 21.374C157.482 22.749 157.295 24.1124 157.109 25.464C156.946 26.8157 156.783 28.0858 156.62 29.2744C156.48 30.463 156.363 31.4884 156.27 32.3507C156.247 32.5604 156.142 32.7468 155.955 32.91C155.792 33.0498 155.594 33.1197 155.361 33.1197C155.128 33.1197 154.93 33.0382 154.767 32.875C154.604 32.6886 154.522 32.4672 154.522 32.2108C154.522 32.1642 154.557 31.8263 154.627 31.1971C154.72 30.428 154.848 29.3793 155.011 28.0509C155.175 26.7225 155.361 25.2776 155.571 23.7162C155.781 22.1314 156.002 20.5583 156.235 18.9969C156.468 17.4355 156.689 16.0255 156.899 14.7671C156.946 14.5573 157.051 14.3825 157.214 14.2427C157.4 14.1029 157.598 14.033 157.808 14.033C158.088 14.033 158.297 14.1262 158.437 14.3126C158.67 14.5457 158.857 14.8253 158.997 15.1516C159.649 16.4567 160.36 17.9249 161.129 19.5562C161.921 21.1643 162.737 22.8189 163.576 24.5202C164.415 26.2215 165.207 27.8528 165.953 29.4142C166.629 27.8761 167.351 26.2448 168.121 24.5202C168.913 22.7723 169.717 21.0361 170.533 19.3115C171.372 17.5637 172.187 15.944 172.98 14.4524C173.166 14.1495 173.434 13.998 173.784 13.998C173.993 13.998 174.191 14.0679 174.378 14.2077C174.564 14.3243 174.669 14.4874 174.692 14.6971C174.972 16.0721 175.24 17.5404 175.497 19.1018C175.776 20.6399 176.033 22.1198 176.266 23.5414C176.499 24.963 176.685 26.2098 176.825 27.2818C176.988 28.3306 177.105 29.053 177.174 29.4492C177.361 30.5911 177.466 31.3252 177.489 31.6515C177.536 31.9778 177.559 32.1759 177.559 32.2458C177.559 32.4788 177.477 32.6886 177.314 32.875C177.151 33.0382 176.941 33.1197 176.685 33.1197Z" fill="#DCDCDC"/>
<path d="M57.2281 42.7666C57.1815 42.7666 57.1396 42.7503 57.1023 42.7177C57.0696 42.6804 57.0533 42.6384 57.0533 42.5918V39.2009C57.0533 39.1543 57.0673 39.1147 57.0953 39.0821C57.1279 39.0448 57.1652 39.0262 57.2071 39.0262H59.1648C59.216 39.0262 59.258 39.0425 59.2906 39.0751C59.3232 39.1077 59.3395 39.1497 59.3395 39.2009C59.3395 39.2476 59.3232 39.2895 59.2906 39.3268C59.258 39.3594 59.216 39.3757 59.1648 39.3757H57.4029V40.5922H58.8641C58.9154 40.5922 58.9573 40.6086 58.99 40.6412C59.0226 40.6738 59.0389 40.7158 59.0389 40.767C59.0389 40.8136 59.0226 40.8556 58.99 40.8929C58.9573 40.9255 58.9154 40.9418 58.8641 40.9418H57.4029V42.417H59.1787C59.23 42.417 59.272 42.4333 59.3046 42.466C59.3372 42.4986 59.3535 42.5405 59.3535 42.5918C59.3535 42.6384 59.3372 42.6804 59.3046 42.7177C59.272 42.7503 59.23 42.7666 59.1787 42.7666H57.2281ZM65.3605 42.7806C65.3186 42.7806 65.2813 42.7666 65.2487 42.7386C65.216 42.7107 65.1951 42.6734 65.1857 42.6268C65.1531 42.3611 65.1112 42.0605 65.0599 41.7249C65.0086 41.3893 64.9527 41.042 64.8921 40.6831C64.8315 40.3242 64.7686 39.977 64.7033 39.6414C64.5495 39.9537 64.391 40.28 64.2279 40.6202C64.0694 40.9558 63.918 41.2867 63.7735 41.613C63.629 41.9393 63.4985 42.2446 63.3819 42.5289C63.3493 42.6081 63.298 42.6477 63.2281 42.6477C63.1442 42.6477 63.0883 42.6151 63.0603 42.5499C62.9252 42.2609 62.776 41.9486 62.6129 41.613C62.4497 41.2728 62.2866 40.9325 62.1235 40.5922C61.965 40.252 61.8158 39.9374 61.676 39.6484C61.6387 39.8954 61.5991 40.1564 61.5572 40.4314C61.5199 40.7064 61.4826 40.9791 61.4453 41.2494C61.4127 41.5198 61.38 41.7738 61.3474 42.0115C61.3194 42.2492 61.2961 42.4543 61.2775 42.6268C61.2728 42.6687 61.2519 42.706 61.2146 42.7386C61.1819 42.7666 61.1423 42.7806 61.0957 42.7806C61.0491 42.7806 61.0095 42.7643 60.9769 42.7316C60.9442 42.6944 60.9279 42.6501 60.9279 42.5988C60.9279 42.5895 60.9349 42.5219 60.9489 42.3961C60.9675 42.2422 60.9932 42.0325 61.0258 41.7668C61.0584 41.5011 61.0957 41.2122 61.1377 40.8999C61.1796 40.5829 61.2239 40.2683 61.2705 39.956C61.3171 39.6437 61.3614 39.3617 61.4033 39.1101C61.4127 39.0681 61.4336 39.0331 61.4663 39.0052C61.5036 38.9772 61.5432 38.9632 61.5851 38.9632C61.6411 38.9632 61.683 38.9819 61.711 39.0192C61.7576 39.0658 61.7949 39.1217 61.8228 39.187C61.9533 39.448 62.0955 39.7416 62.2493 40.0679C62.4078 40.3895 62.5709 40.7204 62.7387 41.0607C62.9065 41.4009 63.065 41.7272 63.2141 42.0395C63.3493 41.7319 63.4938 41.4056 63.6476 41.0607C63.8061 40.7111 63.9669 40.3639 64.13 40.0189C64.2978 39.6694 64.461 39.3454 64.6194 39.0471C64.6567 38.9865 64.7103 38.9562 64.7802 38.9562C64.8222 38.9562 64.8618 38.9702 64.8991 38.9982C64.9364 39.0215 64.9574 39.0541 64.962 39.0961C65.0179 39.3711 65.0715 39.6647 65.1228 39.977C65.1787 40.2846 65.23 40.5806 65.2766 40.8649C65.3232 41.1492 65.3605 41.3986 65.3885 41.613C65.4211 41.8228 65.4444 41.9672 65.4584 42.0465C65.4957 42.2749 65.5167 42.4217 65.5213 42.4869C65.5307 42.5522 65.5353 42.5918 65.5353 42.6058C65.5353 42.6524 65.519 42.6944 65.4864 42.7316C65.4537 42.7643 65.4118 42.7806 65.3605 42.7806ZM67.5231 42.7666C67.4765 42.7666 67.4345 42.7503 67.3972 42.7177C67.3646 42.6804 67.3483 42.6384 67.3483 42.5918V39.2009C67.3483 39.1497 67.3646 39.1077 67.3972 39.0751C67.4345 39.0425 67.4765 39.0262 67.5231 39.0262H68.5229C68.7979 39.0262 69.0379 39.0821 69.243 39.194C69.4481 39.3012 69.6065 39.448 69.7184 39.6344C69.8349 39.8209 69.8932 40.0353 69.8932 40.2776C69.8932 40.5014 69.8419 40.7088 69.7394 40.8999C69.6415 41.091 69.49 41.2448 69.2849 41.3613C69.0845 41.4778 68.8305 41.5361 68.5229 41.5361H67.6979V42.5918C67.6979 42.6384 67.6816 42.6804 67.6489 42.7177C67.6163 42.7503 67.5744 42.7666 67.5231 42.7666ZM67.6979 39.3757V41.1865H68.5229C68.8538 41.1865 69.1055 41.1003 69.2779 40.9278C69.4551 40.7507 69.5436 40.534 69.5436 40.2776C69.5436 40.0073 69.4481 39.7906 69.257 39.6274C69.0659 39.4596 68.8212 39.3757 68.5229 39.3757H67.6979ZM73.106 38.9632C73.4369 38.9632 73.7376 39.0448 74.0079 39.2079C74.2829 39.3711 74.4996 39.5995 74.6581 39.8931C74.8212 40.1821 74.9028 40.5177 74.9028 40.8999C74.9028 41.2634 74.8306 41.592 74.6861 41.8857C74.5462 42.1747 74.3412 42.4054 74.0708 42.5778C73.8052 42.7456 73.4835 42.8295 73.106 42.8295C72.7518 42.8295 72.4372 42.7456 72.1622 42.5778C71.8872 42.4054 71.6704 42.1747 71.5119 41.8857C71.3581 41.5967 71.2812 41.2751 71.2812 40.9208C71.2812 40.5293 71.3581 40.1867 71.5119 39.8931C71.6658 39.5995 71.8778 39.3711 72.1482 39.2079C72.4232 39.0448 72.7424 38.9632 73.106 38.9632ZM73.106 39.3128C72.8124 39.3128 72.5537 39.3827 72.3299 39.5226C72.1109 39.6577 71.9384 39.8465 71.8126 40.0889C71.6914 40.3266 71.6308 40.6039 71.6308 40.9208C71.6308 41.2052 71.6914 41.4662 71.8126 41.7039C71.9384 41.9416 72.1132 42.1304 72.3369 42.2702C72.5607 42.41 72.817 42.48 73.106 42.48C73.4136 42.48 73.6746 42.41 73.889 42.2702C74.1081 42.1304 74.2736 41.9416 74.3854 41.7039C74.4973 41.4615 74.5532 41.1935 74.5532 40.8999C74.5532 40.5922 74.488 40.3196 74.3575 40.0819C74.2316 39.8442 74.0592 39.6577 73.8401 39.5226C73.621 39.3827 73.3763 39.3128 73.106 39.3128ZM80.2094 42.8365C80.1814 42.8365 80.1511 42.8249 80.1185 42.8016C80.0858 42.7829 80.0579 42.748 80.0346 42.6967C79.9786 42.5848 79.9041 42.417 79.8108 42.1933C79.7176 41.9696 79.6174 41.7179 79.5102 41.4382C79.4077 41.1539 79.3028 40.8696 79.1956 40.5853C79.093 40.2963 79.0022 40.0329 78.9229 39.7952C78.8344 40.0516 78.7365 40.3242 78.6293 40.6132C78.5221 40.8975 78.4149 41.1795 78.3077 41.4592C78.2005 41.7342 78.1003 41.9836 78.007 42.2073C77.9185 42.4263 77.8462 42.5988 77.7903 42.7247C77.7577 42.7946 77.7017 42.8295 77.6225 42.8295C77.5759 42.8295 77.5363 42.8132 77.5036 42.7806C77.4757 42.7526 77.4547 42.7223 77.4407 42.6897C77.3941 42.5872 77.3312 42.4333 77.252 42.2283C77.1727 42.0185 77.0865 41.7855 76.9933 41.5291C76.9001 41.2681 76.8092 41.0071 76.7206 40.7461C76.632 40.4804 76.5505 40.238 76.4759 40.0189C76.406 39.7952 76.3524 39.6181 76.3151 39.4876C76.2871 39.3897 76.2685 39.3221 76.2592 39.2848C76.2498 39.2476 76.2452 39.2219 76.2452 39.2079C76.2452 39.1613 76.2615 39.1217 76.2941 39.0891C76.3314 39.0518 76.3734 39.0331 76.42 39.0331C76.5085 39.0331 76.5645 39.0751 76.5878 39.159C76.639 39.3408 76.7066 39.5668 76.7905 39.8372C76.8744 40.1028 76.9653 40.3825 77.0632 40.6761C77.1657 40.9698 77.2659 41.2518 77.3638 41.5221C77.4617 41.7925 77.5479 42.0232 77.6225 42.2143C77.7064 42.0185 77.7996 41.7901 77.9022 41.5291C78.0047 41.2681 78.1096 40.9978 78.2168 40.7181C78.324 40.4338 78.4242 40.1588 78.5174 39.8931C78.6153 39.6228 78.6945 39.3851 78.7551 39.18C78.7784 39.0961 78.8344 39.0541 78.9229 39.0541C79.0068 39.0541 79.0721 39.124 79.1187 39.2639C79.1793 39.4503 79.2539 39.674 79.3424 39.935C79.4356 40.1961 79.5335 40.4687 79.6361 40.7531C79.7386 41.0327 79.8388 41.3031 79.9367 41.5641C80.0392 41.8204 80.1278 42.0418 80.2024 42.2283C80.2816 42.0325 80.3678 41.8041 80.461 41.5431C80.5589 41.2774 80.6568 41.0024 80.7547 40.7181C80.8526 40.4291 80.9458 40.1495 81.0343 39.8791C81.1229 39.6088 81.1975 39.3687 81.2581 39.159C81.2814 39.0751 81.3373 39.0331 81.4259 39.0331C81.4678 39.0331 81.5074 39.0518 81.5447 39.0891C81.582 39.1217 81.6007 39.1613 81.6007 39.2079C81.6007 39.2266 81.589 39.2755 81.5657 39.3548C81.5144 39.5365 81.4468 39.7509 81.3629 39.998C81.2837 40.2403 81.1975 40.4967 81.1043 40.767C81.0157 41.0327 80.9248 41.2937 80.8316 41.5501C80.7384 41.8064 80.6521 42.0395 80.5729 42.2492C80.4937 42.4543 80.4284 42.6151 80.3771 42.7316C80.3445 42.8016 80.2886 42.8365 80.2094 42.8365ZM83.4776 42.7666C83.431 42.7666 83.389 42.7503 83.3518 42.7177C83.3191 42.6804 83.3028 42.6384 83.3028 42.5918V39.2009C83.3028 39.1543 83.3168 39.1147 83.3448 39.0821C83.3774 39.0448 83.4147 39.0262 83.4566 39.0262H85.4142C85.4655 39.0262 85.5075 39.0425 85.5401 39.0751C85.5727 39.1077 85.589 39.1497 85.589 39.2009C85.589 39.2476 85.5727 39.2895 85.5401 39.3268C85.5075 39.3594 85.4655 39.3757 85.4142 39.3757H83.6524V40.5922H85.1136C85.1649 40.5922 85.2068 40.6086 85.2395 40.6412C85.2721 40.6738 85.2884 40.7158 85.2884 40.767C85.2884 40.8136 85.2721 40.8556 85.2395 40.8929C85.2068 40.9255 85.1649 40.9418 85.1136 40.9418H83.6524V42.417H85.4282C85.4795 42.417 85.5214 42.4333 85.5541 42.466C85.5867 42.4986 85.603 42.5405 85.603 42.5918C85.603 42.6384 85.5867 42.6804 85.5541 42.7177C85.5214 42.7503 85.4795 42.7666 85.4282 42.7666H83.4776ZM89.828 42.7666C89.7767 42.7666 89.7325 42.7456 89.6952 42.7037L88.5556 41.3753H87.6187V42.5918C87.6187 42.6384 87.6024 42.6804 87.5698 42.7177C87.5371 42.7503 87.4952 42.7666 87.4439 42.7666C87.3973 42.7666 87.3553 42.7503 87.3181 42.7177C87.2854 42.6804 87.2691 42.6384 87.2691 42.5918V39.2009C87.2691 39.1497 87.2854 39.1077 87.3181 39.0751C87.3553 39.0425 87.3973 39.0262 87.4439 39.0262H88.4717C88.7467 39.0262 88.982 39.0774 89.1778 39.18C89.3782 39.2825 89.532 39.4223 89.6392 39.5995C89.7511 39.7719 89.807 39.9723 89.807 40.2007C89.807 40.4524 89.7371 40.6808 89.5973 40.8859C89.4621 41.091 89.25 41.2331 88.9611 41.3124L89.9608 42.48C89.9888 42.5079 90.0028 42.5452 90.0028 42.5918C90.0028 42.6338 89.9865 42.6734 89.9538 42.7107C89.9212 42.748 89.8793 42.7666 89.828 42.7666ZM87.6187 39.3757V41.0257H88.4717C88.7933 41.0257 89.038 40.9465 89.2058 40.788C89.3736 40.6249 89.4575 40.4291 89.4575 40.2007C89.4575 39.9537 89.3642 39.7556 89.1778 39.6064C88.996 39.4526 88.7606 39.3757 88.4717 39.3757H87.6187ZM91.9955 42.5918C91.9955 42.6384 91.9792 42.6804 91.9465 42.7177C91.9139 42.7503 91.872 42.7666 91.8207 42.7666C91.7741 42.7666 91.7321 42.7503 91.6948 42.7177C91.6622 42.6804 91.6459 42.6384 91.6459 42.5918V39.2009C91.6459 39.1497 91.6622 39.1077 91.6948 39.0751C91.7321 39.0425 91.7741 39.0262 91.8207 39.0262C91.872 39.0262 91.9139 39.0425 91.9465 39.0751C91.9792 39.1077 91.9955 39.1497 91.9955 39.2009V42.5918ZM96.6718 42.6967C96.5133 42.4823 96.3292 42.2422 96.1195 41.9766C95.9144 41.7109 95.7023 41.4405 95.4832 41.1656C95.2642 40.8859 95.0521 40.6156 94.847 40.3545C94.6466 40.0935 94.4671 39.8628 94.3087 39.6624V42.5918C94.3087 42.6384 94.2924 42.6804 94.2597 42.7177C94.2271 42.7503 94.1852 42.7666 94.1339 42.7666C94.0873 42.7666 94.0453 42.7503 94.008 42.7177C93.9754 42.6804 93.9591 42.6384 93.9591 42.5918V39.2009C93.9591 39.1497 93.9754 39.1077 94.008 39.0751C94.0453 39.0425 94.0849 39.0262 94.1269 39.0262C94.2201 39.0262 94.283 39.0495 94.3157 39.0961C94.4322 39.2499 94.5837 39.448 94.7701 39.6903C94.9565 39.9281 95.1593 40.1891 95.3784 40.4734C95.6021 40.7531 95.8258 41.0374 96.0496 41.3264C96.2779 41.6107 96.4877 41.8787 96.6788 42.1304V39.2009C96.6788 39.1497 96.6951 39.1077 96.7277 39.0751C96.765 39.0425 96.807 39.0262 96.8536 39.0262C96.9048 39.0262 96.9468 39.0425 96.9794 39.0751C97.012 39.1077 97.0284 39.1497 97.0284 39.2009V42.5918C97.0284 42.6384 97.012 42.6804 96.9794 42.7177C96.9468 42.7503 96.9072 42.7666 96.8606 42.7666C96.7673 42.7666 96.7044 42.7433 96.6718 42.6967ZM101.935 42.459C101.762 42.5662 101.567 42.6547 101.347 42.7247C101.133 42.7946 100.881 42.8295 100.592 42.8295C100.192 42.8295 99.849 42.7456 99.5646 42.5778C99.285 42.4054 99.0706 42.1747 98.9214 41.8857C98.7723 41.5967 98.6977 41.2751 98.6977 40.9208C98.6977 40.5293 98.7793 40.1867 98.9424 39.8931C99.1102 39.5995 99.3386 39.3711 99.6276 39.2079C99.9165 39.0448 100.245 38.9632 100.613 38.9632C100.818 38.9632 101.01 38.9842 101.187 39.0262C101.368 39.0634 101.539 39.1101 101.697 39.166C101.772 39.194 101.809 39.2476 101.809 39.3268C101.809 39.3734 101.793 39.4153 101.76 39.4526C101.732 39.4853 101.69 39.5016 101.634 39.5016C101.62 39.5016 101.599 39.4969 101.571 39.4876C101.436 39.4363 101.289 39.3944 101.131 39.3617C100.972 39.3291 100.8 39.3128 100.613 39.3128C100.31 39.3128 100.04 39.3804 99.8023 39.5156C99.5693 39.6507 99.3852 39.8395 99.25 40.0819C99.1148 40.3196 99.0473 40.5992 99.0473 40.9208C99.0473 41.2098 99.1079 41.4732 99.229 41.7109C99.3502 41.9439 99.525 42.1304 99.7534 42.2702C99.9865 42.41 100.266 42.48 100.592 42.48C100.821 42.48 101.021 42.4566 101.194 42.41C101.371 42.3588 101.532 42.2935 101.676 42.2143V41.2005H100.704C100.658 41.2005 100.616 41.1842 100.578 41.1516C100.546 41.1143 100.529 41.0723 100.529 41.0257C100.529 40.9745 100.546 40.9325 100.578 40.8999C100.616 40.8672 100.658 40.8509 100.704 40.8509H101.774C101.863 40.8509 101.925 40.8649 101.963 40.8929C102.005 40.9162 102.026 40.9605 102.026 41.0257V42.2842C102.026 42.3634 101.995 42.4217 101.935 42.459ZM111.501 39.4946C111.273 39.3734 110.984 39.3128 110.635 39.3128C110.355 39.3128 110.096 39.3804 109.858 39.5156C109.625 39.6507 109.437 39.8395 109.292 40.0819C109.148 40.3196 109.075 40.5992 109.075 40.9208C109.075 41.2145 109.138 41.4802 109.264 41.7179C109.39 41.9509 109.572 42.1374 109.81 42.2772C110.052 42.4124 110.341 42.48 110.676 42.48C110.844 42.48 111 42.4636 111.145 42.431C111.294 42.3984 111.427 42.3518 111.543 42.2912C111.567 42.2772 111.592 42.2702 111.62 42.2702C111.672 42.2702 111.714 42.2865 111.746 42.3191C111.779 42.3518 111.795 42.3937 111.795 42.445C111.795 42.5196 111.762 42.5708 111.697 42.5988C111.557 42.6734 111.401 42.7293 111.229 42.7666C111.056 42.8086 110.872 42.8295 110.676 42.8295C110.266 42.8295 109.914 42.7456 109.621 42.5778C109.332 42.41 109.11 42.1816 108.957 41.8927C108.803 41.6037 108.726 41.2797 108.726 40.9208C108.726 40.5293 108.814 40.1867 108.992 39.8931C109.169 39.5995 109.402 39.3711 109.691 39.2079C109.98 39.0448 110.294 38.9632 110.635 38.9632C111.054 38.9632 111.399 39.0378 111.669 39.187C111.73 39.2242 111.76 39.2755 111.76 39.3408C111.76 39.3827 111.744 39.4223 111.711 39.4596C111.679 39.4969 111.637 39.5156 111.585 39.5156C111.557 39.5156 111.529 39.5086 111.501 39.4946ZM115.07 38.9632C115.401 38.9632 115.702 39.0448 115.972 39.2079C116.247 39.3711 116.464 39.5995 116.622 39.8931C116.785 40.1821 116.867 40.5177 116.867 40.8999C116.867 41.2634 116.795 41.592 116.65 41.8857C116.51 42.1747 116.305 42.4054 116.035 42.5778C115.769 42.7456 115.447 42.8295 115.07 42.8295C114.716 42.8295 114.401 42.7456 114.126 42.5778C113.851 42.4054 113.634 42.1747 113.476 41.8857C113.322 41.5967 113.245 41.2751 113.245 40.9208C113.245 40.5293 113.322 40.1867 113.476 39.8931C113.63 39.5995 113.842 39.3711 114.112 39.2079C114.387 39.0448 114.706 38.9632 115.07 38.9632ZM115.07 39.3128C114.776 39.3128 114.518 39.3827 114.294 39.5226C114.075 39.6577 113.902 39.8465 113.777 40.0889C113.655 40.3266 113.595 40.6039 113.595 40.9208C113.595 41.2052 113.655 41.4662 113.777 41.7039C113.902 41.9416 114.077 42.1304 114.301 42.2702C114.525 42.41 114.781 42.48 115.07 42.48C115.378 42.48 115.639 42.41 115.853 42.2702C116.072 42.1304 116.238 41.9416 116.349 41.7039C116.461 41.4615 116.517 41.1935 116.517 40.8999C116.517 40.5922 116.452 40.3196 116.321 40.0819C116.196 39.8442 116.023 39.6577 115.804 39.5226C115.585 39.3827 115.34 39.3128 115.07 39.3128ZM118.71 42.7666C118.663 42.7666 118.621 42.7503 118.584 42.7177C118.552 42.6804 118.535 42.6384 118.535 42.5918V39.2009C118.535 39.1497 118.552 39.1077 118.584 39.0751C118.621 39.0425 118.663 39.0262 118.71 39.0262C118.761 39.0262 118.803 39.0425 118.836 39.0751C118.869 39.1077 118.885 39.1497 118.885 39.2009V42.417H120.605C120.656 42.417 120.698 42.4333 120.731 42.466C120.763 42.4986 120.78 42.5405 120.78 42.5918C120.78 42.6384 120.763 42.6804 120.731 42.7177C120.698 42.7503 120.656 42.7666 120.605 42.7666H118.71ZM122.478 42.7666C122.432 42.7666 122.39 42.7503 122.353 42.7177C122.32 42.6804 122.304 42.6384 122.304 42.5918V39.2009C122.304 39.1497 122.32 39.1077 122.353 39.0751C122.39 39.0425 122.432 39.0262 122.478 39.0262C122.53 39.0262 122.572 39.0425 122.604 39.0751C122.637 39.1077 122.653 39.1497 122.653 39.2009V42.417H124.373C124.424 42.417 124.466 42.4333 124.499 42.466C124.532 42.4986 124.548 42.5405 124.548 42.5918C124.548 42.6384 124.532 42.6804 124.499 42.7177C124.466 42.7503 124.424 42.7666 124.373 42.7666H122.478ZM129.095 42.7666C129.016 42.7666 128.962 42.7293 128.934 42.6547C128.888 42.5289 128.832 42.3891 128.766 42.2352C128.701 42.0814 128.631 41.9206 128.557 41.7528H126.585C126.52 41.9206 126.457 42.0814 126.396 42.2352C126.34 42.3844 126.289 42.5219 126.242 42.6477C126.228 42.685 126.205 42.7153 126.172 42.7386C126.14 42.7573 126.105 42.7666 126.068 42.7666C126.026 42.7666 125.986 42.7503 125.949 42.7177C125.916 42.6804 125.9 42.6361 125.9 42.5848C125.9 42.5708 125.902 42.5522 125.907 42.5289C125.916 42.5009 125.937 42.4473 125.97 42.3681C126.049 42.1583 126.142 41.9183 126.249 41.648C126.361 41.3776 126.48 41.0956 126.606 40.802C126.732 40.5084 126.86 40.2124 126.99 39.9141C127.121 39.6158 127.247 39.3338 127.368 39.0681C127.401 38.9982 127.457 38.9632 127.536 38.9632H127.564C127.648 38.9632 127.704 38.9959 127.732 39.0611C127.857 39.3315 127.99 39.6228 128.13 39.935C128.275 40.2473 128.414 40.5573 128.55 40.8649C128.685 41.1679 128.808 41.4522 128.92 41.7179C129.032 41.9789 129.123 42.1956 129.193 42.3681C129.23 42.452 129.251 42.5079 129.256 42.5359C129.265 42.5638 129.27 42.5825 129.27 42.5918C129.27 42.6384 129.251 42.6804 129.214 42.7177C129.181 42.7503 129.142 42.7666 129.095 42.7666ZM128.41 41.4033C128.275 41.091 128.132 40.7717 127.983 40.4454C127.834 40.1192 127.69 39.8092 127.55 39.5156C127.419 39.8139 127.282 40.1261 127.137 40.4524C126.997 40.774 126.862 41.091 126.732 41.4033H128.41ZM131.039 42.7666C130.992 42.7666 130.951 42.7503 130.913 42.7177C130.881 42.6804 130.864 42.6384 130.864 42.5918V39.2009C130.864 39.1497 130.881 39.1077 130.913 39.0751C130.951 39.0425 130.992 39.0262 131.039 39.0262H132.011C132.216 39.0262 132.388 39.0565 132.528 39.117C132.668 39.1776 132.782 39.2499 132.871 39.3338C132.95 39.413 133.013 39.5132 133.06 39.6344C133.106 39.7509 133.13 39.8651 133.13 39.977C133.13 40.1028 133.106 40.224 133.06 40.3406C133.013 40.4524 132.95 40.548 132.871 40.6272C132.857 40.6412 132.841 40.6575 132.822 40.6761C132.808 40.6901 132.789 40.7041 132.766 40.7181C132.924 40.7833 133.055 40.8672 133.158 40.9698C133.363 41.1749 133.465 41.4196 133.465 41.7039C133.465 41.8297 133.442 41.9556 133.395 42.0814C133.349 42.2026 133.276 42.3122 133.179 42.41C133.076 42.5126 132.941 42.5988 132.773 42.6687C132.605 42.734 132.388 42.7666 132.123 42.7666H131.039ZM132.074 40.5992C132.195 40.5899 132.302 40.5643 132.395 40.5223C132.493 40.4757 132.568 40.4268 132.619 40.3755C132.726 40.2776 132.78 40.1448 132.78 39.977C132.78 39.8232 132.726 39.6927 132.619 39.5855C132.559 39.5202 132.477 39.469 132.374 39.4317C132.277 39.3944 132.155 39.3757 132.011 39.3757H131.214V40.5992H132.074ZM131.214 40.9488V42.417H132.123C132.328 42.417 132.493 42.3937 132.619 42.3471C132.75 42.3005 132.852 42.2376 132.927 42.1583C133.053 42.0325 133.116 41.881 133.116 41.7039C133.116 41.5221 133.046 41.3613 132.906 41.2215C132.724 41.0397 132.47 40.9488 132.144 40.9488H131.214ZM136.683 38.9632C137.014 38.9632 137.315 39.0448 137.585 39.2079C137.86 39.3711 138.077 39.5995 138.236 39.8931C138.399 40.1821 138.48 40.5177 138.48 40.8999C138.48 41.2634 138.408 41.592 138.264 41.8857C138.124 42.1747 137.919 42.4054 137.648 42.5778C137.383 42.7456 137.061 42.8295 136.683 42.8295C136.329 42.8295 136.015 42.7456 135.74 42.5778C135.465 42.4054 135.248 42.1747 135.089 41.8857C134.936 41.5967 134.859 41.2751 134.859 40.9208C134.859 40.5293 134.936 40.1867 135.089 39.8931C135.243 39.5995 135.455 39.3711 135.726 39.2079C136.001 39.0448 136.32 38.9632 136.683 38.9632ZM136.683 39.3128C136.39 39.3128 136.131 39.3827 135.907 39.5226C135.688 39.6577 135.516 39.8465 135.39 40.0889C135.269 40.3266 135.208 40.6039 135.208 40.9208C135.208 41.2052 135.269 41.4662 135.39 41.7039C135.516 41.9416 135.691 42.1304 135.914 42.2702C136.138 42.41 136.394 42.48 136.683 42.48C136.991 42.48 137.252 42.41 137.467 42.2702C137.686 42.1304 137.851 41.9416 137.963 41.7039C138.075 41.4615 138.131 41.1935 138.131 40.8999C138.131 40.5922 138.065 40.3196 137.935 40.0819C137.809 39.8442 137.637 39.6577 137.418 39.5226C137.199 39.3827 136.954 39.3128 136.683 39.3128ZM142.708 42.7666C142.656 42.7666 142.612 42.7456 142.575 42.7037L141.435 41.3753H140.498V42.5918C140.498 42.6384 140.482 42.6804 140.449 42.7177C140.417 42.7503 140.375 42.7666 140.324 42.7666C140.277 42.7666 140.235 42.7503 140.198 42.7177C140.165 42.6804 140.149 42.6384 140.149 42.5918V39.2009C140.149 39.1497 140.165 39.1077 140.198 39.0751C140.235 39.0425 140.277 39.0262 140.324 39.0262H141.351C141.626 39.0262 141.862 39.0774 142.057 39.18C142.258 39.2825 142.412 39.4223 142.519 39.5995C142.631 39.7719 142.687 39.9723 142.687 40.2007C142.687 40.4524 142.617 40.6808 142.477 40.8859C142.342 41.091 142.13 41.2331 141.841 41.3124L142.841 42.48C142.868 42.5079 142.882 42.5452 142.882 42.5918C142.882 42.6338 142.866 42.6734 142.834 42.7107C142.801 42.748 142.759 42.7666 142.708 42.7666ZM140.498 39.3757V41.0257H141.351C141.673 41.0257 141.918 40.9465 142.085 40.788C142.253 40.6249 142.337 40.4291 142.337 40.2007C142.337 39.9537 142.244 39.7556 142.057 39.6064C141.876 39.4526 141.64 39.3757 141.351 39.3757H140.498ZM147.548 42.7666C147.469 42.7666 147.415 42.7293 147.387 42.6547C147.34 42.5289 147.284 42.3891 147.219 42.2352C147.154 42.0814 147.084 41.9206 147.009 41.7528H145.038C144.973 41.9206 144.91 42.0814 144.849 42.2352C144.793 42.3844 144.742 42.5219 144.695 42.6477C144.681 42.685 144.658 42.7153 144.625 42.7386C144.593 42.7573 144.558 42.7666 144.52 42.7666C144.479 42.7666 144.439 42.7503 144.402 42.7177C144.369 42.6804 144.353 42.6361 144.353 42.5848C144.353 42.5708 144.355 42.5522 144.36 42.5289C144.369 42.5009 144.39 42.4473 144.423 42.3681C144.502 42.1583 144.595 41.9183 144.702 41.648C144.814 41.3776 144.933 41.0956 145.059 40.802C145.185 40.5084 145.313 40.2124 145.443 39.9141C145.574 39.6158 145.7 39.3338 145.821 39.0681C145.854 38.9982 145.909 38.9632 145.989 38.9632H146.017C146.101 38.9632 146.157 38.9959 146.184 39.0611C146.31 39.3315 146.443 39.6228 146.583 39.935C146.727 40.2473 146.867 40.5573 147.002 40.8649C147.138 41.1679 147.261 41.4522 147.373 41.7179C147.485 41.9789 147.576 42.1956 147.646 42.3681C147.683 42.452 147.704 42.5079 147.709 42.5359C147.718 42.5638 147.723 42.5825 147.723 42.5918C147.723 42.6384 147.704 42.6804 147.667 42.7177C147.634 42.7503 147.594 42.7666 147.548 42.7666ZM146.863 41.4033C146.727 41.091 146.585 40.7717 146.436 40.4454C146.287 40.1192 146.143 39.8092 146.003 39.5156C145.872 39.8139 145.735 40.1261 145.59 40.4524C145.45 40.774 145.315 41.091 145.185 41.4033H146.863ZM150.179 42.7666C150.132 42.7666 150.09 42.7503 150.053 42.7177C150.02 42.6804 150.004 42.6384 150.004 42.5918V39.3757H148.696C148.65 39.3757 148.608 39.3594 148.57 39.3268C148.538 39.2895 148.522 39.2476 148.522 39.2009C148.522 39.1497 148.538 39.1077 148.57 39.0751C148.608 39.0425 148.65 39.0262 148.696 39.0262H151.689C151.74 39.0262 151.782 39.0425 151.815 39.0751C151.847 39.1077 151.863 39.1497 151.863 39.2009C151.863 39.2476 151.847 39.2895 151.815 39.3268C151.782 39.3594 151.74 39.3757 151.689 39.3757H150.353V42.5918C150.353 42.6384 150.337 42.6804 150.304 42.7177C150.272 42.7503 150.23 42.7666 150.179 42.7666ZM153.729 42.5918C153.729 42.6384 153.713 42.6804 153.681 42.7177C153.648 42.7503 153.606 42.7666 153.555 42.7666C153.508 42.7666 153.466 42.7503 153.429 42.7177C153.396 42.6804 153.38 42.6384 153.38 42.5918V39.2009C153.38 39.1497 153.396 39.1077 153.429 39.0751C153.466 39.0425 153.508 39.0262 153.555 39.0262C153.606 39.0262 153.648 39.0425 153.681 39.0751C153.713 39.1077 153.729 39.1497 153.729 39.2009V42.5918ZM157.259 38.9632C157.59 38.9632 157.891 39.0448 158.161 39.2079C158.436 39.3711 158.653 39.5995 158.811 39.8931C158.974 40.1821 159.056 40.5177 159.056 40.8999C159.056 41.2634 158.984 41.592 158.839 41.8857C158.699 42.1747 158.494 42.4054 158.224 42.5778C157.958 42.7456 157.637 42.8295 157.259 42.8295C156.905 42.8295 156.59 42.7456 156.315 42.5778C156.04 42.4054 155.824 42.1747 155.665 41.8857C155.511 41.5967 155.434 41.2751 155.434 40.9208C155.434 40.5293 155.511 40.1867 155.665 39.8931C155.819 39.5995 156.031 39.3711 156.301 39.2079C156.576 39.0448 156.896 38.9632 157.259 38.9632ZM157.259 39.3128C156.966 39.3128 156.707 39.3827 156.483 39.5226C156.264 39.6577 156.092 39.8465 155.966 40.0889C155.845 40.3266 155.784 40.6039 155.784 40.9208C155.784 41.2052 155.845 41.4662 155.966 41.7039C156.092 41.9416 156.266 42.1304 156.49 42.2702C156.714 42.41 156.97 42.48 157.259 42.48C157.567 42.48 157.828 42.41 158.042 42.2702C158.261 42.1304 158.427 41.9416 158.539 41.7039C158.651 41.4615 158.706 41.1935 158.706 40.8999C158.706 40.5922 158.641 40.3196 158.511 40.0819C158.385 39.8442 158.212 39.6577 157.993 39.5226C157.774 39.3827 157.53 39.3128 157.259 39.3128ZM163.437 42.6967C163.279 42.4823 163.095 42.2422 162.885 41.9766C162.68 41.7109 162.468 41.4405 162.249 41.1656C162.03 40.8859 161.818 40.6156 161.612 40.3545C161.412 40.0935 161.233 39.8628 161.074 39.6624V42.5918C161.074 42.6384 161.058 42.6804 161.025 42.7177C160.993 42.7503 160.951 42.7666 160.899 42.7666C160.853 42.7666 160.811 42.7503 160.773 42.7177C160.741 42.6804 160.725 42.6384 160.725 42.5918V39.2009C160.725 39.1497 160.741 39.1077 160.773 39.0751C160.811 39.0425 160.85 39.0262 160.892 39.0262C160.986 39.0262 161.048 39.0495 161.081 39.0961C161.198 39.2499 161.349 39.448 161.536 39.6903C161.722 39.9281 161.925 40.1891 162.144 40.4734C162.368 40.7531 162.591 41.0374 162.815 41.3264C163.043 41.6107 163.253 41.8787 163.444 42.1304V39.2009C163.444 39.1497 163.461 39.1077 163.493 39.0751C163.53 39.0425 163.572 39.0262 163.619 39.0262C163.67 39.0262 163.712 39.0425 163.745 39.0751C163.777 39.1077 163.794 39.1497 163.794 39.2009V42.5918C163.794 42.6384 163.777 42.6804 163.745 42.7177C163.712 42.7503 163.673 42.7666 163.626 42.7666C163.533 42.7666 163.47 42.7433 163.437 42.6967Z" fill="#DCDCDC"/>
</svg>
