<svg width="512" height="257" viewBox="0 0 512 257" fill="none" xmlns="http://www.w3.org/2000/svg">
<g opacity="0.3">
<path d="M0 257L-8.74228e-08 255L2 255L2 257L0 257Z" fill="#5F5F6C"/>
<path d="M-7.43094e-07 240L-8.30516e-07 238L2 238L2 240L-7.43094e-07 240Z" fill="#5F5F6C"/>
<path d="M17 255L17 257L19 257L19 255L17 255Z" fill="#5F5F6C"/>
<path d="M17 240L17 238L19 238L19 240L17 240Z" fill="#5F5F6C"/>
<path d="M-1.57361e-06 221L-1.48619e-06 223L2 223L2 221L-1.57361e-06 221Z" fill="#5F5F6C"/>
<path d="M-2.22928e-06 206L-2.3167e-06 204L2 204L2 206L-2.22928e-06 206Z" fill="#5F5F6C"/>
<path d="M17 221L17 223L19 223L19 221L17 221Z" fill="#5F5F6C"/>
<path d="M17 206L17 204L19 204L19 206L17 206Z" fill="#5F5F6C"/>
<path d="M34 255L34 257L36 257L36 255L34 255Z" fill="#5F5F6C"/>
<path d="M34 240L34 238L36 238L36 240L34 240Z" fill="#5F5F6C"/>
<path d="M51 255L51 257L53 257L53 255L51 255Z" fill="#5F5F6C"/>
<path d="M51 240L51 238L53 238L53 240L51 240Z" fill="#5F5F6C"/>
<path d="M34 221L34 223L36 223L36 221L34 221Z" fill="#5F5F6C"/>
<path d="M34 206L34 204L36 204L36 206L34 206Z" fill="#5F5F6C"/>
<path d="M51 221L51 223L53 223L53 221L51 221Z" fill="#5F5F6C"/>
<path d="M51 206L51 204L53 204L53 206L51 206Z" fill="#5F5F6C"/>
<path d="M-2.97237e-06 189L-3.0598e-06 187L2 187L2 189L-2.97237e-06 189Z" fill="#5F5F6C"/>
<path d="M-3.71547e-06 172L-3.80289e-06 170L2 170L2 172L-3.71547e-06 172Z" fill="#5F5F6C"/>
<path d="M17 187L17 189L19 189L19 187L17 187Z" fill="#5F5F6C"/>
<path d="M17 172L17 170L19 170L19 172L17 172Z" fill="#5F5F6C"/>
<path d="M-4.54598e-06 153L-4.45856e-06 155L2 155L2 153L-4.54598e-06 153Z" fill="#5F5F6C"/>
<path d="M-5.20166e-06 138L-5.28908e-06 136L1.99999 136L1.99999 138L-5.20166e-06 138Z" fill="#5F5F6C"/>
<path d="M17 153L17 155L19 155L19 153L17 153Z" fill="#5F5F6C"/>
<path d="M17 138L17 136L19 136L19 138L17 138Z" fill="#5F5F6C"/>
<path d="M34 187L34 189L36 189L36 187L34 187Z" fill="#5F5F6C"/>
<path d="M34 172L34 170L36 170L36 172L34 172Z" fill="#5F5F6C"/>
<path d="M51 187L51 189L53 189L53 187L51 187Z" fill="#5F5F6C"/>
<path d="M51 172L51 170L53 170L53 172L51 172Z" fill="#5F5F6C"/>
<path d="M34 153L34 155L36 155L36 153L34 153Z" fill="#5F5F6C"/>
<path d="M34 138L34 136L36 136L36 138L34 138Z" fill="#5F5F6C"/>
<path d="M51 153L51 155L53 155L53 153L51 153Z" fill="#5F5F6C"/>
<path d="M51 138L51 136L53 136L53 138L51 138Z" fill="#5F5F6C"/>
<path d="M68 257L68 255L70 255L70 257L68 257Z" fill="#5F5F6C"/>
<path d="M68 240L68 238L70 238L70 240L68 240Z" fill="#5F5F6C"/>
<path d="M85 255L85 257L87 257L87 255L85 255Z" fill="#5F5F6C"/>
<path d="M85 240L85 238L87 238L87 240L85 240Z" fill="#5F5F6C"/>
<path d="M68 221L68 223L70 223L70 221L68 221Z" fill="#5F5F6C"/>
<path d="M68 206L68 204L70 204L70 206L68 206Z" fill="#5F5F6C"/>
<path d="M85 221L85 223L87 223L87 221L85 221Z" fill="#5F5F6C"/>
<path d="M85 206L85 204L87 204L87 206L85 206Z" fill="#5F5F6C"/>
<path d="M102 255L102 257L104 257L104 255L102 255Z" fill="#5F5F6C"/>
<path d="M102 240L102 238L104 238L104 240L102 240Z" fill="#5F5F6C"/>
<path d="M119 255L119 257L121 257L121 255L119 255Z" fill="#5F5F6C"/>
<path d="M119 240L119 238L121 238L121 240L119 240Z" fill="#5F5F6C"/>
<path d="M102 221L102 223L104 223L104 221L102 221Z" fill="#5F5F6C"/>
<path d="M102 206L102 204L104 204L104 206L102 206Z" fill="#5F5F6C"/>
<path d="M119 221L119 223L121 223L121 221L119 221Z" fill="#5F5F6C"/>
<path d="M119 206L119 204L121 204L121 206L119 206Z" fill="#5F5F6C"/>
<path d="M68 189L68 187L70 187L70 189L68 189Z" fill="#5F5F6C"/>
<path d="M68 172L68 170L70 170L70 172L68 172Z" fill="#5F5F6C"/>
<path d="M85 187L85 189L87 189L87 187L85 187Z" fill="#5F5F6C"/>
<path d="M85 172L85 170L87 170L87 172L85 172Z" fill="#5F5F6C"/>
<path d="M68 153L68 155L70 155L70 153L68 153Z" fill="#5F5F6C"/>
<path d="M68 138L68 136L70 136L70 138L68 138Z" fill="#5F5F6C"/>
<path d="M85 153L85 155L87 155L87 153L85 153Z" fill="#5F5F6C"/>
<path d="M85 138L85 136L87 136L87 138L85 138Z" fill="#5F5F6C"/>
<path d="M102 187L102 189L104 189L104 187L102 187Z" fill="#5F5F6C"/>
<path d="M102 172L102 170L104 170L104 172L102 172Z" fill="#5F5F6C"/>
<path d="M119 187L119 189L121 189L121 187L119 187Z" fill="#5F5F6C"/>
<path d="M119 172L119 170L121 170L121 172L119 172Z" fill="#5F5F6C"/>
<path d="M102 153L102 155L104 155L104 153L102 153Z" fill="#5F5F6C"/>
<path d="M102 138L102 136L104 136L104 138L102 138Z" fill="#5F5F6C"/>
<path d="M119 153L119 155L121 155L121 153L119 153Z" fill="#5F5F6C"/>
<path d="M119 138L119 136L121 136L121 138L119 138Z" fill="#5F5F6C"/>
<path d="M-5.94475e-06 121L-6.03217e-06 119L1.99999 119L1.99999 121L-5.94475e-06 121Z" fill="#5F5F6C"/>
<path d="M-6.68784e-06 104L-6.77527e-06 102L1.99999 102L1.99999 104L-6.68784e-06 104Z" fill="#5F5F6C"/>
<path d="M17 119L17 121L19 121L19 119L17 119Z" fill="#5F5F6C"/>
<path d="M17 104L17 102L19 102L19 104L17 104Z" fill="#5F5F6C"/>
<path d="M-7.51836e-06 85L-7.43094e-06 87L1.99999 87L1.99999 85L-7.51836e-06 85Z" fill="#5F5F6C"/>
<path d="M-8.17403e-06 70L-8.26145e-06 68L1.99999 68L1.99999 70L-8.17403e-06 70Z" fill="#5F5F6C"/>
<path d="M17 85L17 87L19 87L19 85L17 85Z" fill="#5F5F6C"/>
<path d="M17 70L17 68L19 68L19 70L17 70Z" fill="#5F5F6C"/>
<path d="M34 119L34 121L36 121L36 119L34 119Z" fill="#5F5F6C"/>
<path d="M34 104L34 102L36 102L36 104L34 104Z" fill="#5F5F6C"/>
<path d="M51 119L51 121L53 121L53 119L51 119Z" fill="#5F5F6C"/>
<path d="M51 104L51 102L53 102L53 104L51 104Z" fill="#5F5F6C"/>
<path d="M34 85L34 87L36 87L36 85L34 85Z" fill="#5F5F6C"/>
<path d="M34 70L34 68L36 68L36 70L34 70Z" fill="#5F5F6C"/>
<path d="M51 85L51 87L53 87L53 85L51 85Z" fill="#5F5F6C"/>
<path d="M51 70L51 68L53 68L53 70L51 70Z" fill="#5F5F6C"/>
<path d="M-8.91712e-06 53L-9.00455e-06 51L1.99999 51L1.99999 53L-8.91712e-06 53Z" fill="#5F5F6C"/>
<path d="M-9.66022e-06 36L-9.74764e-06 34L1.99999 34L1.99999 36L-9.66022e-06 36Z" fill="#5F5F6C"/>
<path d="M17 51L17 53L19 53L19 51L17 51Z" fill="#5F5F6C"/>
<path d="M17 36L17 34L19 34L19 36L17 36Z" fill="#5F5F6C"/>
<path d="M-1.04907e-05 17L-1.04033e-05 19L1.99999 19L1.99999 17L-1.04907e-05 17Z" fill="#5F5F6C"/>
<path d="M-1.11464e-05 2L-1.12338e-05 0L1.99999 -8.74228e-08L1.99999 2L-1.11464e-05 2Z" fill="#5F5F6C"/>
<path d="M17 17L17 19L19 19L19 17L17 17Z" fill="#5F5F6C"/>
<path d="M17 2L17 -7.43094e-07L19 -8.30516e-07L19 2L17 2Z" fill="#5F5F6C"/>
<path d="M34 51L34 53L36 53L36 51L34 51Z" fill="#5F5F6C"/>
<path d="M34 36L34 34L36 34L36 36L34 36Z" fill="#5F5F6C"/>
<path d="M51 51L51 53L53 53L53 51L51 51Z" fill="#5F5F6C"/>
<path d="M51 36L51 34L53 34L53 36L51 36Z" fill="#5F5F6C"/>
<path d="M34 17L34 19L36 19L36 17L34 17Z" fill="#5F5F6C"/>
<path d="M34 2L34 -1.48619e-06L36 -1.57361e-06L36 2L34 2Z" fill="#5F5F6C"/>
<path d="M51 17L51 19L53 19L53 17L51 17Z" fill="#5F5F6C"/>
<path d="M51 2L51 -2.22928e-06L53 -2.3167e-06L53 2L51 2Z" fill="#5F5F6C"/>
<path d="M68 121L68 119L70 119L70 121L68 121Z" fill="#5F5F6C"/>
<path d="M68 104L68 102L70 102L70 104L68 104Z" fill="#5F5F6C"/>
<path d="M85 119L85 121L87 121L87 119L85 119Z" fill="#5F5F6C"/>
<path d="M85 104L85 102L87 102L87 104L85 104Z" fill="#5F5F6C"/>
<path d="M68 85L68 87L70 87L70 85L68 85Z" fill="#5F5F6C"/>
<path d="M68 70L68 68L70 68L70 70L68 70Z" fill="#5F5F6C"/>
<path d="M85 85L85 87L87 87L87 85L85 85Z" fill="#5F5F6C"/>
<path d="M85 70L85 68L87 68L87 70L85 70Z" fill="#5F5F6C"/>
<path d="M102 119L102 121L104 121L104 119L102 119Z" fill="#5F5F6C"/>
<path d="M102 104L102 102L104 102L104 104L102 104Z" fill="#5F5F6C"/>
<path d="M119 119L119 121L121 121L121 119L119 119Z" fill="#5F5F6C"/>
<path d="M119 104L119 102L121 102L121 104L119 104Z" fill="#5F5F6C"/>
<path d="M102 85L102 87L104 87L104 85L102 85Z" fill="#5F5F6C"/>
<path d="M102 70L102 68L104 68L104 70L102 70Z" fill="#5F5F6C"/>
<path d="M119 85L119 87L121 87L121 85L119 85Z" fill="#5F5F6C"/>
<path d="M119 70L119 68L121 68L121 70L119 70Z" fill="#5F5F6C"/>
<path d="M68 53L68 51L70 51L70 53L68 53Z" fill="#5F5F6C"/>
<path d="M68 36L68 34L70 34L70 36L68 36Z" fill="#5F5F6C"/>
<path d="M85 51L85 53L87 53L87 51L85 51Z" fill="#5F5F6C"/>
<path d="M85 36L85 34L87 34L87 36L85 36Z" fill="#5F5F6C"/>
<path d="M68 17L68 19L70 19L70 17L68 17Z" fill="#5F5F6C"/>
<path d="M68 2L68 -2.97237e-06L70 -3.0598e-06L70 2L68 2Z" fill="#5F5F6C"/>
<path d="M85 17L85 19L87 19L87 17L85 17Z" fill="#5F5F6C"/>
<path d="M85 2L85 -3.71547e-06L87 -3.80289e-06L87 2L85 2Z" fill="#5F5F6C"/>
<path d="M102 51L102 53L104 53L104 51L102 51Z" fill="#5F5F6C"/>
<path d="M102 36L102 34L104 34L104 36L102 36Z" fill="#5F5F6C"/>
<path d="M119 51L119 53L121 53L121 51L119 51Z" fill="#5F5F6C"/>
<path d="M119 36L119 34L121 34L121 36L119 36Z" fill="#5F5F6C"/>
<path d="M102 17L102 19L104 19L104 17L102 17Z" fill="#5F5F6C"/>
<path d="M102 2L102 -4.45856e-06L104 -4.54598e-06L104 2L102 2Z" fill="#5F5F6C"/>
<path d="M119 17L119 19L121 19L121 17L119 17Z" fill="#5F5F6C"/>
<path d="M119 1.99999L119 -5.20166e-06L121 -5.28908e-06L121 1.99999L119 1.99999Z" fill="#5F5F6C"/>
<path d="M136 255L136 257L138 257L138 255L136 255Z" fill="#5F5F6C"/>
<path d="M136 238L136 240L138 240L138 238L136 238Z" fill="#5F5F6C"/>
<path d="M153 257L153 255L155 255L155 257L153 257Z" fill="#5F5F6C"/>
<path d="M153 238L153 240L155 240L155 238L153 238Z" fill="#5F5F6C"/>
<path d="M136 223L136 221L138 221L138 223L136 223Z" fill="#5F5F6C"/>
<path d="M136 204L136 206L138 206L138 204L136 204Z" fill="#5F5F6C"/>
<path d="M153 223L153 221L155 221L155 223L153 223Z" fill="#5F5F6C"/>
<path d="M153 204L153 206L155 206L155 204L153 204Z" fill="#5F5F6C"/>
<path d="M170 257L170 255L172 255L172 257L170 257Z" fill="#5F5F6C"/>
<path d="M170 238L170 240L172 240L172 238L170 238Z" fill="#5F5F6C"/>
<path d="M187 257L187 255L189 255L189 257L187 257Z" fill="#5F5F6C"/>
<path d="M187 238L187 240L189 240L189 238L187 238Z" fill="#5F5F6C"/>
<path d="M170 223L170 221L172 221L172 223L170 223Z" fill="#5F5F6C"/>
<path d="M170 204L170 206L172 206L172 204L170 204Z" fill="#5F5F6C"/>
<path d="M187 223L187 221L189 221L189 223L187 223Z" fill="#5F5F6C"/>
<path d="M187 204L187 206L189 206L189 204L187 204Z" fill="#5F5F6C"/>
<path d="M136 187L136 189L138 189L138 187L136 187Z" fill="#5F5F6C"/>
<path d="M136 170L136 172L138 172L138 170L136 170Z" fill="#5F5F6C"/>
<path d="M153 189L153 187L155 187L155 189L153 189Z" fill="#5F5F6C"/>
<path d="M153 170L153 172L155 172L155 170L153 170Z" fill="#5F5F6C"/>
<path d="M136 155L136 153L138 153L138 155L136 155Z" fill="#5F5F6C"/>
<path d="M136 136L136 138L138 138L138 136L136 136Z" fill="#5F5F6C"/>
<path d="M153 155L153 153L155 153L155 155L153 155Z" fill="#5F5F6C"/>
<path d="M153 136L153 138L155 138L155 136L153 136Z" fill="#5F5F6C"/>
<path d="M170 189L170 187L172 187L172 189L170 189Z" fill="#5F5F6C"/>
<path d="M170 170L170 172L172 172L172 170L170 170Z" fill="#5F5F6C"/>
<path d="M187 189L187 187L189 187L189 189L187 189Z" fill="#5F5F6C"/>
<path d="M187 170L187 172L189 172L189 170L187 170Z" fill="#5F5F6C"/>
<path d="M170 155L170 153L172 153L172 155L170 155Z" fill="#5F5F6C"/>
<path d="M170 136L170 138L172 138L172 136L170 136Z" fill="#5F5F6C"/>
<path d="M187 155L187 153L189 153L189 155L187 155Z" fill="#5F5F6C"/>
<path d="M187 136L187 138L189 138L189 136L187 136Z" fill="#5F5F6C"/>
<path d="M204 255L204 257L206 257L206 255L204 255Z" fill="#5F5F6C"/>
<path d="M204 238L204 240L206 240L206 238L204 238Z" fill="#5F5F6C"/>
<path d="M221 257L221 255L223 255L223 257L221 257Z" fill="#5F5F6C"/>
<path d="M221 238L221 240L223 240L223 238L221 238Z" fill="#5F5F6C"/>
<path d="M204 223L204 221L206 221L206 223L204 223Z" fill="#5F5F6C"/>
<path d="M204 204L204 206L206 206L206 204L204 204Z" fill="#5F5F6C"/>
<path d="M221 223L221 221L223 221L223 223L221 223Z" fill="#5F5F6C"/>
<path d="M221 204L221 206L223 206L223 204L221 204Z" fill="#5F5F6C"/>
<path d="M238 257L238 255L240 255L240 257L238 257Z" fill="#5F5F6C"/>
<path d="M238 238L238 240L240 240L240 238L238 238Z" fill="#5F5F6C"/>
<path d="M255 257L255 255L257 255L257 257L255 257Z" fill="#5F5F6C"/>
<path d="M255 238L255 240L257 240L257 238L255 238Z" fill="#5F5F6C"/>
<path d="M238 223L238 221L240 221L240 223L238 223Z" fill="#5F5F6C"/>
<path d="M238 204L238 206L240 206L240 204L238 204Z" fill="#5F5F6C"/>
<path d="M255 223L255 221L257 221L257 223L255 223Z" fill="#5F5F6C"/>
<path d="M255 204L255 206L257 206L257 204L255 204Z" fill="#5F5F6C"/>
<path d="M204 187L204 189L206 189L206 187L204 187Z" fill="#5F5F6C"/>
<path d="M204 170L204 172L206 172L206 170L204 170Z" fill="#5F5F6C"/>
<path d="M221 189L221 187L223 187L223 189L221 189Z" fill="#5F5F6C"/>
<path d="M221 170L221 172L223 172L223 170L221 170Z" fill="#5F5F6C"/>
<path d="M204 155L204 153L206 153L206 155L204 155Z" fill="#5F5F6C"/>
<path d="M204 136L204 138L206 138L206 136L204 136Z" fill="#5F5F6C"/>
<path d="M221 155L221 153L223 153L223 155L221 155Z" fill="#5F5F6C"/>
<path d="M221 136L221 138L223 138L223 136L221 136Z" fill="#5F5F6C"/>
<path d="M238 189L238 187L240 187L240 189L238 189Z" fill="#5F5F6C"/>
<path d="M238 170L238 172L240 172L240 170L238 170Z" fill="#5F5F6C"/>
<path d="M255 189L255 187L257 187L257 189L255 189Z" fill="#5F5F6C"/>
<path d="M255 170L255 172L257 172L257 170L255 170Z" fill="#5F5F6C"/>
<path d="M238 155L238 153L240 153L240 155L238 155Z" fill="#5F5F6C"/>
<path d="M238 136L238 138L240 138L240 136L238 136Z" fill="#5F5F6C"/>
<path d="M255 155L255 153L257 153L257 155L255 155Z" fill="#5F5F6C"/>
<path d="M255 136L255 138L257 138L257 136L255 136Z" fill="#5F5F6C"/>
<path d="M136 121L136 119L138 119L138 121L136 121Z" fill="#5F5F6C"/>
<path d="M136 104L136 102L138 102L138 104L136 104Z" fill="#5F5F6C"/>
<path d="M153 119L153 121L155 121L155 119L153 119Z" fill="#5F5F6C"/>
<path d="M153 104L153 102L155 102L155 104L153 104Z" fill="#5F5F6C"/>
<path d="M136 85L136 87L138 87L138 85L136 85Z" fill="#5F5F6C"/>
<path d="M136 70L136 68L138 68L138 70L136 70Z" fill="#5F5F6C"/>
<path d="M153 85L153 87L155 87L155 85L153 85Z" fill="#5F5F6C"/>
<path d="M153 70L153 68L155 68L155 70L153 70Z" fill="#5F5F6C"/>
<path d="M170 119L170 121L172 121L172 119L170 119Z" fill="#5F5F6C"/>
<path d="M170 104L170 102L172 102L172 104L170 104Z" fill="#5F5F6C"/>
<path d="M187 119L187 121L189 121L189 119L187 119Z" fill="#5F5F6C"/>
<path d="M187 104L187 102L189 102L189 104L187 104Z" fill="#5F5F6C"/>
<path d="M170 85L170 87L172 87L172 85L170 85Z" fill="#5F5F6C"/>
<path d="M170 70L170 68L172 68L172 70L170 70Z" fill="#5F5F6C"/>
<path d="M187 85L187 87L189 87L189 85L187 85Z" fill="#5F5F6C"/>
<path d="M187 70L187 68L189 68L189 70L187 70Z" fill="#5F5F6C"/>
<path d="M136 53L136 51L138 51L138 53L136 53Z" fill="#5F5F6C"/>
<path d="M136 36L136 34L138 34L138 36L136 36Z" fill="#5F5F6C"/>
<path d="M153 51L153 53L155 53L155 51L153 51Z" fill="#5F5F6C"/>
<path d="M153 36L153 34L155 34L155 36L153 36Z" fill="#5F5F6C"/>
<path d="M136 17L136 19L138 19L138 17L136 17Z" fill="#5F5F6C"/>
<path d="M136 1.99999L136 -5.94475e-06L138 -6.03217e-06L138 1.99999L136 1.99999Z" fill="#5F5F6C"/>
<path d="M153 17L153 19L155 19L155 17L153 17Z" fill="#5F5F6C"/>
<path d="M153 1.99999L153 -6.68784e-06L155 -6.77527e-06L155 1.99999L153 1.99999Z" fill="#5F5F6C"/>
<path d="M170 51L170 53L172 53L172 51L170 51Z" fill="#5F5F6C"/>
<path d="M170 36L170 34L172 34L172 36L170 36Z" fill="#5F5F6C"/>
<path d="M187 51L187 53L189 53L189 51L187 51Z" fill="#5F5F6C"/>
<path d="M187 36L187 34L189 34L189 36L187 36Z" fill="#5F5F6C"/>
<path d="M170 17L170 19L172 19L172 17L170 17Z" fill="#5F5F6C"/>
<path d="M170 1.99999L170 -7.43094e-06L172 -7.51836e-06L172 1.99999L170 1.99999Z" fill="#5F5F6C"/>
<path d="M187 17L187 19L189 19L189 17L187 17Z" fill="#5F5F6C"/>
<path d="M187 1.99999L187 -8.17403e-06L189 -8.26145e-06L189 1.99999L187 1.99999Z" fill="#5F5F6C"/>
<path d="M204 121L204 119L206 119L206 121L204 121Z" fill="#5F5F6C"/>
<path d="M204 104L204 102L206 102L206 104L204 104Z" fill="#5F5F6C"/>
<path d="M221 119L221 121L223 121L223 119L221 119Z" fill="#5F5F6C"/>
<path d="M221 104L221 102L223 102L223 104L221 104Z" fill="#5F5F6C"/>
<path d="M204 85L204 87L206 87L206 85L204 85Z" fill="#5F5F6C"/>
<path d="M204 70L204 68L206 68L206 70L204 70Z" fill="#5F5F6C"/>
<path d="M221 85L221 87L223 87L223 85L221 85Z" fill="#5F5F6C"/>
<path d="M221 70L221 68L223 68L223 70L221 70Z" fill="#5F5F6C"/>
<path d="M238 119L238 121L240 121L240 119L238 119Z" fill="#5F5F6C"/>
<path d="M238 104L238 102L240 102L240 104L238 104Z" fill="#5F5F6C"/>
<path d="M255 119L255 121L257 121L257 119L255 119Z" fill="#5F5F6C"/>
<path d="M255 104L255 102L257 102L257 104L255 104Z" fill="#5F5F6C"/>
<path d="M238 85L238 87L240 87L240 85L238 85Z" fill="#5F5F6C"/>
<path d="M238 70L238 68L240 68L240 70L238 70Z" fill="#5F5F6C"/>
<path d="M255 85L255 87L257 87L257 85L255 85Z" fill="#5F5F6C"/>
<path d="M255 70L255 68L257 68L257 70L255 70Z" fill="#5F5F6C"/>
<path d="M204 53L204 51L206 51L206 53L204 53Z" fill="#5F5F6C"/>
<path d="M204 36L204 34L206 34L206 36L204 36Z" fill="#5F5F6C"/>
<path d="M221 51L221 53L223 53L223 51L221 51Z" fill="#5F5F6C"/>
<path d="M221 36L221 34L223 34L223 36L221 36Z" fill="#5F5F6C"/>
<path d="M204 17L204 19L206 19L206 17L204 17Z" fill="#5F5F6C"/>
<path d="M204 1.99999L204 -8.91712e-06L206 -9.00455e-06L206 1.99999L204 1.99999Z" fill="#5F5F6C"/>
<path d="M221 17L221 19L223 19L223 17L221 17Z" fill="#5F5F6C"/>
<path d="M221 1.99999L221 -9.66022e-06L223 -9.74764e-06L223 1.99999L221 1.99999Z" fill="#5F5F6C"/>
<path d="M238 51L238 53L240 53L240 51L238 51Z" fill="#5F5F6C"/>
<path d="M238 36L238 34L240 34L240 36L238 36Z" fill="#5F5F6C"/>
<path d="M255 51L255 53L257 53L257 51L255 51Z" fill="#5F5F6C"/>
<path d="M255 36L255 34L257 34L257 36L255 36Z" fill="#5F5F6C"/>
<path d="M238 17L238 19L240 19L240 17L238 17Z" fill="#5F5F6C"/>
<path d="M238 1.99999L238 -1.04033e-05L240 -1.04907e-05L240 1.99999L238 1.99999Z" fill="#5F5F6C"/>
<path d="M255 17L255 19L257 19L257 17L255 17Z" fill="#5F5F6C"/>
<path d="M255 1.99999L255 -1.11464e-05L257 -1.12338e-05L257 1.99999L255 1.99999Z" fill="#5F5F6C"/>
<path d="M272 257L272 255L274 255L274 257L272 257Z" fill="#5F5F6C"/>
<path d="M272 240L272 238L274 238L274 240L272 240Z" fill="#5F5F6C"/>
<path d="M289 255L289 257L291 257L291 255L289 255Z" fill="#5F5F6C"/>
<path d="M289 240L289 238L291 238L291 240L289 240Z" fill="#5F5F6C"/>
<path d="M272 221L272 223L274 223L274 221L272 221Z" fill="#5F5F6C"/>
<path d="M272 206L272 204L274 204L274 206L272 206Z" fill="#5F5F6C"/>
<path d="M289 221L289 223L291 223L291 221L289 221Z" fill="#5F5F6C"/>
<path d="M289 206L289 204L291 204L291 206L289 206Z" fill="#5F5F6C"/>
<path d="M306 255L306 257L308 257L308 255L306 255Z" fill="#5F5F6C"/>
<path d="M306 240L306 238L308 238L308 240L306 240Z" fill="#5F5F6C"/>
<path d="M323 255L323 257L325 257L325 255L323 255Z" fill="#5F5F6C"/>
<path d="M323 240L323 238L325 238L325 240L323 240Z" fill="#5F5F6C"/>
<path d="M306 221L306 223L308 223L308 221L306 221Z" fill="#5F5F6C"/>
<path d="M306 206L306 204L308 204L308 206L306 206Z" fill="#5F5F6C"/>
<path d="M323 221L323 223L325 223L325 221L323 221Z" fill="#5F5F6C"/>
<path d="M323 206L323 204L325 204L325 206L323 206Z" fill="#5F5F6C"/>
<path d="M272 189L272 187L274 187L274 189L272 189Z" fill="#5F5F6C"/>
<path d="M272 172L272 170L274 170L274 172L272 172Z" fill="#5F5F6C"/>
<path d="M289 187L289 189L291 189L291 187L289 187Z" fill="#5F5F6C"/>
<path d="M289 172L289 170L291 170L291 172L289 172Z" fill="#5F5F6C"/>
<path d="M272 153L272 155L274 155L274 153L272 153Z" fill="#5F5F6C"/>
<path d="M272 138L272 136L274 136L274 138L272 138Z" fill="#5F5F6C"/>
<path d="M289 153L289 155L291 155L291 153L289 153Z" fill="#5F5F6C"/>
<path d="M289 138L289 136L291 136L291 138L289 138Z" fill="#5F5F6C"/>
<path d="M306 187L306 189L308 189L308 187L306 187Z" fill="#5F5F6C"/>
<path d="M306 172L306 170L308 170L308 172L306 172Z" fill="#5F5F6C"/>
<path d="M323 187L323 189L325 189L325 187L323 187Z" fill="#5F5F6C"/>
<path d="M323 172L323 170L325 170L325 172L323 172Z" fill="#5F5F6C"/>
<path d="M306 153L306 155L308 155L308 153L306 153Z" fill="#5F5F6C"/>
<path d="M306 138L306 136L308 136L308 138L306 138Z" fill="#5F5F6C"/>
<path d="M323 153L323 155L325 155L325 153L323 153Z" fill="#5F5F6C"/>
<path d="M323 138L323 136L325 136L325 138L323 138Z" fill="#5F5F6C"/>
<path d="M340 257L340 255L342 255L342 257L340 257Z" fill="#5F5F6C"/>
<path d="M340 240L340 238L342 238L342 240L340 240Z" fill="#5F5F6C"/>
<path d="M357 255L357 257L359 257L359 255L357 255Z" fill="#5F5F6C"/>
<path d="M357 240L357 238L359 238L359 240L357 240Z" fill="#5F5F6C"/>
<path d="M340 221L340 223L342 223L342 221L340 221Z" fill="#5F5F6C"/>
<path d="M340 206L340 204L342 204L342 206L340 206Z" fill="#5F5F6C"/>
<path d="M357 221L357 223L359 223L359 221L357 221Z" fill="#5F5F6C"/>
<path d="M357 206L357 204L359 204L359 206L357 206Z" fill="#5F5F6C"/>
<path d="M374 255L374 257L376 257L376 255L374 255Z" fill="#5F5F6C"/>
<path d="M374 240L374 238L376 238L376 240L374 240Z" fill="#5F5F6C"/>
<path d="M391 255L391 257L393 257L393 255L391 255Z" fill="#5F5F6C"/>
<path d="M391 240L391 238L393 238L393 240L391 240Z" fill="#5F5F6C"/>
<path d="M374 221L374 223L376 223L376 221L374 221Z" fill="#5F5F6C"/>
<path d="M374 206L374 204L376 204L376 206L374 206Z" fill="#5F5F6C"/>
<path d="M391 221L391 223L393 223L393 221L391 221Z" fill="#5F5F6C"/>
<path d="M391 206L391 204L393 204L393 206L391 206Z" fill="#5F5F6C"/>
<path d="M340 189L340 187L342 187L342 189L340 189Z" fill="#5F5F6C"/>
<path d="M340 172L340 170L342 170L342 172L340 172Z" fill="#5F5F6C"/>
<path d="M357 187L357 189L359 189L359 187L357 187Z" fill="#5F5F6C"/>
<path d="M357 172L357 170L359 170L359 172L357 172Z" fill="#5F5F6C"/>
<path d="M340 153L340 155L342 155L342 153L340 153Z" fill="#5F5F6C"/>
<path d="M340 138L340 136L342 136L342 138L340 138Z" fill="#5F5F6C"/>
<path d="M357 153L357 155L359 155L359 153L357 153Z" fill="#5F5F6C"/>
<path d="M357 138L357 136L359 136L359 138L357 138Z" fill="#5F5F6C"/>
<path d="M374 187L374 189L376 189L376 187L374 187Z" fill="#5F5F6C"/>
<path d="M374 172L374 170L376 170L376 172L374 172Z" fill="#5F5F6C"/>
<path d="M391 187L391 189L393 189L393 187L391 187Z" fill="#5F5F6C"/>
<path d="M391 172L391 170L393 170L393 172L391 172Z" fill="#5F5F6C"/>
<path d="M374 153L374 155L376 155L376 153L374 153Z" fill="#5F5F6C"/>
<path d="M374 138L374 136L376 136L376 138L374 138Z" fill="#5F5F6C"/>
<path d="M391 153L391 155L393 155L393 153L391 153Z" fill="#5F5F6C"/>
<path d="M391 138L391 136L393 136L393 138L391 138Z" fill="#5F5F6C"/>
<path d="M272 121L272 119L274 119L274 121L272 121Z" fill="#5F5F6C"/>
<path d="M272 104L272 102L274 102L274 104L272 104Z" fill="#5F5F6C"/>
<path d="M289 119L289 121L291 121L291 119L289 119Z" fill="#5F5F6C"/>
<path d="M289 104L289 102L291 102L291 104L289 104Z" fill="#5F5F6C"/>
<path d="M272 85L272 87L274 87L274 85L272 85Z" fill="#5F5F6C"/>
<path d="M272 70L272 68L274 68L274 70L272 70Z" fill="#5F5F6C"/>
<path d="M289 85L289 87L291 87L291 85L289 85Z" fill="#5F5F6C"/>
<path d="M289 70L289 68L291 68L291 70L289 70Z" fill="#5F5F6C"/>
<path d="M306 119L306 121L308 121L308 119L306 119Z" fill="#5F5F6C"/>
<path d="M306 104L306 102L308 102L308 104L306 104Z" fill="#5F5F6C"/>
<path d="M323 119L323 121L325 121L325 119L323 119Z" fill="#5F5F6C"/>
<path d="M323 104L323 102L325 102L325 104L323 104Z" fill="#5F5F6C"/>
<path d="M306 85L306 87L308 87L308 85L306 85Z" fill="#5F5F6C"/>
<path d="M306 70L306 68L308 68L308 70L306 70Z" fill="#5F5F6C"/>
<path d="M323 85L323 87L325 87L325 85L323 85Z" fill="#5F5F6C"/>
<path d="M323 70L323 68L325 68L325 70L323 70Z" fill="#5F5F6C"/>
<path d="M272 53L272 51L274 51L274 53L272 53Z" fill="#5F5F6C"/>
<path d="M272 36L272 34L274 34L274 36L272 36Z" fill="#5F5F6C"/>
<path d="M289 51L289 53L291 53L291 51L289 51Z" fill="#5F5F6C"/>
<path d="M289 36L289 34L291 34L291 36L289 36Z" fill="#5F5F6C"/>
<path d="M272 17L272 19L274 19L274 17L272 17Z" fill="#5F5F6C"/>
<path d="M272 1.99999L272 -1.18895e-05L274 -1.19769e-05L274 1.99999L272 1.99999Z" fill="#5F5F6C"/>
<path d="M289 17L289 19L291 19L291 17L289 17Z" fill="#5F5F6C"/>
<path d="M289 1.99999L289 -1.26326e-05L291 -1.272e-05L291 1.99999L289 1.99999Z" fill="#5F5F6C"/>
<path d="M306 51L306 53L308 53L308 51L306 51Z" fill="#5F5F6C"/>
<path d="M306 36L306 34L308 34L308 36L306 36Z" fill="#5F5F6C"/>
<path d="M323 51L323 53L325 53L325 51L323 51Z" fill="#5F5F6C"/>
<path d="M323 36L323 34L325 34L325 36L323 36Z" fill="#5F5F6C"/>
<path d="M306 17L306 19L308 19L308 17L306 17Z" fill="#5F5F6C"/>
<path d="M306 1.99999L306 -1.33757e-05L308 -1.34631e-05L308 1.99999L306 1.99999Z" fill="#5F5F6C"/>
<path d="M323 17L323 19L325 19L325 17L323 17Z" fill="#5F5F6C"/>
<path d="M323 1.99999L323 -1.41188e-05L325 -1.42062e-05L325 1.99999L323 1.99999Z" fill="#5F5F6C"/>
<path d="M340 121L340 119L342 119L342 121L340 121Z" fill="#5F5F6C"/>
<path d="M340 104L340 102L342 102L342 104L340 104Z" fill="#5F5F6C"/>
<path d="M357 119L357 121L359 121L359 119L357 119Z" fill="#5F5F6C"/>
<path d="M357 104L357 102L359 102L359 104L357 104Z" fill="#5F5F6C"/>
<path d="M340 85L340 87L342 87L342 85L340 85Z" fill="#5F5F6C"/>
<path d="M340 70L340 68L342 68L342 70L340 70Z" fill="#5F5F6C"/>
<path d="M357 85L357 87L359 87L359 85L357 85Z" fill="#5F5F6C"/>
<path d="M357 70L357 68L359 68L359 70L357 70Z" fill="#5F5F6C"/>
<path d="M374 119L374 121L376 121L376 119L374 119Z" fill="#5F5F6C"/>
<path d="M374 104L374 102L376 102L376 104L374 104Z" fill="#5F5F6C"/>
<path d="M391 119L391 121L393 121L393 119L391 119Z" fill="#5F5F6C"/>
<path d="M391 104L391 102L393 102L393 104L391 104Z" fill="#5F5F6C"/>
<path d="M374 85L374 87L376 87L376 85L374 85Z" fill="#5F5F6C"/>
<path d="M374 70L374 68L376 68L376 70L374 70Z" fill="#5F5F6C"/>
<path d="M391 85L391 87L393 87L393 85L391 85Z" fill="#5F5F6C"/>
<path d="M391 70L391 68L393 68L393 70L391 70Z" fill="#5F5F6C"/>
<path d="M340 53L340 51L342 51L342 53L340 53Z" fill="#5F5F6C"/>
<path d="M340 36L340 34L342 34L342 36L340 36Z" fill="#5F5F6C"/>
<path d="M357 51L357 53L359 53L359 51L357 51Z" fill="#5F5F6C"/>
<path d="M357 36L357 34L359 34L359 36L357 36Z" fill="#5F5F6C"/>
<path d="M340 17L340 19L342 19L342 17L340 17Z" fill="#5F5F6C"/>
<path d="M340 1.99999L340 -1.48619e-05L342 -1.49493e-05L342 1.99999L340 1.99999Z" fill="#5F5F6C"/>
<path d="M357 17L357 19L359 19L359 17L357 17Z" fill="#5F5F6C"/>
<path d="M357 1.99998L357 -1.5605e-05L359 -1.56924e-05L359 1.99998L357 1.99998Z" fill="#5F5F6C"/>
<path d="M374 51L374 53L376 53L376 51L374 51Z" fill="#5F5F6C"/>
<path d="M374 36L374 34L376 34L376 36L374 36Z" fill="#5F5F6C"/>
<path d="M391 51L391 53L393 53L393 51L391 51Z" fill="#5F5F6C"/>
<path d="M391 36L391 34L393 34L393 36L391 36Z" fill="#5F5F6C"/>
<path d="M374 17L374 19L376 19L376 17L374 17Z" fill="#5F5F6C"/>
<path d="M374 1.99998L374 -1.63481e-05L376 -1.64355e-05L376 1.99998L374 1.99998Z" fill="#5F5F6C"/>
<path d="M391 17L391 19L393 19L393 17L391 17Z" fill="#5F5F6C"/>
<path d="M391 1.99998L391 -1.70912e-05L393 -1.71786e-05L393 1.99998L391 1.99998Z" fill="#5F5F6C"/>
<path d="M408 255L408 257L410 257L410 255L408 255Z" fill="#5F5F6C"/>
<path d="M408 238L408 240L410 240L410 238L408 238Z" fill="#5F5F6C"/>
<path d="M425 257L425 255L427 255L427 257L425 257Z" fill="#5F5F6C"/>
<path d="M425 238L425 240L427 240L427 238L425 238Z" fill="#5F5F6C"/>
<path d="M408 223L408 221L410 221L410 223L408 223Z" fill="#5F5F6C"/>
<path d="M408 204L408 206L410 206L410 204L408 204Z" fill="#5F5F6C"/>
<path d="M425 223L425 221L427 221L427 223L425 223Z" fill="#5F5F6C"/>
<path d="M425 204L425 206L427 206L427 204L425 204Z" fill="#5F5F6C"/>
<path d="M442 257L442 255L444 255L444 257L442 257Z" fill="#5F5F6C"/>
<path d="M442 238L442 240L444 240L444 238L442 238Z" fill="#5F5F6C"/>
<path d="M459 257L459 255L461 255L461 257L459 257Z" fill="#5F5F6C"/>
<path d="M459 238L459 240L461 240L461 238L459 238Z" fill="#5F5F6C"/>
<path d="M442 223L442 221L444 221L444 223L442 223Z" fill="#5F5F6C"/>
<path d="M442 204L442 206L444 206L444 204L442 204Z" fill="#5F5F6C"/>
<path d="M459 223L459 221L461 221L461 223L459 223Z" fill="#5F5F6C"/>
<path d="M459 204L459 206L461 206L461 204L459 204Z" fill="#5F5F6C"/>
<path d="M408 187L408 189L410 189L410 187L408 187Z" fill="#5F5F6C"/>
<path d="M408 170L408 172L410 172L410 170L408 170Z" fill="#5F5F6C"/>
<path d="M425 189L425 187L427 187L427 189L425 189Z" fill="#5F5F6C"/>
<path d="M425 170L425 172L427 172L427 170L425 170Z" fill="#5F5F6C"/>
<path d="M408 155L408 153L410 153L410 155L408 155Z" fill="#5F5F6C"/>
<path d="M408 136L408 138L410 138L410 136L408 136Z" fill="#5F5F6C"/>
<path d="M425 155L425 153L427 153L427 155L425 155Z" fill="#5F5F6C"/>
<path d="M425 136L425 138L427 138L427 136L425 136Z" fill="#5F5F6C"/>
<path d="M442 189L442 187L444 187L444 189L442 189Z" fill="#5F5F6C"/>
<path d="M442 170L442 172L444 172L444 170L442 170Z" fill="#5F5F6C"/>
<path d="M459 189L459 187L461 187L461 189L459 189Z" fill="#5F5F6C"/>
<path d="M459 170L459 172L461 172L461 170L459 170Z" fill="#5F5F6C"/>
<path d="M442 155L442 153L444 153L444 155L442 155Z" fill="#5F5F6C"/>
<path d="M442 136L442 138L444 138L444 136L442 136Z" fill="#5F5F6C"/>
<path d="M459 155L459 153L461 153L461 155L459 155Z" fill="#5F5F6C"/>
<path d="M459 136L459 138L461 138L461 136L459 136Z" fill="#5F5F6C"/>
<path d="M476 255L476 257L478 257L478 255L476 255Z" fill="#5F5F6C"/>
<path d="M476 238L476 240L478 240L478 238L476 238Z" fill="#5F5F6C"/>
<path d="M493 257L493 255L495 255L495 257L493 257Z" fill="#5F5F6C"/>
<path d="M493 238L493 240L495 240L495 238L493 238Z" fill="#5F5F6C"/>
<path d="M476 223L476 221L478 221L478 223L476 223Z" fill="#5F5F6C"/>
<path d="M476 204L476 206L478 206L478 204L476 204Z" fill="#5F5F6C"/>
<path d="M493 223L493 221L495 221L495 223L493 223Z" fill="#5F5F6C"/>
<path d="M493 204L493 206L495 206L495 204L493 204Z" fill="#5F5F6C"/>
<path d="M510 257L510 255L512 255L512 257L510 257Z" fill="#5F5F6C"/>
<path d="M510 238L510 240L512 240L512 238L510 238Z" fill="#5F5F6C"/>
<path d="M510 223L510 221L512 221L512 223L510 223Z" fill="#5F5F6C"/>
<path d="M510 204L510 206L512 206L512 204L510 204Z" fill="#5F5F6C"/>
<path d="M476 187L476 189L478 189L478 187L476 187Z" fill="#5F5F6C"/>
<path d="M476 170L476 172L478 172L478 170L476 170Z" fill="#5F5F6C"/>
<path d="M493 189L493 187L495 187L495 189L493 189Z" fill="#5F5F6C"/>
<path d="M493 170L493 172L495 172L495 170L493 170Z" fill="#5F5F6C"/>
<path d="M476 155L476 153L478 153L478 155L476 155Z" fill="#5F5F6C"/>
<path d="M476 136L476 138L478 138L478 136L476 136Z" fill="#5F5F6C"/>
<path d="M493 155L493 153L495 153L495 155L493 155Z" fill="#5F5F6C"/>
<path d="M493 136L493 138L495 138L495 136L493 136Z" fill="#5F5F6C"/>
<path d="M510 189L510 187L512 187L512 189L510 189Z" fill="#5F5F6C"/>
<path d="M510 170L510 172L512 172L512 170L510 170Z" fill="#5F5F6C"/>
<path d="M510 155L510 153L512 153L512 155L510 155Z" fill="#5F5F6C"/>
<path d="M510 136L510 138L512 138L512 136L510 136Z" fill="#5F5F6C"/>
<path d="M408 121L408 119L410 119L410 121L408 121Z" fill="#5F5F6C"/>
<path d="M408 104L408 102L410 102L410 104L408 104Z" fill="#5F5F6C"/>
<path d="M425 119L425 121L427 121L427 119L425 119Z" fill="#5F5F6C"/>
<path d="M425 104L425 102L427 102L427 104L425 104Z" fill="#5F5F6C"/>
<path d="M408 85L408 87L410 87L410 85L408 85Z" fill="#5F5F6C"/>
<path d="M408 70L408 68L410 68L410 70L408 70Z" fill="#5F5F6C"/>
<path d="M425 85L425 87L427 87L427 85L425 85Z" fill="#5F5F6C"/>
<path d="M425 70L425 68L427 68L427 70L425 70Z" fill="#5F5F6C"/>
<path d="M442 119L442 121L444 121L444 119L442 119Z" fill="#5F5F6C"/>
<path d="M442 104L442 102L444 102L444 104L442 104Z" fill="#5F5F6C"/>
<path d="M459 119L459 121L461 121L461 119L459 119Z" fill="#5F5F6C"/>
<path d="M459 104L459 102L461 102L461 104L459 104Z" fill="#5F5F6C"/>
<path d="M442 85L442 87L444 87L444 85L442 85Z" fill="#5F5F6C"/>
<path d="M442 70L442 68L444 68L444 70L442 70Z" fill="#5F5F6C"/>
<path d="M459 85L459 87L461 87L461 85L459 85Z" fill="#5F5F6C"/>
<path d="M459 70L459 68L461 68L461 70L459 70Z" fill="#5F5F6C"/>
<path d="M408 53L408 51L410 51L410 53L408 53Z" fill="#5F5F6C"/>
<path d="M408 36L408 34L410 34L410 36L408 36Z" fill="#5F5F6C"/>
<path d="M425 51L425 53L427 53L427 51L425 51Z" fill="#5F5F6C"/>
<path d="M425 36L425 34L427 34L427 36L425 36Z" fill="#5F5F6C"/>
<path d="M408 17L408 19L410 19L410 17L408 17Z" fill="#5F5F6C"/>
<path d="M408 1.99998L408 -1.78342e-05L410 -1.79217e-05L410 1.99998L408 1.99998Z" fill="#5F5F6C"/>
<path d="M425 17L425 19L427 19L427 17L425 17Z" fill="#5F5F6C"/>
<path d="M425 1.99998L425 -1.85773e-05L427 -1.86648e-05L427 1.99998L425 1.99998Z" fill="#5F5F6C"/>
<path d="M442 51L442 53L444 53L444 51L442 51Z" fill="#5F5F6C"/>
<path d="M442 36L442 34L444 34L444 36L442 36Z" fill="#5F5F6C"/>
<path d="M459 51L459 53L461 53L461 51L459 51Z" fill="#5F5F6C"/>
<path d="M459 36L459 34L461 34L461 36L459 36Z" fill="#5F5F6C"/>
<path d="M442 17L442 19L444 19L444 17L442 17Z" fill="#5F5F6C"/>
<path d="M442 1.99998L442 -1.93204e-05L444 -1.94079e-05L444 1.99998L442 1.99998Z" fill="#5F5F6C"/>
<path d="M459 17L459 19L461 19L461 17L459 17Z" fill="#5F5F6C"/>
<path d="M459 1.99998L459 -2.00635e-05L461 -2.01509e-05L461 1.99998L459 1.99998Z" fill="#5F5F6C"/>
<path d="M476 121L476 119L478 119L478 121L476 121Z" fill="#5F5F6C"/>
<path d="M476 104L476 102L478 102L478 104L476 104Z" fill="#5F5F6C"/>
<path d="M493 119L493 121L495 121L495 119L493 119Z" fill="#5F5F6C"/>
<path d="M493 104L493 102L495 102L495 104L493 104Z" fill="#5F5F6C"/>
<path d="M476 85L476 87L478 87L478 85L476 85Z" fill="#5F5F6C"/>
<path d="M476 70L476 68L478 68L478 70L476 70Z" fill="#5F5F6C"/>
<path d="M493 85L493 87L495 87L495 85L493 85Z" fill="#5F5F6C"/>
<path d="M493 70L493 68L495 68L495 70L493 70Z" fill="#5F5F6C"/>
<path d="M510 119L510 121L512 121L512 119L510 119Z" fill="#5F5F6C"/>
<path d="M510 104L510 102L512 102L512 104L510 104Z" fill="#5F5F6C"/>
<path d="M510 85L510 87L512 87L512 85L510 85Z" fill="#5F5F6C"/>
<path d="M510 70L510 68L512 68L512 70L510 70Z" fill="#5F5F6C"/>
<path d="M476 53L476 51L478 51L478 53L476 53Z" fill="#5F5F6C"/>
<path d="M476 36L476 34L478 34L478 36L476 36Z" fill="#5F5F6C"/>
<path d="M493 51L493 53L495 53L495 51L493 51Z" fill="#5F5F6C"/>
<path d="M493 36L493 34L495 34L495 36L493 36Z" fill="#5F5F6C"/>
<path d="M476 17L476 19L478 19L478 17L476 17Z" fill="#5F5F6C"/>
<path d="M476 1.99998L476 -2.08066e-05L478 -2.0894e-05L478 1.99998L476 1.99998Z" fill="#5F5F6C"/>
<path d="M493 17L493 19L495 19L495 17L493 17Z" fill="#5F5F6C"/>
<path d="M493 1.99998L493 -2.15497e-05L495 -2.16371e-05L495 1.99998L493 1.99998Z" fill="#5F5F6C"/>
<path d="M510 51L510 53L512 53L512 51L510 51Z" fill="#5F5F6C"/>
<path d="M510 36L510 34L512 34L512 36L510 36Z" fill="#5F5F6C"/>
<path d="M510 17L510 19L512 19L512 17L510 17Z" fill="#5F5F6C"/>
<path d="M510 1.99998L510 -2.22928e-05L512 -2.23802e-05L512 1.99998L510 1.99998Z" fill="#5F5F6C"/>
</g>
</svg>
