<svg width="198" height="52" viewBox="0 0 198 52" fill="none" xmlns="http://www.w3.org/2000/svg">
<path d="M13.7148 10.9558V51.3916" stroke="#DCDCDC" stroke-width="2.25617"/>
<path d="M7.26367 39.8508H48.0675" stroke="#DCDCDC" stroke-width="2.25617"/>
<path d="M0.0878906 45.0303H19.0781" stroke="#DCDCDC" stroke-width="2.25617"/>
<path d="M157.501 9.97217H197.937" stroke="#DCDCDC" stroke-width="2.25617"/>
<path d="M184.832 0.582764V40.9312" stroke="#DCDCDC" stroke-width="2.25617"/>
<path d="M189.822 5.31445V18.3237" stroke="#DCDCDC" stroke-width="2.25617"/>
<path d="M23.2188 33.6721V16.1582H34.7138V17.6876H24.9455V24.1277H33.1844V25.5584H24.9455V33.6721H23.2188Z" fill="#DCDCDC"/>
<path d="M37.8721 33.6721V16.1582H39.5988V33.6721H37.8721Z" fill="#DCDCDC"/>
<path d="M44.1094 33.6721V16.1582H45.8361V32.1428H55.9498V33.6721H44.1094Z" fill="#DCDCDC"/>
<path d="M74.1273 33.6721V19.2929L67.7403 30.416H66.727L60.34 19.2929V33.6721H58.6133V16.1582H60.3893L67.2241 28.1466L74.1045 16.1582H75.8578V33.6721H74.1273Z" fill="#DCDCDC"/>
<path d="M87.4261 33.7969C86.2079 33.7969 85.096 33.5464 84.0827 33.0455C83.0695 32.5445 82.2042 31.8766 81.4794 31.0455C80.7545 30.2144 80.1967 29.2657 79.802 28.1955C79.4073 27.1253 79.21 26.0323 79.21 24.9128C79.21 23.7439 79.4187 22.6282 79.8399 21.558C80.2612 20.4878 80.838 19.5428 81.5781 18.7231C82.3181 17.8996 83.1909 17.2469 84.1928 16.7611C85.1947 16.2754 86.2801 16.0325 87.4489 16.0325C88.6671 16.0325 89.7791 16.2905 90.7923 16.8105C91.8018 17.3304 92.667 18.0059 93.3805 18.8446C94.0978 19.6833 94.6518 20.632 95.0465 21.6946C95.4412 22.7534 95.6385 23.8388 95.6385 24.9393C95.6385 26.1082 95.4298 27.2239 95.0086 28.2941C94.5873 29.3643 94.0143 30.3055 93.2818 31.1176C92.5494 31.9335 91.6841 32.5825 90.6785 33.0644C89.6804 33.554 88.5912 33.7969 87.4261 33.7969ZM80.9367 24.9166C80.9367 25.8691 81.0923 26.7875 81.4073 27.668C81.7185 28.5484 82.1625 29.3302 82.7393 30.0133C83.3162 30.6964 83.9993 31.2391 84.7886 31.6413C85.578 32.0436 86.4584 32.2447 87.4299 32.2447C88.4166 32.2447 89.3123 32.0322 90.1206 31.6034C90.9251 31.1745 91.6082 30.6167 92.1661 29.926C92.724 29.2353 93.1566 28.4535 93.4602 27.5845C93.7638 26.7116 93.9156 25.8236 93.9156 24.9204C93.9156 23.9678 93.7562 23.0494 93.4336 22.169C93.1111 21.2886 92.6632 20.5106 92.0902 19.8389C91.5134 19.1633 90.8341 18.6245 90.0447 18.2222C89.2553 17.8199 88.3825 17.6188 87.4299 17.6188C86.4432 17.6188 85.5476 17.8275 84.7431 18.2488C83.9385 18.67 83.2554 19.2241 82.6938 19.9148C82.1359 20.6055 81.7033 21.3872 81.3997 22.2563C81.0885 23.1253 80.9367 24.0134 80.9367 24.9166Z" fill="#DCDCDC"/>
<path d="M97.8594 24.793C97.8594 23.7418 98.0453 22.6906 98.4134 21.6469C98.7816 20.6033 99.3205 19.6697 100.03 18.8462C100.736 18.0227 101.609 17.3548 102.645 16.8349C103.681 16.315 104.857 16.0569 106.17 16.0569C107.734 16.0569 109.07 16.4098 110.178 17.1157C111.286 17.8216 112.106 18.7437 112.633 19.8785L111.275 20.7171C110.994 20.1403 110.652 19.6583 110.25 19.2599C109.848 18.8652 109.415 18.5464 108.956 18.2959C108.497 18.0493 108.019 17.8709 107.525 17.7646C107.032 17.6584 106.546 17.6053 106.072 17.6053C105.021 17.6053 104.091 17.8178 103.286 18.2466C102.482 18.6754 101.802 19.2333 101.252 19.924C100.702 20.6147 100.284 21.3927 100.007 22.2541C99.7265 23.1194 99.5899 23.9922 99.5899 24.8803C99.5899 25.8518 99.7569 26.7816 100.095 27.6696C100.432 28.5576 100.892 29.3432 101.476 30.0263C102.06 30.7094 102.751 31.2521 103.548 31.6543C104.345 32.0566 105.214 32.2578 106.151 32.2578C106.645 32.2578 107.15 32.197 107.669 32.0718C108.189 31.9504 108.69 31.753 109.172 31.4798C109.658 31.2103 110.106 30.8726 110.516 30.4703C110.926 30.068 111.271 29.5785 111.552 29.0016L112.982 29.7417C112.702 30.3982 112.307 30.9788 111.798 31.4798C111.29 31.9807 110.721 32.4058 110.098 32.7511C109.472 33.0965 108.812 33.3583 108.113 33.5405C107.415 33.7226 106.728 33.8099 106.053 33.8099C104.854 33.8099 103.749 33.5481 102.747 33.0206C101.745 32.4968 100.88 31.8099 100.155 30.9599C99.4305 30.1136 98.8688 29.1496 98.4666 28.0719C98.0605 27.0093 97.8594 25.9125 97.8594 24.793Z" fill="#DCDCDC"/>
<path d="M116.062 33.6721V16.1582H123.463C124.218 16.1582 124.912 16.3176 125.546 16.6402C126.18 16.9627 126.726 17.3802 127.186 17.8963C127.645 18.4162 128.002 19.0044 128.26 19.661C128.514 20.3175 128.643 20.9854 128.643 21.661C128.643 22.3023 128.548 22.9133 128.358 23.4977C128.169 24.0822 127.907 24.6059 127.569 25.0765C127.231 25.5432 126.825 25.9417 126.347 26.2605C125.869 26.5831 125.337 26.7994 124.745 26.9132L129.038 33.6721H127.091L122.973 27.2093H117.793V33.6721H116.062ZM117.789 25.6799H123.512C124.021 25.6799 124.487 25.5698 124.905 25.3459C125.322 25.122 125.683 24.8222 125.979 24.4465C126.275 24.067 126.506 23.6419 126.67 23.1638C126.833 22.6856 126.916 22.1847 126.916 21.661C126.916 21.1335 126.821 20.6287 126.632 20.143C126.442 19.6572 126.188 19.2359 125.865 18.8716C125.546 18.5111 125.167 18.2227 124.73 18.0064C124.294 17.7938 123.838 17.6838 123.36 17.6838H117.785V25.6799H117.789Z" fill="#DCDCDC"/>
<path d="M137.45 16.1582H138.907L146.183 33.6721H144.357L142.088 28.196H134.221L131.974 33.6721H130.122L137.45 16.1582ZM141.693 26.8411L138.167 18.1847L134.589 26.8411H141.693Z" fill="#DCDCDC"/>
<path d="M147.023 24.793C147.023 23.7418 147.209 22.6906 147.578 21.6469C147.946 20.6033 148.485 19.6697 149.194 18.8462C149.9 18.0227 150.773 17.3548 151.809 16.8349C152.845 16.315 154.021 16.0569 155.335 16.0569C156.898 16.0569 158.234 16.4098 159.342 17.1157C160.454 17.8216 161.27 18.7437 161.797 19.8785L160.439 20.7171C160.158 20.1403 159.82 19.6583 159.414 19.2599C159.012 18.8652 158.579 18.5464 158.12 18.2959C157.661 18.0493 157.183 17.8709 156.689 17.7646C156.196 17.6584 155.71 17.6053 155.232 17.6053C154.181 17.6053 153.251 17.8178 152.446 18.2466C151.638 18.6754 150.963 19.2333 150.412 19.924C149.862 20.6147 149.445 21.3927 149.168 22.2541C148.887 23.1194 148.75 23.9922 148.75 24.8803C148.75 25.8518 148.917 26.7816 149.255 27.6696C149.593 28.5576 150.052 29.3432 150.636 30.0263C151.221 30.7094 151.911 31.2521 152.708 31.6543C153.505 32.0566 154.374 32.2578 155.312 32.2578C155.805 32.2578 156.31 32.197 156.83 32.0718C157.35 31.9504 157.851 31.753 158.333 31.4798C158.818 31.2103 159.266 30.8726 159.676 30.4703C160.086 30.068 160.431 29.5785 160.712 29.0016L162.143 29.7417C161.862 30.3982 161.467 30.9788 160.959 31.4798C160.45 31.9807 159.881 32.4058 159.259 32.7511C158.632 33.0965 157.972 33.3583 157.274 33.5405C156.575 33.7226 155.889 33.8099 155.213 33.8099C154.014 33.8099 152.909 33.5481 151.908 33.0206C150.906 32.4968 150.04 31.8099 149.319 30.9599C148.595 30.1136 148.033 29.1496 147.631 28.0719C147.225 27.0093 147.023 25.9125 147.023 24.793Z" fill="#DCDCDC"/>
<path d="M164.954 16.1582L170.677 25.5812L176.449 16.1582H178.324L171.538 27.1599V33.6721H169.812V27.1106L163.053 16.1582H164.954Z" fill="#DCDCDC"/>
</svg>
