<svg width="513" height="290" viewBox="0 0 513 290" fill="none" xmlns="http://www.w3.org/2000/svg">
<g opacity="0.3">
<path d="M0.0107422 289.191L0.0107421 286.941L2.01074 286.941L2.01074 289.191L0.0107422 289.191Z" fill="#9690A2" fill-opacity="0.7"/>
<path d="M0.0107414 270.066L0.0107414 267.816L2.01074 267.816L2.01074 270.066L0.0107414 270.066Z" fill="#9690A2" fill-opacity="0.7"/>
<path d="M17.0107 286.941L17.0107 289.191L19.0107 289.191L19.0107 286.941L17.0107 286.941Z" fill="#9690A2" fill-opacity="0.7"/>
<path d="M17.0107 270.066L17.0107 267.816L19.0107 267.816L19.0107 270.066L17.0107 270.066Z" fill="#9690A2" fill-opacity="0.7"/>
<path d="M0.0107406 248.691L0.0107407 250.941L2.01074 250.941L2.01074 248.691L0.0107406 248.691Z" fill="#9690A2" fill-opacity="0.7"/>
<path d="M0.01074 231.816L0.0107399 229.566L2.01074 229.566L2.01074 231.816L0.01074 231.816Z" fill="#9690A2" fill-opacity="0.7"/>
<path d="M17.0107 248.691L17.0107 250.941L19.0107 250.941L19.0107 248.691L17.0107 248.691Z" fill="#9690A2" fill-opacity="0.7"/>
<path d="M17.0107 231.816L17.0107 229.566L19.0107 229.566L19.0107 231.816L17.0107 231.816Z" fill="#9690A2" fill-opacity="0.7"/>
<path d="M34.0107 286.941L34.0107 289.191L36.0107 289.191L36.0107 286.941L34.0107 286.941Z" fill="#9690A2" fill-opacity="0.7"/>
<path d="M34.0107 270.066L34.0107 267.816L36.0107 267.816L36.0107 270.066L34.0107 270.066Z" fill="#9690A2" fill-opacity="0.7"/>
<path d="M51.0107 286.941L51.0107 289.191L53.0107 289.191L53.0107 286.941L51.0107 286.941Z" fill="#9690A2" fill-opacity="0.7"/>
<path d="M51.0107 270.066L51.0107 267.816L53.0107 267.816L53.0107 270.066L51.0107 270.066Z" fill="#9690A2" fill-opacity="0.7"/>
<path d="M34.0107 248.691L34.0107 250.941L36.0107 250.941L36.0107 248.691L34.0107 248.691Z" fill="#9690A2" fill-opacity="0.7"/>
<path d="M34.0107 231.816L34.0107 229.566L36.0107 229.566L36.0107 231.816L34.0107 231.816Z" fill="#9690A2" fill-opacity="0.7"/>
<path d="M51.0107 248.691L51.0107 250.941L53.0107 250.941L53.0107 248.691L51.0107 248.691Z" fill="#9690A2" fill-opacity="0.7"/>
<path d="M51.0107 231.816L51.0107 229.566L53.0107 229.566L53.0107 231.816L51.0107 231.816Z" fill="#9690A2" fill-opacity="0.7"/>
<path d="M0.0107392 212.691L0.0107391 210.441L2.01074 210.441L2.01074 212.691L0.0107392 212.691Z" fill="#9690A2" fill-opacity="0.7"/>
<path d="M0.0107385 193.566L0.0107384 191.316L2.01074 191.316L2.01074 193.566L0.0107385 193.566Z" fill="#9690A2" fill-opacity="0.7"/>
<path d="M17.0107 210.441L17.0107 212.691L19.0107 212.691L19.0107 210.441L17.0107 210.441Z" fill="#9690A2" fill-opacity="0.7"/>
<path d="M17.0107 193.566L17.0107 191.316L19.0107 191.316L19.0107 193.566L17.0107 193.566Z" fill="#9690A2" fill-opacity="0.7"/>
<path d="M0.0107376 172.191L0.0107377 174.441L2.01074 174.441L2.01074 172.191L0.0107376 172.191Z" fill="#9690A2" fill-opacity="0.7"/>
<path d="M0.010737 155.316L0.0107369 153.066L2.01074 153.066L2.01074 155.316L0.010737 155.316Z" fill="#9690A2" fill-opacity="0.7"/>
<path d="M17.0107 172.191L17.0107 174.441L19.0107 174.441L19.0107 172.191L17.0107 172.191Z" fill="#9690A2" fill-opacity="0.7"/>
<path d="M17.0107 155.316L17.0107 153.066L19.0107 153.066L19.0107 155.316L17.0107 155.316Z" fill="#9690A2" fill-opacity="0.7"/>
<path d="M34.0107 210.441L34.0107 212.691L36.0107 212.691L36.0107 210.441L34.0107 210.441Z" fill="#9690A2" fill-opacity="0.7"/>
<path d="M34.0107 193.566L34.0107 191.316L36.0107 191.316L36.0107 193.566L34.0107 193.566Z" fill="#9690A2" fill-opacity="0.7"/>
<path d="M51.0107 210.441L51.0107 212.691L53.0107 212.691L53.0107 210.441L51.0107 210.441Z" fill="#9690A2" fill-opacity="0.7"/>
<path d="M51.0107 193.566L51.0107 191.316L53.0107 191.316L53.0107 193.566L51.0107 193.566Z" fill="#9690A2" fill-opacity="0.7"/>
<path d="M34.0107 172.191L34.0107 174.441L36.0107 174.441L36.0107 172.191L34.0107 172.191Z" fill="#9690A2" fill-opacity="0.7"/>
<path d="M34.0107 155.316L34.0107 153.066L36.0107 153.066L36.0107 155.316L34.0107 155.316Z" fill="#9690A2" fill-opacity="0.7"/>
<path d="M51.0107 172.191L51.0107 174.441L53.0107 174.441L53.0107 172.191L51.0107 172.191Z" fill="#9690A2" fill-opacity="0.7"/>
<path d="M51.0107 155.316L51.0107 153.066L53.0107 153.066L53.0107 155.316L51.0107 155.316Z" fill="#9690A2" fill-opacity="0.7"/>
<path d="M68.0107 289.191L68.0107 286.941L70.0107 286.941L70.0107 289.191L68.0107 289.191Z" fill="#9690A2" fill-opacity="0.7"/>
<path d="M68.0107 270.066L68.0107 267.816L70.0107 267.816L70.0107 270.066L68.0107 270.066Z" fill="#9690A2" fill-opacity="0.7"/>
<path d="M85.0107 286.941L85.0107 289.191L87.0107 289.191L87.0107 286.941L85.0107 286.941Z" fill="#9690A2" fill-opacity="0.7"/>
<path d="M85.0107 270.066L85.0107 267.816L87.0107 267.816L87.0107 270.066L85.0107 270.066Z" fill="#9690A2" fill-opacity="0.7"/>
<path d="M68.0107 248.691L68.0107 250.941L70.0107 250.941L70.0107 248.691L68.0107 248.691Z" fill="#9690A2" fill-opacity="0.7"/>
<path d="M68.0107 231.816L68.0107 229.566L70.0107 229.566L70.0107 231.816L68.0107 231.816Z" fill="#9690A2" fill-opacity="0.7"/>
<path d="M85.0107 248.691L85.0107 250.941L87.0107 250.941L87.0107 248.691L85.0107 248.691Z" fill="#9690A2" fill-opacity="0.7"/>
<path d="M85.0107 231.816L85.0107 229.566L87.0107 229.566L87.0107 231.816L85.0107 231.816Z" fill="#9690A2" fill-opacity="0.7"/>
<path d="M102.011 286.941L102.011 289.191L104.011 289.191L104.011 286.941L102.011 286.941Z" fill="#9690A2" fill-opacity="0.7"/>
<path d="M102.011 270.066L102.011 267.816L104.011 267.816L104.011 270.066L102.011 270.066Z" fill="#9690A2" fill-opacity="0.7"/>
<path d="M119.011 286.941L119.011 289.191L121.011 289.191L121.011 286.941L119.011 286.941Z" fill="#9690A2" fill-opacity="0.7"/>
<path d="M119.011 270.066L119.011 267.816L121.011 267.816L121.011 270.066L119.011 270.066Z" fill="#9690A2" fill-opacity="0.7"/>
<path d="M102.011 248.691L102.011 250.941L104.011 250.941L104.011 248.691L102.011 248.691Z" fill="#9690A2" fill-opacity="0.7"/>
<path d="M102.011 231.816L102.011 229.566L104.011 229.566L104.011 231.816L102.011 231.816Z" fill="#9690A2" fill-opacity="0.7"/>
<path d="M119.011 248.691L119.011 250.941L121.011 250.941L121.011 248.691L119.011 248.691Z" fill="#9690A2" fill-opacity="0.7"/>
<path d="M119.011 231.816L119.011 229.566L121.011 229.566L121.011 231.816L119.011 231.816Z" fill="#9690A2" fill-opacity="0.7"/>
<path d="M68.0107 212.691L68.0107 210.441L70.0107 210.441L70.0107 212.691L68.0107 212.691Z" fill="#9690A2" fill-opacity="0.7"/>
<path d="M68.0107 193.566L68.0107 191.316L70.0107 191.316L70.0107 193.566L68.0107 193.566Z" fill="#9690A2" fill-opacity="0.7"/>
<path d="M85.0107 210.441L85.0107 212.691L87.0107 212.691L87.0107 210.441L85.0107 210.441Z" fill="#9690A2" fill-opacity="0.7"/>
<path d="M85.0107 193.566L85.0107 191.316L87.0107 191.316L87.0107 193.566L85.0107 193.566Z" fill="#9690A2" fill-opacity="0.7"/>
<path d="M68.0107 172.191L68.0107 174.441L70.0107 174.441L70.0107 172.191L68.0107 172.191Z" fill="#9690A2" fill-opacity="0.7"/>
<path d="M68.0107 155.316L68.0107 153.066L70.0107 153.066L70.0107 155.316L68.0107 155.316Z" fill="#9690A2" fill-opacity="0.7"/>
<path d="M85.0107 172.191L85.0107 174.441L87.0107 174.441L87.0107 172.191L85.0107 172.191Z" fill="#9690A2" fill-opacity="0.7"/>
<path d="M85.0107 155.316L85.0107 153.066L87.0107 153.066L87.0107 155.316L85.0107 155.316Z" fill="#9690A2" fill-opacity="0.7"/>
<path d="M102.011 210.441L102.011 212.691L104.011 212.691L104.011 210.441L102.011 210.441Z" fill="#9690A2" fill-opacity="0.7"/>
<path d="M102.011 193.566L102.011 191.316L104.011 191.316L104.011 193.566L102.011 193.566Z" fill="#9690A2" fill-opacity="0.7"/>
<path d="M119.011 210.441L119.011 212.691L121.011 212.691L121.011 210.441L119.011 210.441Z" fill="#9690A2" fill-opacity="0.7"/>
<path d="M119.011 193.566L119.011 191.316L121.011 191.316L121.011 193.566L119.011 193.566Z" fill="#9690A2" fill-opacity="0.7"/>
<path d="M102.011 172.191L102.011 174.441L104.011 174.441L104.011 172.191L102.011 172.191Z" fill="#9690A2" fill-opacity="0.7"/>
<path d="M102.011 155.316L102.011 153.066L104.011 153.066L104.011 155.316L102.011 155.316Z" fill="#9690A2" fill-opacity="0.7"/>
<path d="M119.011 172.191L119.011 174.441L121.011 174.441L121.011 172.191L119.011 172.191Z" fill="#9690A2" fill-opacity="0.7"/>
<path d="M119.011 155.316L119.011 153.066L121.011 153.066L121.011 155.316L119.011 155.316Z" fill="#9690A2" fill-opacity="0.7"/>
<path d="M0.0107362 136.191L0.0107362 133.941L2.01074 133.941L2.01074 136.191L0.0107362 136.191Z" fill="#9690A2" fill-opacity="0.7"/>
<path d="M0.0107355 117.066L0.0107354 114.816L2.01074 114.816L2.01074 117.066L0.0107355 117.066Z" fill="#9690A2" fill-opacity="0.7"/>
<path d="M17.0107 133.941L17.0107 136.191L19.0107 136.191L19.0107 133.941L17.0107 133.941Z" fill="#9690A2" fill-opacity="0.7"/>
<path d="M17.0107 117.066L17.0107 114.816L19.0107 114.816L19.0107 117.066L17.0107 117.066Z" fill="#9690A2" fill-opacity="0.7"/>
<path d="M0.0107347 95.6914L0.0107348 97.9414L2.01073 97.9414L2.01073 95.6914L0.0107347 95.6914Z" fill="#9690A2" fill-opacity="0.7"/>
<path d="M0.010734 78.8164L0.0107339 76.5664L2.01073 76.5664L2.01073 78.8164L0.010734 78.8164Z" fill="#9690A2" fill-opacity="0.7"/>
<path d="M17.0107 95.6914L17.0107 97.9414L19.0107 97.9414L19.0107 95.6914L17.0107 95.6914Z" fill="#9690A2" fill-opacity="0.7"/>
<path d="M17.0107 78.8164L17.0107 76.5664L19.0107 76.5664L19.0107 78.8164L17.0107 78.8164Z" fill="#9690A2" fill-opacity="0.7"/>
<path d="M34.0107 133.941L34.0107 136.191L36.0107 136.191L36.0107 133.941L34.0107 133.941Z" fill="#9690A2" fill-opacity="0.7"/>
<path d="M34.0107 117.066L34.0107 114.816L36.0107 114.816L36.0107 117.066L34.0107 117.066Z" fill="#9690A2" fill-opacity="0.7"/>
<path d="M51.0107 133.941L51.0107 136.191L53.0107 136.191L53.0107 133.941L51.0107 133.941Z" fill="#9690A2" fill-opacity="0.7"/>
<path d="M51.0107 117.066L51.0107 114.816L53.0107 114.816L53.0107 117.066L51.0107 117.066Z" fill="#9690A2" fill-opacity="0.7"/>
<path d="M34.0107 95.6914L34.0107 97.9414L36.0107 97.9414L36.0107 95.6914L34.0107 95.6914Z" fill="#9690A2" fill-opacity="0.7"/>
<path d="M34.0107 78.8164L34.0107 76.5664L36.0107 76.5664L36.0107 78.8164L34.0107 78.8164Z" fill="#9690A2" fill-opacity="0.7"/>
<path d="M51.0107 95.6914L51.0107 97.9414L53.0107 97.9414L53.0107 95.6914L51.0107 95.6914Z" fill="#9690A2" fill-opacity="0.7"/>
<path d="M51.0107 78.8164L51.0107 76.5664L53.0107 76.5664L53.0107 78.8164L51.0107 78.8164Z" fill="#9690A2" fill-opacity="0.7"/>
<path d="M0.0107333 59.6914L0.0107332 57.4414L2.01073 57.4414L2.01073 59.6914L0.0107333 59.6914Z" fill="#9690A2" fill-opacity="0.7"/>
<path d="M0.0107325 40.5664L0.0107324 38.3164L2.01073 38.3164L2.01073 40.5664L0.0107325 40.5664Z" fill="#9690A2" fill-opacity="0.7"/>
<path d="M17.0107 57.4414L17.0107 59.6914L19.0107 59.6914L19.0107 57.4414L17.0107 57.4414Z" fill="#9690A2" fill-opacity="0.7"/>
<path d="M17.0107 40.5664L17.0107 38.3164L19.0107 38.3164L19.0107 40.5664L17.0107 40.5664Z" fill="#9690A2" fill-opacity="0.7"/>
<path d="M0.0107317 19.1914L0.0107318 21.4414L2.01073 21.4414L2.01073 19.1914L0.0107317 19.1914Z" fill="#9690A2" fill-opacity="0.7"/>
<path d="M0.010731 2.31641L0.010731 0.0664062L2.01073 0.0664062L2.01073 2.31641L0.010731 2.31641Z" fill="#9690A2" fill-opacity="0.7"/>
<path d="M17.0107 19.1914L17.0107 21.4414L19.0107 21.4414L19.0107 19.1914L17.0107 19.1914Z" fill="#9690A2" fill-opacity="0.7"/>
<path d="M17.0107 2.31641L17.0107 0.0664054L19.0107 0.0664053L19.0107 2.31641L17.0107 2.31641Z" fill="#9690A2" fill-opacity="0.7"/>
<path d="M34.0107 57.4414L34.0107 59.6914L36.0107 59.6914L36.0107 57.4414L34.0107 57.4414Z" fill="#9690A2" fill-opacity="0.7"/>
<path d="M34.0107 40.5664L34.0107 38.3164L36.0107 38.3164L36.0107 40.5664L34.0107 40.5664Z" fill="#9690A2" fill-opacity="0.7"/>
<path d="M51.0107 57.4414L51.0107 59.6914L53.0107 59.6914L53.0107 57.4414L51.0107 57.4414Z" fill="#9690A2" fill-opacity="0.7"/>
<path d="M51.0107 40.5664L51.0107 38.3164L53.0107 38.3164L53.0107 40.5664L51.0107 40.5664Z" fill="#9690A2" fill-opacity="0.7"/>
<path d="M34.0107 19.1914L34.0107 21.4414L36.0107 21.4414L36.0107 19.1914L34.0107 19.1914Z" fill="#9690A2" fill-opacity="0.7"/>
<path d="M34.0107 2.3164L34.0107 0.0664046L36.0107 0.0664045L36.0107 2.3164L34.0107 2.3164Z" fill="#9690A2" fill-opacity="0.7"/>
<path d="M51.0107 19.1914L51.0107 21.4414L53.0107 21.4414L53.0107 19.1914L51.0107 19.1914Z" fill="#9690A2" fill-opacity="0.7"/>
<path d="M51.0107 2.3164L51.0107 0.0664037L53.0107 0.0664036L53.0107 2.3164L51.0107 2.3164Z" fill="#9690A2" fill-opacity="0.7"/>
<path d="M68.0107 136.191L68.0107 133.941L70.0107 133.941L70.0107 136.191L68.0107 136.191Z" fill="#9690A2" fill-opacity="0.7"/>
<path d="M68.0107 117.066L68.0107 114.816L70.0107 114.816L70.0107 117.066L68.0107 117.066Z" fill="#9690A2" fill-opacity="0.7"/>
<path d="M85.0107 133.941L85.0107 136.191L87.0107 136.191L87.0107 133.941L85.0107 133.941Z" fill="#9690A2" fill-opacity="0.7"/>
<path d="M85.0107 117.066L85.0107 114.816L87.0107 114.816L87.0107 117.066L85.0107 117.066Z" fill="#9690A2" fill-opacity="0.7"/>
<path d="M68.0107 95.6914L68.0107 97.9414L70.0107 97.9414L70.0107 95.6914L68.0107 95.6914Z" fill="#9690A2" fill-opacity="0.7"/>
<path d="M68.0107 78.8164L68.0107 76.5664L70.0107 76.5664L70.0107 78.8164L68.0107 78.8164Z" fill="#9690A2" fill-opacity="0.7"/>
<path d="M85.0107 95.6914L85.0107 97.9414L87.0107 97.9414L87.0107 95.6914L85.0107 95.6914Z" fill="#9690A2" fill-opacity="0.7"/>
<path d="M85.0107 78.8164L85.0107 76.5664L87.0107 76.5664L87.0107 78.8164L85.0107 78.8164Z" fill="#9690A2" fill-opacity="0.7"/>
<path d="M102.011 133.941L102.011 136.191L104.011 136.191L104.011 133.941L102.011 133.941Z" fill="#9690A2" fill-opacity="0.7"/>
<path d="M102.011 117.066L102.011 114.816L104.011 114.816L104.011 117.066L102.011 117.066Z" fill="#9690A2" fill-opacity="0.7"/>
<path d="M119.011 133.941L119.011 136.191L121.011 136.191L121.011 133.941L119.011 133.941Z" fill="#9690A2" fill-opacity="0.7"/>
<path d="M119.011 117.066L119.011 114.816L121.011 114.816L121.011 117.066L119.011 117.066Z" fill="#9690A2" fill-opacity="0.7"/>
<path d="M102.011 95.6914L102.011 97.9414L104.011 97.9414L104.011 95.6914L102.011 95.6914Z" fill="#9690A2" fill-opacity="0.7"/>
<path d="M102.011 78.8164L102.011 76.5664L104.011 76.5664L104.011 78.8164L102.011 78.8164Z" fill="#9690A2" fill-opacity="0.7"/>
<path d="M119.011 95.6914L119.011 97.9414L121.011 97.9414L121.011 95.6914L119.011 95.6914Z" fill="#9690A2" fill-opacity="0.7"/>
<path d="M119.011 78.8164L119.011 76.5664L121.011 76.5664L121.011 78.8164L119.011 78.8164Z" fill="#9690A2" fill-opacity="0.7"/>
<path d="M68.0107 59.6914L68.0107 57.4414L70.0107 57.4414L70.0107 59.6914L68.0107 59.6914Z" fill="#9690A2" fill-opacity="0.7"/>
<path d="M68.0107 40.5664L68.0107 38.3164L70.0107 38.3164L70.0107 40.5664L68.0107 40.5664Z" fill="#9690A2" fill-opacity="0.7"/>
<path d="M85.0107 57.4414L85.0107 59.6914L87.0107 59.6914L87.0107 57.4414L85.0107 57.4414Z" fill="#9690A2" fill-opacity="0.7"/>
<path d="M85.0107 40.5664L85.0107 38.3164L87.0107 38.3164L87.0107 40.5664L85.0107 40.5664Z" fill="#9690A2" fill-opacity="0.7"/>
<path d="M68.0107 19.1914L68.0107 21.4414L70.0107 21.4414L70.0107 19.1914L68.0107 19.1914Z" fill="#9690A2" fill-opacity="0.7"/>
<path d="M68.0107 2.3164L68.0107 0.0664029L70.0107 0.0664028L70.0107 2.3164L68.0107 2.3164Z" fill="#9690A2" fill-opacity="0.7"/>
<path d="M85.0107 19.1914L85.0107 21.4414L87.0107 21.4414L87.0107 19.1914L85.0107 19.1914Z" fill="#9690A2" fill-opacity="0.7"/>
<path d="M85.0107 2.3164L85.0107 0.0664021L87.0107 0.066402L87.0107 2.3164L85.0107 2.3164Z" fill="#9690A2" fill-opacity="0.7"/>
<path d="M102.011 57.4414L102.011 59.6914L104.011 59.6914L104.011 57.4414L102.011 57.4414Z" fill="#9690A2" fill-opacity="0.7"/>
<path d="M102.011 40.5664L102.011 38.3164L104.011 38.3164L104.011 40.5664L102.011 40.5664Z" fill="#9690A2" fill-opacity="0.7"/>
<path d="M119.011 57.4414L119.011 59.6914L121.011 59.6914L121.011 57.4414L119.011 57.4414Z" fill="#9690A2" fill-opacity="0.7"/>
<path d="M119.011 40.5664L119.011 38.3164L121.011 38.3164L121.011 40.5664L119.011 40.5664Z" fill="#9690A2" fill-opacity="0.7"/>
<path d="M102.011 19.1914L102.011 21.4414L104.011 21.4414L104.011 19.1914L102.011 19.1914Z" fill="#9690A2" fill-opacity="0.7"/>
<path d="M102.011 2.3164L102.011 0.0664012L104.011 0.0664011L104.011 2.3164L102.011 2.3164Z" fill="#9690A2" fill-opacity="0.7"/>
<path d="M119.011 19.1914L119.011 21.4414L121.011 21.4414L121.011 19.1914L119.011 19.1914Z" fill="#9690A2" fill-opacity="0.7"/>
<path d="M119.011 2.3164L119.011 0.0664004L121.011 0.0664003L121.011 2.3164L119.011 2.3164Z" fill="#9690A2" fill-opacity="0.7"/>
<path d="M136.011 286.941L136.011 289.191L138.011 289.191L138.011 286.941L136.011 286.941Z" fill="#9690A2" fill-opacity="0.7"/>
<path d="M136.011 267.816L136.011 270.066L138.011 270.066L138.011 267.816L136.011 267.816Z" fill="#9690A2" fill-opacity="0.7"/>
<path d="M153.011 289.191L153.011 286.941L155.011 286.941L155.011 289.191L153.011 289.191Z" fill="#9690A2" fill-opacity="0.7"/>
<path d="M153.011 267.816L153.011 270.066L155.011 270.066L155.011 267.816L153.011 267.816Z" fill="#9690A2" fill-opacity="0.7"/>
<path d="M136.011 250.941L136.011 248.691L138.011 248.691L138.011 250.941L136.011 250.941Z" fill="#9690A2" fill-opacity="0.7"/>
<path d="M136.011 229.566L136.011 231.816L138.011 231.816L138.011 229.566L136.011 229.566Z" fill="#9690A2" fill-opacity="0.7"/>
<path d="M153.011 250.941L153.011 248.691L155.011 248.691L155.011 250.941L153.011 250.941Z" fill="#9690A2" fill-opacity="0.7"/>
<path d="M153.011 229.566L153.011 231.816L155.011 231.816L155.011 229.566L153.011 229.566Z" fill="#9690A2" fill-opacity="0.7"/>
<path d="M170.011 289.191L170.011 286.941L172.011 286.941L172.011 289.191L170.011 289.191Z" fill="#9690A2" fill-opacity="0.7"/>
<path d="M170.011 267.816L170.011 270.066L172.011 270.066L172.011 267.816L170.011 267.816Z" fill="#9690A2" fill-opacity="0.7"/>
<path d="M187.011 289.191L187.011 286.941L189.011 286.941L189.011 289.191L187.011 289.191Z" fill="#9690A2" fill-opacity="0.7"/>
<path d="M187.011 267.816L187.011 270.066L189.011 270.066L189.011 267.816L187.011 267.816Z" fill="#9690A2" fill-opacity="0.7"/>
<path d="M170.011 250.941L170.011 248.691L172.011 248.691L172.011 250.941L170.011 250.941Z" fill="#9690A2" fill-opacity="0.7"/>
<path d="M170.011 229.566L170.011 231.816L172.011 231.816L172.011 229.566L170.011 229.566Z" fill="#9690A2" fill-opacity="0.7"/>
<path d="M187.011 250.941L187.011 248.691L189.011 248.691L189.011 250.941L187.011 250.941Z" fill="#9690A2" fill-opacity="0.7"/>
<path d="M187.011 229.566L187.011 231.816L189.011 231.816L189.011 229.566L187.011 229.566Z" fill="#9690A2" fill-opacity="0.7"/>
<path d="M136.011 210.441L136.011 212.691L138.011 212.691L138.011 210.441L136.011 210.441Z" fill="#9690A2" fill-opacity="0.7"/>
<path d="M136.011 191.316L136.011 193.566L138.011 193.566L138.011 191.316L136.011 191.316Z" fill="#9690A2" fill-opacity="0.7"/>
<path d="M153.011 212.691L153.011 210.441L155.011 210.441L155.011 212.691L153.011 212.691Z" fill="#9690A2" fill-opacity="0.7"/>
<path d="M153.011 191.316L153.011 193.566L155.011 193.566L155.011 191.316L153.011 191.316Z" fill="#9690A2" fill-opacity="0.7"/>
<path d="M136.011 174.441L136.011 172.191L138.011 172.191L138.011 174.441L136.011 174.441Z" fill="#9690A2" fill-opacity="0.7"/>
<path d="M136.011 153.066L136.011 155.316L138.011 155.316L138.011 153.066L136.011 153.066Z" fill="#9690A2" fill-opacity="0.7"/>
<path d="M153.011 174.441L153.011 172.191L155.011 172.191L155.011 174.441L153.011 174.441Z" fill="#9690A2" fill-opacity="0.7"/>
<path d="M153.011 153.066L153.011 155.316L155.011 155.316L155.011 153.066L153.011 153.066Z" fill="#9690A2" fill-opacity="0.7"/>
<path d="M170.011 212.691L170.011 210.441L172.011 210.441L172.011 212.691L170.011 212.691Z" fill="#9690A2" fill-opacity="0.7"/>
<path d="M170.011 191.316L170.011 193.566L172.011 193.566L172.011 191.316L170.011 191.316Z" fill="#9690A2" fill-opacity="0.7"/>
<path d="M187.011 212.691L187.011 210.441L189.011 210.441L189.011 212.691L187.011 212.691Z" fill="#9690A2" fill-opacity="0.7"/>
<path d="M187.011 191.316L187.011 193.566L189.011 193.566L189.011 191.316L187.011 191.316Z" fill="#9690A2" fill-opacity="0.7"/>
<path d="M170.011 174.441L170.011 172.191L172.011 172.191L172.011 174.441L170.011 174.441Z" fill="#9690A2" fill-opacity="0.7"/>
<path d="M170.011 153.066L170.011 155.316L172.011 155.316L172.011 153.066L170.011 153.066Z" fill="#9690A2" fill-opacity="0.7"/>
<path d="M187.011 174.441L187.011 172.191L189.011 172.191L189.011 174.441L187.011 174.441Z" fill="#9690A2" fill-opacity="0.7"/>
<path d="M187.011 153.066L187.011 155.316L189.011 155.316L189.011 153.066L187.011 153.066Z" fill="#9690A2" fill-opacity="0.7"/>
<path d="M204.011 286.941L204.011 289.191L206.011 289.191L206.011 286.941L204.011 286.941Z" fill="#9690A2" fill-opacity="0.7"/>
<path d="M204.011 267.816L204.011 270.066L206.011 270.066L206.011 267.816L204.011 267.816Z" fill="#9690A2" fill-opacity="0.7"/>
<path d="M221.011 289.191L221.011 286.941L223.011 286.941L223.011 289.191L221.011 289.191Z" fill="#9690A2" fill-opacity="0.7"/>
<path d="M221.011 267.816L221.011 270.066L223.011 270.066L223.011 267.816L221.011 267.816Z" fill="#9690A2" fill-opacity="0.7"/>
<path d="M204.011 250.941L204.011 248.691L206.011 248.691L206.011 250.941L204.011 250.941Z" fill="#9690A2" fill-opacity="0.7"/>
<path d="M204.011 229.566L204.011 231.816L206.011 231.816L206.011 229.566L204.011 229.566Z" fill="#9690A2" fill-opacity="0.7"/>
<path d="M221.011 250.941L221.011 248.691L223.011 248.691L223.011 250.941L221.011 250.941Z" fill="#9690A2" fill-opacity="0.7"/>
<path d="M221.011 229.566L221.011 231.816L223.011 231.816L223.011 229.566L221.011 229.566Z" fill="#9690A2" fill-opacity="0.7"/>
<path d="M238.011 289.191L238.011 286.941L240.011 286.941L240.011 289.191L238.011 289.191Z" fill="#9690A2" fill-opacity="0.7"/>
<path d="M238.011 267.816L238.011 270.066L240.011 270.066L240.011 267.816L238.011 267.816Z" fill="#9690A2" fill-opacity="0.7"/>
<path d="M255.011 289.191L255.011 286.941L257.011 286.941L257.011 289.191L255.011 289.191Z" fill="#9690A2" fill-opacity="0.7"/>
<path d="M255.011 267.816L255.011 270.066L257.011 270.066L257.011 267.816L255.011 267.816Z" fill="#9690A2" fill-opacity="0.7"/>
<path d="M238.011 250.941L238.011 248.691L240.011 248.691L240.011 250.941L238.011 250.941Z" fill="#9690A2" fill-opacity="0.7"/>
<path d="M238.011 229.566L238.011 231.816L240.011 231.816L240.011 229.566L238.011 229.566Z" fill="#9690A2" fill-opacity="0.7"/>
<path d="M255.011 250.941L255.011 248.691L257.011 248.691L257.011 250.941L255.011 250.941Z" fill="#9690A2" fill-opacity="0.7"/>
<path d="M255.011 229.566L255.011 231.816L257.011 231.816L257.011 229.566L255.011 229.566Z" fill="#9690A2" fill-opacity="0.7"/>
<path d="M204.011 210.441L204.011 212.691L206.011 212.691L206.011 210.441L204.011 210.441Z" fill="#9690A2" fill-opacity="0.7"/>
<path d="M204.011 191.316L204.011 193.566L206.011 193.566L206.011 191.316L204.011 191.316Z" fill="#9690A2" fill-opacity="0.7"/>
<path d="M221.011 212.691L221.011 210.441L223.011 210.441L223.011 212.691L221.011 212.691Z" fill="#9690A2" fill-opacity="0.7"/>
<path d="M221.011 191.316L221.011 193.566L223.011 193.566L223.011 191.316L221.011 191.316Z" fill="#9690A2" fill-opacity="0.7"/>
<path d="M204.011 174.441L204.011 172.191L206.011 172.191L206.011 174.441L204.011 174.441Z" fill="#9690A2" fill-opacity="0.7"/>
<path d="M204.011 153.066L204.011 155.316L206.011 155.316L206.011 153.066L204.011 153.066Z" fill="#9690A2" fill-opacity="0.7"/>
<path d="M221.011 174.441L221.011 172.191L223.011 172.191L223.011 174.441L221.011 174.441Z" fill="#9690A2" fill-opacity="0.7"/>
<path d="M221.011 153.066L221.011 155.316L223.011 155.316L223.011 153.066L221.011 153.066Z" fill="#9690A2" fill-opacity="0.7"/>
<path d="M238.011 212.691L238.011 210.441L240.011 210.441L240.011 212.691L238.011 212.691Z" fill="#9690A2" fill-opacity="0.7"/>
<path d="M238.011 191.316L238.011 193.566L240.011 193.566L240.011 191.316L238.011 191.316Z" fill="#9690A2" fill-opacity="0.7"/>
<path d="M255.011 212.691L255.011 210.441L257.011 210.441L257.011 212.691L255.011 212.691Z" fill="#9690A2" fill-opacity="0.7"/>
<path d="M255.011 191.316L255.011 193.566L257.011 193.566L257.011 191.316L255.011 191.316Z" fill="#9690A2" fill-opacity="0.7"/>
<path d="M238.011 174.441L238.011 172.191L240.011 172.191L240.011 174.441L238.011 174.441Z" fill="#9690A2" fill-opacity="0.7"/>
<path d="M238.011 153.066L238.011 155.316L240.011 155.316L240.011 153.066L238.011 153.066Z" fill="#9690A2" fill-opacity="0.7"/>
<path d="M255.011 174.441L255.011 172.191L257.011 172.191L257.011 174.441L255.011 174.441Z" fill="#9690A2" fill-opacity="0.7"/>
<path d="M255.011 153.066L255.011 155.316L257.011 155.316L257.011 153.066L255.011 153.066Z" fill="#9690A2" fill-opacity="0.7"/>
<path d="M136.011 136.191L136.011 133.941L138.011 133.941L138.011 136.191L136.011 136.191Z" fill="#9690A2" fill-opacity="0.7"/>
<path d="M136.011 117.066L136.011 114.816L138.011 114.816L138.011 117.066L136.011 117.066Z" fill="#9690A2" fill-opacity="0.7"/>
<path d="M153.011 133.941L153.011 136.191L155.011 136.191L155.011 133.941L153.011 133.941Z" fill="#9690A2" fill-opacity="0.7"/>
<path d="M153.011 117.066L153.011 114.816L155.011 114.816L155.011 117.066L153.011 117.066Z" fill="#9690A2" fill-opacity="0.7"/>
<path d="M136.011 95.6914L136.011 97.9414L138.011 97.9414L138.011 95.6914L136.011 95.6914Z" fill="#9690A2" fill-opacity="0.7"/>
<path d="M136.011 78.8164L136.011 76.5664L138.011 76.5664L138.011 78.8164L136.011 78.8164Z" fill="#9690A2" fill-opacity="0.7"/>
<path d="M153.011 95.6914L153.011 97.9414L155.011 97.9414L155.011 95.6914L153.011 95.6914Z" fill="#9690A2" fill-opacity="0.7"/>
<path d="M153.011 78.8164L153.011 76.5664L155.011 76.5664L155.011 78.8164L153.011 78.8164Z" fill="#9690A2" fill-opacity="0.7"/>
<path d="M170.011 133.941L170.011 136.191L172.011 136.191L172.011 133.941L170.011 133.941Z" fill="#9690A2" fill-opacity="0.7"/>
<path d="M170.011 117.066L170.011 114.816L172.011 114.816L172.011 117.066L170.011 117.066Z" fill="#9690A2" fill-opacity="0.7"/>
<path d="M187.011 133.941L187.011 136.191L189.011 136.191L189.011 133.941L187.011 133.941Z" fill="#9690A2" fill-opacity="0.7"/>
<path d="M187.011 117.066L187.011 114.816L189.011 114.816L189.011 117.066L187.011 117.066Z" fill="#9690A2" fill-opacity="0.7"/>
<path d="M170.011 95.6914L170.011 97.9414L172.011 97.9414L172.011 95.6914L170.011 95.6914Z" fill="#9690A2" fill-opacity="0.7"/>
<path d="M170.011 78.8164L170.011 76.5664L172.011 76.5664L172.011 78.8164L170.011 78.8164Z" fill="#9690A2" fill-opacity="0.7"/>
<path d="M187.011 95.6914L187.011 97.9414L189.011 97.9414L189.011 95.6914L187.011 95.6914Z" fill="#9690A2" fill-opacity="0.7"/>
<path d="M187.011 78.8164L187.011 76.5664L189.011 76.5664L189.011 78.8164L187.011 78.8164Z" fill="#9690A2" fill-opacity="0.7"/>
<path d="M136.011 59.6914L136.011 57.4414L138.011 57.4414L138.011 59.6914L136.011 59.6914Z" fill="#9690A2" fill-opacity="0.7"/>
<path d="M136.011 40.5664L136.011 38.3164L138.011 38.3164L138.011 40.5664L136.011 40.5664Z" fill="#9690A2" fill-opacity="0.7"/>
<path d="M153.011 57.4414L153.011 59.6914L155.011 59.6914L155.011 57.4414L153.011 57.4414Z" fill="#9690A2" fill-opacity="0.7"/>
<path d="M153.011 40.5664L153.011 38.3164L155.011 38.3164L155.011 40.5664L153.011 40.5664Z" fill="#9690A2" fill-opacity="0.7"/>
<path d="M136.011 19.1914L136.011 21.4414L138.011 21.4414L138.011 19.1914L136.011 19.1914Z" fill="#9690A2" fill-opacity="0.7"/>
<path d="M136.011 2.3164L136.011 0.0663996L138.011 0.0663995L138.011 2.3164L136.011 2.3164Z" fill="#9690A2" fill-opacity="0.7"/>
<path d="M153.011 19.1914L153.011 21.4414L155.011 21.4414L155.011 19.1914L153.011 19.1914Z" fill="#9690A2" fill-opacity="0.7"/>
<path d="M153.011 2.3164L153.011 0.0663987L155.011 0.0663986L155.011 2.3164L153.011 2.3164Z" fill="#9690A2" fill-opacity="0.7"/>
<path d="M170.011 57.4414L170.011 59.6914L172.011 59.6914L172.011 57.4414L170.011 57.4414Z" fill="#9690A2" fill-opacity="0.7"/>
<path d="M170.011 40.5664L170.011 38.3164L172.011 38.3164L172.011 40.5664L170.011 40.5664Z" fill="#9690A2" fill-opacity="0.7"/>
<path d="M187.011 57.4414L187.011 59.6914L189.011 59.6914L189.011 57.4414L187.011 57.4414Z" fill="#9690A2" fill-opacity="0.7"/>
<path d="M187.011 40.5664L187.011 38.3164L189.011 38.3164L189.011 40.5664L187.011 40.5664Z" fill="#9690A2" fill-opacity="0.7"/>
<path d="M170.011 19.1914L170.011 21.4414L172.011 21.4414L172.011 19.1914L170.011 19.1914Z" fill="#9690A2" fill-opacity="0.7"/>
<path d="M170.011 2.3164L170.011 0.0663979L172.011 0.0663978L172.011 2.3164L170.011 2.3164Z" fill="#9690A2" fill-opacity="0.7"/>
<path d="M187.011 19.1914L187.011 21.4414L189.011 21.4414L189.011 19.1914L187.011 19.1914Z" fill="#9690A2" fill-opacity="0.7"/>
<path d="M187.011 2.3164L187.011 0.0663971L189.011 0.066397L189.011 2.3164L187.011 2.3164Z" fill="#9690A2" fill-opacity="0.7"/>
<path d="M204.011 136.191L204.011 133.941L206.011 133.941L206.011 136.191L204.011 136.191Z" fill="#9690A2" fill-opacity="0.7"/>
<path d="M204.011 117.066L204.011 114.816L206.011 114.816L206.011 117.066L204.011 117.066Z" fill="#9690A2" fill-opacity="0.7"/>
<path d="M221.011 133.941L221.011 136.191L223.011 136.191L223.011 133.941L221.011 133.941Z" fill="#9690A2" fill-opacity="0.7"/>
<path d="M221.011 117.066L221.011 114.816L223.011 114.816L223.011 117.066L221.011 117.066Z" fill="#9690A2" fill-opacity="0.7"/>
<path d="M204.011 95.6914L204.011 97.9414L206.011 97.9414L206.011 95.6914L204.011 95.6914Z" fill="#9690A2" fill-opacity="0.7"/>
<path d="M204.011 78.8164L204.011 76.5664L206.011 76.5664L206.011 78.8164L204.011 78.8164Z" fill="#9690A2" fill-opacity="0.7"/>
<path d="M221.011 95.6914L221.011 97.9414L223.011 97.9414L223.011 95.6914L221.011 95.6914Z" fill="#9690A2" fill-opacity="0.7"/>
<path d="M221.011 78.8164L221.011 76.5664L223.011 76.5664L223.011 78.8164L221.011 78.8164Z" fill="#9690A2" fill-opacity="0.7"/>
<path d="M238.011 133.941L238.011 136.191L240.011 136.191L240.011 133.941L238.011 133.941Z" fill="#9690A2" fill-opacity="0.7"/>
<path d="M238.011 117.066L238.011 114.816L240.011 114.816L240.011 117.066L238.011 117.066Z" fill="#9690A2" fill-opacity="0.7"/>
<path d="M255.011 133.941L255.011 136.191L257.011 136.191L257.011 133.941L255.011 133.941Z" fill="#9690A2" fill-opacity="0.7"/>
<path d="M255.011 117.066L255.011 114.816L257.011 114.816L257.011 117.066L255.011 117.066Z" fill="#9690A2" fill-opacity="0.7"/>
<path d="M238.011 95.6914L238.011 97.9414L240.011 97.9414L240.011 95.6914L238.011 95.6914Z" fill="#9690A2" fill-opacity="0.7"/>
<path d="M238.011 78.8164L238.011 76.5664L240.011 76.5664L240.011 78.8164L238.011 78.8164Z" fill="#9690A2" fill-opacity="0.7"/>
<path d="M255.011 95.6914L255.011 97.9414L257.011 97.9414L257.011 95.6914L255.011 95.6914Z" fill="#9690A2" fill-opacity="0.7"/>
<path d="M255.011 78.8164L255.011 76.5664L257.011 76.5664L257.011 78.8164L255.011 78.8164Z" fill="#9690A2" fill-opacity="0.7"/>
<path d="M204.011 59.6914L204.011 57.4414L206.011 57.4414L206.011 59.6914L204.011 59.6914Z" fill="#9690A2" fill-opacity="0.7"/>
<path d="M204.011 40.5664L204.011 38.3164L206.011 38.3164L206.011 40.5664L204.011 40.5664Z" fill="#9690A2" fill-opacity="0.7"/>
<path d="M221.011 57.4414L221.011 59.6914L223.011 59.6914L223.011 57.4414L221.011 57.4414Z" fill="#9690A2" fill-opacity="0.7"/>
<path d="M221.011 40.5664L221.011 38.3164L223.011 38.3164L223.011 40.5664L221.011 40.5664Z" fill="#9690A2" fill-opacity="0.7"/>
<path d="M204.011 19.1914L204.011 21.4414L206.011 21.4414L206.011 19.1914L204.011 19.1914Z" fill="#9690A2" fill-opacity="0.7"/>
<path d="M204.011 2.3164L204.011 0.0663962L206.011 0.0663961L206.011 2.3164L204.011 2.3164Z" fill="#9690A2" fill-opacity="0.7"/>
<path d="M221.011 19.1914L221.011 21.4414L223.011 21.4414L223.011 19.1914L221.011 19.1914Z" fill="#9690A2" fill-opacity="0.7"/>
<path d="M221.011 2.3164L221.011 0.0663954L223.011 0.0663953L223.011 2.3164L221.011 2.3164Z" fill="#9690A2" fill-opacity="0.7"/>
<path d="M238.011 57.4414L238.011 59.6914L240.011 59.6914L240.011 57.4414L238.011 57.4414Z" fill="#9690A2" fill-opacity="0.7"/>
<path d="M238.011 40.5664L238.011 38.3164L240.011 38.3164L240.011 40.5664L238.011 40.5664Z" fill="#9690A2" fill-opacity="0.7"/>
<path d="M255.011 57.4414L255.011 59.6914L257.011 59.6914L257.011 57.4414L255.011 57.4414Z" fill="#9690A2" fill-opacity="0.7"/>
<path d="M255.011 40.5664L255.011 38.3164L257.011 38.3164L257.011 40.5664L255.011 40.5664Z" fill="#9690A2" fill-opacity="0.7"/>
<path d="M238.011 19.1914L238.011 21.4414L240.011 21.4414L240.011 19.1914L238.011 19.1914Z" fill="#9690A2" fill-opacity="0.7"/>
<path d="M238.011 2.31639L238.011 0.0663945L240.011 0.0663944L240.011 2.31639L238.011 2.31639Z" fill="#9690A2" fill-opacity="0.7"/>
<path d="M255.011 19.1914L255.011 21.4414L257.011 21.4414L257.011 19.1914L255.011 19.1914Z" fill="#9690A2" fill-opacity="0.7"/>
<path d="M255.011 2.31639L255.011 0.0663937L257.011 0.0663936L257.011 2.31639L255.011 2.31639Z" fill="#9690A2" fill-opacity="0.7"/>
<path d="M272.011 289.191L272.011 286.941L274.011 286.941L274.011 289.191L272.011 289.191Z" fill="#9690A2" fill-opacity="0.7"/>
<path d="M272.011 270.066L272.011 267.816L274.011 267.816L274.011 270.066L272.011 270.066Z" fill="#9690A2" fill-opacity="0.7"/>
<path d="M289.011 286.941L289.011 289.191L291.011 289.191L291.011 286.941L289.011 286.941Z" fill="#9690A2" fill-opacity="0.7"/>
<path d="M289.011 270.066L289.011 267.816L291.011 267.816L291.011 270.066L289.011 270.066Z" fill="#9690A2" fill-opacity="0.7"/>
<path d="M272.011 248.691L272.011 250.941L274.011 250.941L274.011 248.691L272.011 248.691Z" fill="#9690A2" fill-opacity="0.7"/>
<path d="M272.011 231.816L272.011 229.566L274.011 229.566L274.011 231.816L272.011 231.816Z" fill="#9690A2" fill-opacity="0.7"/>
<path d="M289.011 248.691L289.011 250.941L291.011 250.941L291.011 248.691L289.011 248.691Z" fill="#9690A2" fill-opacity="0.7"/>
<path d="M289.011 231.816L289.011 229.566L291.011 229.566L291.011 231.816L289.011 231.816Z" fill="#9690A2" fill-opacity="0.7"/>
<path d="M306.011 286.941L306.011 289.191L308.011 289.191L308.011 286.941L306.011 286.941Z" fill="#9690A2" fill-opacity="0.7"/>
<path d="M306.011 270.066L306.011 267.816L308.011 267.816L308.011 270.066L306.011 270.066Z" fill="#9690A2" fill-opacity="0.7"/>
<path d="M323.011 286.941L323.011 289.191L325.011 289.191L325.011 286.941L323.011 286.941Z" fill="#9690A2" fill-opacity="0.7"/>
<path d="M323.011 270.066L323.011 267.816L325.011 267.816L325.011 270.066L323.011 270.066Z" fill="#9690A2" fill-opacity="0.7"/>
<path d="M306.011 248.691L306.011 250.941L308.011 250.941L308.011 248.691L306.011 248.691Z" fill="#9690A2" fill-opacity="0.7"/>
<path d="M306.011 231.816L306.011 229.566L308.011 229.566L308.011 231.816L306.011 231.816Z" fill="#9690A2" fill-opacity="0.7"/>
<path d="M323.011 248.691L323.011 250.941L325.011 250.941L325.011 248.691L323.011 248.691Z" fill="#9690A2" fill-opacity="0.7"/>
<path d="M323.011 231.816L323.011 229.566L325.011 229.566L325.011 231.816L323.011 231.816Z" fill="#9690A2" fill-opacity="0.7"/>
<path d="M272.011 212.691L272.011 210.441L274.011 210.441L274.011 212.691L272.011 212.691Z" fill="#9690A2" fill-opacity="0.7"/>
<path d="M272.011 193.566L272.011 191.316L274.011 191.316L274.011 193.566L272.011 193.566Z" fill="#9690A2" fill-opacity="0.7"/>
<path d="M289.011 210.441L289.011 212.691L291.011 212.691L291.011 210.441L289.011 210.441Z" fill="#9690A2" fill-opacity="0.7"/>
<path d="M289.011 193.566L289.011 191.316L291.011 191.316L291.011 193.566L289.011 193.566Z" fill="#9690A2" fill-opacity="0.7"/>
<path d="M272.011 172.191L272.011 174.441L274.011 174.441L274.011 172.191L272.011 172.191Z" fill="#9690A2" fill-opacity="0.7"/>
<path d="M272.011 155.316L272.011 153.066L274.011 153.066L274.011 155.316L272.011 155.316Z" fill="#9690A2" fill-opacity="0.7"/>
<path d="M289.011 172.191L289.011 174.441L291.011 174.441L291.011 172.191L289.011 172.191Z" fill="#9690A2" fill-opacity="0.7"/>
<path d="M289.011 155.316L289.011 153.066L291.011 153.066L291.011 155.316L289.011 155.316Z" fill="#9690A2" fill-opacity="0.7"/>
<path d="M306.011 210.441L306.011 212.691L308.011 212.691L308.011 210.441L306.011 210.441Z" fill="#9690A2" fill-opacity="0.7"/>
<path d="M306.011 193.566L306.011 191.316L308.011 191.316L308.011 193.566L306.011 193.566Z" fill="#9690A2" fill-opacity="0.7"/>
<path d="M323.011 210.441L323.011 212.691L325.011 212.691L325.011 210.441L323.011 210.441Z" fill="#9690A2" fill-opacity="0.7"/>
<path d="M323.011 193.566L323.011 191.316L325.011 191.316L325.011 193.566L323.011 193.566Z" fill="#9690A2" fill-opacity="0.7"/>
<path d="M306.011 172.191L306.011 174.441L308.011 174.441L308.011 172.191L306.011 172.191Z" fill="#9690A2" fill-opacity="0.7"/>
<path d="M306.011 155.316L306.011 153.066L308.011 153.066L308.011 155.316L306.011 155.316Z" fill="#9690A2" fill-opacity="0.7"/>
<path d="M323.011 172.191L323.011 174.441L325.011 174.441L325.011 172.191L323.011 172.191Z" fill="#9690A2" fill-opacity="0.7"/>
<path d="M323.011 155.316L323.011 153.066L325.011 153.066L325.011 155.316L323.011 155.316Z" fill="#9690A2" fill-opacity="0.7"/>
<path d="M340.011 289.191L340.011 286.941L342.011 286.941L342.011 289.191L340.011 289.191Z" fill="#9690A2" fill-opacity="0.7"/>
<path d="M340.011 270.066L340.011 267.816L342.011 267.816L342.011 270.066L340.011 270.066Z" fill="#9690A2" fill-opacity="0.7"/>
<path d="M357.011 286.941L357.011 289.191L359.011 289.191L359.011 286.941L357.011 286.941Z" fill="#9690A2" fill-opacity="0.7"/>
<path d="M357.011 270.066L357.011 267.816L359.011 267.816L359.011 270.066L357.011 270.066Z" fill="#9690A2" fill-opacity="0.7"/>
<path d="M340.011 248.691L340.011 250.941L342.011 250.941L342.011 248.691L340.011 248.691Z" fill="#9690A2" fill-opacity="0.7"/>
<path d="M340.011 231.816L340.011 229.566L342.011 229.566L342.011 231.816L340.011 231.816Z" fill="#9690A2" fill-opacity="0.7"/>
<path d="M357.011 248.691L357.011 250.941L359.011 250.941L359.011 248.691L357.011 248.691Z" fill="#9690A2" fill-opacity="0.7"/>
<path d="M357.011 231.816L357.011 229.566L359.011 229.566L359.011 231.816L357.011 231.816Z" fill="#9690A2" fill-opacity="0.7"/>
<path d="M374.011 286.941L374.011 289.191L376.011 289.191L376.011 286.941L374.011 286.941Z" fill="#9690A2" fill-opacity="0.7"/>
<path d="M374.011 270.066L374.011 267.816L376.011 267.816L376.011 270.066L374.011 270.066Z" fill="#9690A2" fill-opacity="0.7"/>
<path d="M391.011 286.941L391.011 289.191L393.011 289.191L393.011 286.941L391.011 286.941Z" fill="#9690A2" fill-opacity="0.7"/>
<path d="M391.011 270.066L391.011 267.816L393.011 267.816L393.011 270.066L391.011 270.066Z" fill="#9690A2" fill-opacity="0.7"/>
<path d="M374.011 248.691L374.011 250.941L376.011 250.941L376.011 248.691L374.011 248.691Z" fill="#9690A2" fill-opacity="0.7"/>
<path d="M374.011 231.816L374.011 229.566L376.011 229.566L376.011 231.816L374.011 231.816Z" fill="#9690A2" fill-opacity="0.7"/>
<path d="M391.011 248.691L391.011 250.941L393.011 250.941L393.011 248.691L391.011 248.691Z" fill="#9690A2" fill-opacity="0.7"/>
<path d="M391.011 231.816L391.011 229.566L393.011 229.566L393.011 231.816L391.011 231.816Z" fill="#9690A2" fill-opacity="0.7"/>
<path d="M340.011 212.691L340.011 210.441L342.011 210.441L342.011 212.691L340.011 212.691Z" fill="#9690A2" fill-opacity="0.7"/>
<path d="M340.011 193.566L340.011 191.316L342.011 191.316L342.011 193.566L340.011 193.566Z" fill="#9690A2" fill-opacity="0.7"/>
<path d="M357.011 210.441L357.011 212.691L359.011 212.691L359.011 210.441L357.011 210.441Z" fill="#9690A2" fill-opacity="0.7"/>
<path d="M357.011 193.566L357.011 191.316L359.011 191.316L359.011 193.566L357.011 193.566Z" fill="#9690A2" fill-opacity="0.7"/>
<path d="M340.011 172.191L340.011 174.441L342.011 174.441L342.011 172.191L340.011 172.191Z" fill="#9690A2" fill-opacity="0.7"/>
<path d="M340.011 155.316L340.011 153.066L342.011 153.066L342.011 155.316L340.011 155.316Z" fill="#9690A2" fill-opacity="0.7"/>
<path d="M357.011 172.191L357.011 174.441L359.011 174.441L359.011 172.191L357.011 172.191Z" fill="#9690A2" fill-opacity="0.7"/>
<path d="M357.011 155.316L357.011 153.066L359.011 153.066L359.011 155.316L357.011 155.316Z" fill="#9690A2" fill-opacity="0.7"/>
<path d="M374.011 210.441L374.011 212.691L376.011 212.691L376.011 210.441L374.011 210.441Z" fill="#9690A2" fill-opacity="0.7"/>
<path d="M374.011 193.566L374.011 191.316L376.011 191.316L376.011 193.566L374.011 193.566Z" fill="#9690A2" fill-opacity="0.7"/>
<path d="M391.011 210.441L391.011 212.691L393.011 212.691L393.011 210.441L391.011 210.441Z" fill="#9690A2" fill-opacity="0.7"/>
<path d="M391.011 193.566L391.011 191.316L393.011 191.316L393.011 193.566L391.011 193.566Z" fill="#9690A2" fill-opacity="0.7"/>
<path d="M374.011 172.191L374.011 174.441L376.011 174.441L376.011 172.191L374.011 172.191Z" fill="#9690A2" fill-opacity="0.7"/>
<path d="M374.011 155.316L374.011 153.066L376.011 153.066L376.011 155.316L374.011 155.316Z" fill="#9690A2" fill-opacity="0.7"/>
<path d="M391.011 172.191L391.011 174.441L393.011 174.441L393.011 172.191L391.011 172.191Z" fill="#9690A2" fill-opacity="0.7"/>
<path d="M391.011 155.316L391.011 153.066L393.011 153.066L393.011 155.316L391.011 155.316Z" fill="#9690A2" fill-opacity="0.7"/>
<path d="M272.011 136.191L272.011 133.941L274.011 133.941L274.011 136.191L272.011 136.191Z" fill="#9690A2" fill-opacity="0.7"/>
<path d="M272.011 117.066L272.011 114.816L274.011 114.816L274.011 117.066L272.011 117.066Z" fill="#9690A2" fill-opacity="0.7"/>
<path d="M289.011 133.941L289.011 136.191L291.011 136.191L291.011 133.941L289.011 133.941Z" fill="#9690A2" fill-opacity="0.7"/>
<path d="M289.011 117.066L289.011 114.816L291.011 114.816L291.011 117.066L289.011 117.066Z" fill="#9690A2" fill-opacity="0.7"/>
<path d="M272.011 95.6914L272.011 97.9414L274.011 97.9414L274.011 95.6914L272.011 95.6914Z" fill="#9690A2" fill-opacity="0.7"/>
<path d="M272.011 78.8164L272.011 76.5664L274.011 76.5664L274.011 78.8164L272.011 78.8164Z" fill="#9690A2" fill-opacity="0.7"/>
<path d="M289.011 95.6914L289.011 97.9414L291.011 97.9414L291.011 95.6914L289.011 95.6914Z" fill="#9690A2" fill-opacity="0.7"/>
<path d="M289.011 78.8164L289.011 76.5664L291.011 76.5664L291.011 78.8164L289.011 78.8164Z" fill="#9690A2" fill-opacity="0.7"/>
<path d="M306.011 133.941L306.011 136.191L308.011 136.191L308.011 133.941L306.011 133.941Z" fill="#9690A2" fill-opacity="0.7"/>
<path d="M306.011 117.066L306.011 114.816L308.011 114.816L308.011 117.066L306.011 117.066Z" fill="#9690A2" fill-opacity="0.7"/>
<path d="M323.011 133.941L323.011 136.191L325.011 136.191L325.011 133.941L323.011 133.941Z" fill="#9690A2" fill-opacity="0.7"/>
<path d="M323.011 117.066L323.011 114.816L325.011 114.816L325.011 117.066L323.011 117.066Z" fill="#9690A2" fill-opacity="0.7"/>
<path d="M306.011 95.6914L306.011 97.9414L308.011 97.9414L308.011 95.6914L306.011 95.6914Z" fill="#9690A2" fill-opacity="0.7"/>
<path d="M306.011 78.8164L306.011 76.5664L308.011 76.5664L308.011 78.8164L306.011 78.8164Z" fill="#9690A2" fill-opacity="0.7"/>
<path d="M323.011 95.6914L323.011 97.9414L325.011 97.9414L325.011 95.6914L323.011 95.6914Z" fill="#9690A2" fill-opacity="0.7"/>
<path d="M323.011 78.8164L323.011 76.5664L325.011 76.5664L325.011 78.8164L323.011 78.8164Z" fill="#9690A2" fill-opacity="0.7"/>
<path d="M272.011 59.6914L272.011 57.4414L274.011 57.4414L274.011 59.6914L272.011 59.6914Z" fill="#9690A2" fill-opacity="0.7"/>
<path d="M272.011 40.5664L272.011 38.3164L274.011 38.3164L274.011 40.5664L272.011 40.5664Z" fill="#9690A2" fill-opacity="0.7"/>
<path d="M289.011 57.4414L289.011 59.6914L291.011 59.6914L291.011 57.4414L289.011 57.4414Z" fill="#9690A2" fill-opacity="0.7"/>
<path d="M289.011 40.5664L289.011 38.3164L291.011 38.3164L291.011 40.5664L289.011 40.5664Z" fill="#9690A2" fill-opacity="0.7"/>
<path d="M272.011 19.1914L272.011 21.4414L274.011 21.4414L274.011 19.1914L272.011 19.1914Z" fill="#9690A2" fill-opacity="0.7"/>
<path d="M272.011 2.31639L272.011 0.0663929L274.011 0.0663928L274.011 2.31639L272.011 2.31639Z" fill="#9690A2" fill-opacity="0.7"/>
<path d="M289.011 19.1914L289.011 21.4414L291.011 21.4414L291.011 19.1914L289.011 19.1914Z" fill="#9690A2" fill-opacity="0.7"/>
<path d="M289.011 2.31639L289.011 0.066392L291.011 0.0663919L291.011 2.31639L289.011 2.31639Z" fill="#9690A2" fill-opacity="0.7"/>
<path d="M306.011 57.4414L306.011 59.6914L308.011 59.6914L308.011 57.4414L306.011 57.4414Z" fill="#9690A2" fill-opacity="0.7"/>
<path d="M306.011 40.5664L306.011 38.3164L308.011 38.3164L308.011 40.5664L306.011 40.5664Z" fill="#9690A2" fill-opacity="0.7"/>
<path d="M323.011 57.4414L323.011 59.6914L325.011 59.6914L325.011 57.4414L323.011 57.4414Z" fill="#9690A2" fill-opacity="0.7"/>
<path d="M323.011 40.5664L323.011 38.3164L325.011 38.3164L325.011 40.5664L323.011 40.5664Z" fill="#9690A2" fill-opacity="0.7"/>
<path d="M306.011 19.1914L306.011 21.4414L308.011 21.4414L308.011 19.1914L306.011 19.1914Z" fill="#9690A2" fill-opacity="0.7"/>
<path d="M306.011 2.31639L306.011 0.0663912L308.011 0.0663911L308.011 2.31639L306.011 2.31639Z" fill="#9690A2" fill-opacity="0.7"/>
<path d="M323.011 19.1914L323.011 21.4414L325.011 21.4414L325.011 19.1914L323.011 19.1914Z" fill="#9690A2" fill-opacity="0.7"/>
<path d="M323.011 2.31639L323.011 0.0663904L325.011 0.0663903L325.011 2.31639L323.011 2.31639Z" fill="#9690A2" fill-opacity="0.7"/>
<path d="M340.011 136.191L340.011 133.941L342.011 133.941L342.011 136.191L340.011 136.191Z" fill="#9690A2" fill-opacity="0.7"/>
<path d="M340.011 117.066L340.011 114.816L342.011 114.816L342.011 117.066L340.011 117.066Z" fill="#9690A2" fill-opacity="0.7"/>
<path d="M357.011 133.941L357.011 136.191L359.011 136.191L359.011 133.941L357.011 133.941Z" fill="#9690A2" fill-opacity="0.7"/>
<path d="M357.011 117.066L357.011 114.816L359.011 114.816L359.011 117.066L357.011 117.066Z" fill="#9690A2" fill-opacity="0.7"/>
<path d="M340.011 95.6914L340.011 97.9414L342.011 97.9414L342.011 95.6914L340.011 95.6914Z" fill="#9690A2" fill-opacity="0.7"/>
<path d="M340.011 78.8164L340.011 76.5664L342.011 76.5664L342.011 78.8164L340.011 78.8164Z" fill="#9690A2" fill-opacity="0.7"/>
<path d="M357.011 95.6914L357.011 97.9414L359.011 97.9414L359.011 95.6914L357.011 95.6914Z" fill="#9690A2" fill-opacity="0.7"/>
<path d="M357.011 78.8164L357.011 76.5664L359.011 76.5664L359.011 78.8164L357.011 78.8164Z" fill="#9690A2" fill-opacity="0.7"/>
<path d="M374.011 133.941L374.011 136.191L376.011 136.191L376.011 133.941L374.011 133.941Z" fill="#9690A2" fill-opacity="0.7"/>
<path d="M374.011 117.066L374.011 114.816L376.011 114.816L376.011 117.066L374.011 117.066Z" fill="#9690A2" fill-opacity="0.7"/>
<path d="M391.011 133.941L391.011 136.191L393.011 136.191L393.011 133.941L391.011 133.941Z" fill="#9690A2" fill-opacity="0.7"/>
<path d="M391.011 117.066L391.011 114.816L393.011 114.816L393.011 117.066L391.011 117.066Z" fill="#9690A2" fill-opacity="0.7"/>
<path d="M374.011 95.6914L374.011 97.9414L376.011 97.9414L376.011 95.6914L374.011 95.6914Z" fill="#9690A2" fill-opacity="0.7"/>
<path d="M374.011 78.8164L374.011 76.5664L376.011 76.5664L376.011 78.8164L374.011 78.8164Z" fill="#9690A2" fill-opacity="0.7"/>
<path d="M391.011 95.6914L391.011 97.9414L393.011 97.9414L393.011 95.6914L391.011 95.6914Z" fill="#9690A2" fill-opacity="0.7"/>
<path d="M391.011 78.8164L391.011 76.5664L393.011 76.5664L393.011 78.8164L391.011 78.8164Z" fill="#9690A2" fill-opacity="0.7"/>
<path d="M340.011 59.6914L340.011 57.4414L342.011 57.4414L342.011 59.6914L340.011 59.6914Z" fill="#9690A2" fill-opacity="0.7"/>
<path d="M340.011 40.5664L340.011 38.3164L342.011 38.3164L342.011 40.5664L340.011 40.5664Z" fill="#9690A2" fill-opacity="0.7"/>
<path d="M357.011 57.4414L357.011 59.6914L359.011 59.6914L359.011 57.4414L357.011 57.4414Z" fill="#9690A2" fill-opacity="0.7"/>
<path d="M357.011 40.5664L357.011 38.3164L359.011 38.3164L359.011 40.5664L357.011 40.5664Z" fill="#9690A2" fill-opacity="0.7"/>
<path d="M340.011 19.1914L340.011 21.4414L342.011 21.4414L342.011 19.1914L340.011 19.1914Z" fill="#9690A2" fill-opacity="0.7"/>
<path d="M340.011 2.31639L340.011 0.0663895L342.011 0.0663894L342.011 2.31639L340.011 2.31639Z" fill="#9690A2" fill-opacity="0.7"/>
<path d="M357.011 19.1914L357.011 21.4414L359.011 21.4414L359.011 19.1914L357.011 19.1914Z" fill="#9690A2" fill-opacity="0.7"/>
<path d="M357.011 2.31639L357.011 0.0663887L359.011 0.0663886L359.011 2.31639L357.011 2.31639Z" fill="#9690A2" fill-opacity="0.7"/>
<path d="M374.011 57.4414L374.011 59.6914L376.011 59.6914L376.011 57.4414L374.011 57.4414Z" fill="#9690A2" fill-opacity="0.7"/>
<path d="M374.011 40.5664L374.011 38.3164L376.011 38.3164L376.011 40.5664L374.011 40.5664Z" fill="#9690A2" fill-opacity="0.7"/>
<path d="M391.011 57.4414L391.011 59.6914L393.011 59.6914L393.011 57.4414L391.011 57.4414Z" fill="#9690A2" fill-opacity="0.7"/>
<path d="M391.011 40.5664L391.011 38.3164L393.011 38.3164L393.011 40.5664L391.011 40.5664Z" fill="#9690A2" fill-opacity="0.7"/>
<path d="M374.011 19.1914L374.011 21.4414L376.011 21.4414L376.011 19.1914L374.011 19.1914Z" fill="#9690A2" fill-opacity="0.7"/>
<path d="M374.011 2.31639L374.011 0.0663879L376.011 0.0663878L376.011 2.31639L374.011 2.31639Z" fill="#9690A2" fill-opacity="0.7"/>
<path d="M391.011 19.1914L391.011 21.4414L393.011 21.4414L393.011 19.1914L391.011 19.1914Z" fill="#9690A2" fill-opacity="0.7"/>
<path d="M391.011 2.31639L391.011 0.066387L393.011 0.0663869L393.011 2.31639L391.011 2.31639Z" fill="#9690A2" fill-opacity="0.7"/>
<path d="M408.011 286.941L408.011 289.191L410.011 289.191L410.011 286.941L408.011 286.941Z" fill="#9690A2" fill-opacity="0.7"/>
<path d="M408.011 267.816L408.011 270.066L410.011 270.066L410.011 267.816L408.011 267.816Z" fill="#9690A2" fill-opacity="0.7"/>
<path d="M425.011 289.191L425.011 286.941L427.011 286.941L427.011 289.191L425.011 289.191Z" fill="#9690A2" fill-opacity="0.7"/>
<path d="M425.011 267.816L425.011 270.066L427.011 270.066L427.011 267.816L425.011 267.816Z" fill="#9690A2" fill-opacity="0.7"/>
<path d="M408.011 250.941L408.011 248.691L410.011 248.691L410.011 250.941L408.011 250.941Z" fill="#9690A2" fill-opacity="0.7"/>
<path d="M408.011 229.566L408.011 231.816L410.011 231.816L410.011 229.566L408.011 229.566Z" fill="#9690A2" fill-opacity="0.7"/>
<path d="M425.011 250.941L425.011 248.691L427.011 248.691L427.011 250.941L425.011 250.941Z" fill="#9690A2" fill-opacity="0.7"/>
<path d="M425.011 229.566L425.011 231.816L427.011 231.816L427.011 229.566L425.011 229.566Z" fill="#9690A2" fill-opacity="0.7"/>
<path d="M442.011 289.191L442.011 286.941L444.011 286.941L444.011 289.191L442.011 289.191Z" fill="#9690A2" fill-opacity="0.7"/>
<path d="M442.011 267.816L442.011 270.066L444.011 270.066L444.011 267.816L442.011 267.816Z" fill="#9690A2" fill-opacity="0.7"/>
<path d="M459.011 289.191L459.011 286.941L461.011 286.941L461.011 289.191L459.011 289.191Z" fill="#9690A2" fill-opacity="0.7"/>
<path d="M459.011 267.816L459.011 270.066L461.011 270.066L461.011 267.816L459.011 267.816Z" fill="#9690A2" fill-opacity="0.7"/>
<path d="M442.011 250.941L442.011 248.691L444.011 248.691L444.011 250.941L442.011 250.941Z" fill="#9690A2" fill-opacity="0.7"/>
<path d="M442.011 229.566L442.011 231.816L444.011 231.816L444.011 229.566L442.011 229.566Z" fill="#9690A2" fill-opacity="0.7"/>
<path d="M459.011 250.941L459.011 248.691L461.011 248.691L461.011 250.941L459.011 250.941Z" fill="#9690A2" fill-opacity="0.7"/>
<path d="M459.011 229.566L459.011 231.816L461.011 231.816L461.011 229.566L459.011 229.566Z" fill="#9690A2" fill-opacity="0.7"/>
<path d="M408.011 210.441L408.011 212.691L410.011 212.691L410.011 210.441L408.011 210.441Z" fill="#9690A2" fill-opacity="0.7"/>
<path d="M408.011 191.316L408.011 193.566L410.011 193.566L410.011 191.316L408.011 191.316Z" fill="#9690A2" fill-opacity="0.7"/>
<path d="M425.011 212.691L425.011 210.441L427.011 210.441L427.011 212.691L425.011 212.691Z" fill="#9690A2" fill-opacity="0.7"/>
<path d="M425.011 191.316L425.011 193.566L427.011 193.566L427.011 191.316L425.011 191.316Z" fill="#9690A2" fill-opacity="0.7"/>
<path d="M408.011 174.441L408.011 172.191L410.011 172.191L410.011 174.441L408.011 174.441Z" fill="#9690A2" fill-opacity="0.7"/>
<path d="M408.011 153.066L408.011 155.316L410.011 155.316L410.011 153.066L408.011 153.066Z" fill="#9690A2" fill-opacity="0.7"/>
<path d="M425.011 174.441L425.011 172.191L427.011 172.191L427.011 174.441L425.011 174.441Z" fill="#9690A2" fill-opacity="0.7"/>
<path d="M425.011 153.066L425.011 155.316L427.011 155.316L427.011 153.066L425.011 153.066Z" fill="#9690A2" fill-opacity="0.7"/>
<path d="M442.011 212.691L442.011 210.441L444.011 210.441L444.011 212.691L442.011 212.691Z" fill="#9690A2" fill-opacity="0.7"/>
<path d="M442.011 191.316L442.011 193.566L444.011 193.566L444.011 191.316L442.011 191.316Z" fill="#9690A2" fill-opacity="0.7"/>
<path d="M459.011 212.691L459.011 210.441L461.011 210.441L461.011 212.691L459.011 212.691Z" fill="#9690A2" fill-opacity="0.7"/>
<path d="M459.011 191.316L459.011 193.566L461.011 193.566L461.011 191.316L459.011 191.316Z" fill="#9690A2" fill-opacity="0.7"/>
<path d="M442.011 174.441L442.011 172.191L444.011 172.191L444.011 174.441L442.011 174.441Z" fill="#9690A2" fill-opacity="0.7"/>
<path d="M442.011 153.066L442.011 155.316L444.011 155.316L444.011 153.066L442.011 153.066Z" fill="#9690A2" fill-opacity="0.7"/>
<path d="M459.011 174.441L459.011 172.191L461.011 172.191L461.011 174.441L459.011 174.441Z" fill="#9690A2" fill-opacity="0.7"/>
<path d="M459.011 153.066L459.011 155.316L461.011 155.316L461.011 153.066L459.011 153.066Z" fill="#9690A2" fill-opacity="0.7"/>
<path d="M476.011 286.941L476.011 289.191L478.011 289.191L478.011 286.941L476.011 286.941Z" fill="#9690A2" fill-opacity="0.7"/>
<path d="M476.011 267.816L476.011 270.066L478.011 270.066L478.011 267.816L476.011 267.816Z" fill="#9690A2" fill-opacity="0.7"/>
<path d="M493.011 289.191L493.011 286.941L495.011 286.941L495.011 289.191L493.011 289.191Z" fill="#9690A2" fill-opacity="0.7"/>
<path d="M493.011 267.816L493.011 270.066L495.011 270.066L495.011 267.816L493.011 267.816Z" fill="#9690A2" fill-opacity="0.7"/>
<path d="M476.011 250.941L476.011 248.691L478.011 248.691L478.011 250.941L476.011 250.941Z" fill="#9690A2" fill-opacity="0.7"/>
<path d="M476.011 229.566L476.011 231.816L478.011 231.816L478.011 229.566L476.011 229.566Z" fill="#9690A2" fill-opacity="0.7"/>
<path d="M493.011 250.941L493.011 248.691L495.011 248.691L495.011 250.941L493.011 250.941Z" fill="#9690A2" fill-opacity="0.7"/>
<path d="M493.011 229.566L493.011 231.816L495.011 231.816L495.011 229.566L493.011 229.566Z" fill="#9690A2" fill-opacity="0.7"/>
<path d="M510.011 289.191L510.011 286.941L512.011 286.941L512.011 289.191L510.011 289.191Z" fill="#9690A2" fill-opacity="0.7"/>
<path d="M510.011 267.816L510.011 270.066L512.011 270.066L512.011 267.816L510.011 267.816Z" fill="#9690A2" fill-opacity="0.7"/>
<path d="M510.011 250.941L510.011 248.691L512.011 248.691L512.011 250.941L510.011 250.941Z" fill="#9690A2" fill-opacity="0.7"/>
<path d="M510.011 229.566L510.011 231.816L512.011 231.816L512.011 229.566L510.011 229.566Z" fill="#9690A2" fill-opacity="0.7"/>
<path d="M476.011 210.441L476.011 212.691L478.011 212.691L478.011 210.441L476.011 210.441Z" fill="#9690A2" fill-opacity="0.7"/>
<path d="M476.011 191.316L476.011 193.566L478.011 193.566L478.011 191.316L476.011 191.316Z" fill="#9690A2" fill-opacity="0.7"/>
<path d="M493.011 212.691L493.011 210.441L495.011 210.441L495.011 212.691L493.011 212.691Z" fill="#9690A2" fill-opacity="0.7"/>
<path d="M493.011 191.316L493.011 193.566L495.011 193.566L495.011 191.316L493.011 191.316Z" fill="#9690A2" fill-opacity="0.7"/>
<path d="M476.011 174.441L476.011 172.191L478.011 172.191L478.011 174.441L476.011 174.441Z" fill="#9690A2" fill-opacity="0.7"/>
<path d="M476.011 153.066L476.011 155.316L478.011 155.316L478.011 153.066L476.011 153.066Z" fill="#9690A2" fill-opacity="0.7"/>
<path d="M493.011 174.441L493.011 172.191L495.011 172.191L495.011 174.441L493.011 174.441Z" fill="#9690A2" fill-opacity="0.7"/>
<path d="M493.011 153.066L493.011 155.316L495.011 155.316L495.011 153.066L493.011 153.066Z" fill="#9690A2" fill-opacity="0.7"/>
<path d="M510.011 212.691L510.011 210.441L512.011 210.441L512.011 212.691L510.011 212.691Z" fill="#9690A2" fill-opacity="0.7"/>
<path d="M510.011 191.316L510.011 193.566L512.011 193.566L512.011 191.316L510.011 191.316Z" fill="#9690A2" fill-opacity="0.7"/>
<path d="M510.011 174.441L510.011 172.191L512.011 172.191L512.011 174.441L510.011 174.441Z" fill="#9690A2" fill-opacity="0.7"/>
<path d="M510.011 153.066L510.011 155.316L512.011 155.316L512.011 153.066L510.011 153.066Z" fill="#9690A2" fill-opacity="0.7"/>
<path d="M408.011 136.191L408.011 133.941L410.011 133.941L410.011 136.191L408.011 136.191Z" fill="#9690A2" fill-opacity="0.7"/>
<path d="M408.011 117.066L408.011 114.816L410.011 114.816L410.011 117.066L408.011 117.066Z" fill="#9690A2" fill-opacity="0.7"/>
<path d="M425.011 133.941L425.011 136.191L427.011 136.191L427.011 133.941L425.011 133.941Z" fill="#9690A2" fill-opacity="0.7"/>
<path d="M425.011 117.066L425.011 114.816L427.011 114.816L427.011 117.066L425.011 117.066Z" fill="#9690A2" fill-opacity="0.7"/>
<path d="M408.011 95.6914L408.011 97.9414L410.011 97.9414L410.011 95.6914L408.011 95.6914Z" fill="#9690A2" fill-opacity="0.7"/>
<path d="M408.011 78.8164L408.011 76.5664L410.011 76.5664L410.011 78.8164L408.011 78.8164Z" fill="#9690A2" fill-opacity="0.7"/>
<path d="M425.011 95.6914L425.011 97.9414L427.011 97.9414L427.011 95.6914L425.011 95.6914Z" fill="#9690A2" fill-opacity="0.7"/>
<path d="M425.011 78.8164L425.011 76.5664L427.011 76.5664L427.011 78.8164L425.011 78.8164Z" fill="#9690A2" fill-opacity="0.7"/>
<path d="M442.011 133.941L442.011 136.191L444.011 136.191L444.011 133.941L442.011 133.941Z" fill="#9690A2" fill-opacity="0.7"/>
<path d="M442.011 117.066L442.011 114.816L444.011 114.816L444.011 117.066L442.011 117.066Z" fill="#9690A2" fill-opacity="0.7"/>
<path d="M459.011 133.941L459.011 136.191L461.011 136.191L461.011 133.941L459.011 133.941Z" fill="#9690A2" fill-opacity="0.7"/>
<path d="M459.011 117.066L459.011 114.816L461.011 114.816L461.011 117.066L459.011 117.066Z" fill="#9690A2" fill-opacity="0.7"/>
<path d="M442.011 95.6914L442.011 97.9414L444.011 97.9414L444.011 95.6914L442.011 95.6914Z" fill="#9690A2" fill-opacity="0.7"/>
<path d="M442.011 78.8164L442.011 76.5664L444.011 76.5664L444.011 78.8164L442.011 78.8164Z" fill="#9690A2" fill-opacity="0.7"/>
<path d="M459.011 95.6914L459.011 97.9414L461.011 97.9414L461.011 95.6914L459.011 95.6914Z" fill="#9690A2" fill-opacity="0.7"/>
<path d="M459.011 78.8164L459.011 76.5664L461.011 76.5664L461.011 78.8164L459.011 78.8164Z" fill="#9690A2" fill-opacity="0.7"/>
<path d="M408.011 59.6914L408.011 57.4414L410.011 57.4414L410.011 59.6914L408.011 59.6914Z" fill="#9690A2" fill-opacity="0.7"/>
<path d="M408.011 40.5664L408.011 38.3164L410.011 38.3164L410.011 40.5664L408.011 40.5664Z" fill="#9690A2" fill-opacity="0.7"/>
<path d="M425.011 57.4414L425.011 59.6914L427.011 59.6914L427.011 57.4414L425.011 57.4414Z" fill="#9690A2" fill-opacity="0.7"/>
<path d="M425.011 40.5664L425.011 38.3164L427.011 38.3164L427.011 40.5664L425.011 40.5664Z" fill="#9690A2" fill-opacity="0.7"/>
<path d="M408.011 19.1914L408.011 21.4414L410.011 21.4414L410.011 19.1914L408.011 19.1914Z" fill="#9690A2" fill-opacity="0.7"/>
<path d="M408.011 2.31639L408.011 0.0663862L410.011 0.0663861L410.011 2.31639L408.011 2.31639Z" fill="#9690A2" fill-opacity="0.7"/>
<path d="M425.011 19.1914L425.011 21.4414L427.011 21.4414L427.011 19.1914L425.011 19.1914Z" fill="#9690A2" fill-opacity="0.7"/>
<path d="M425.011 2.31639L425.011 0.0663854L427.011 0.0663853L427.011 2.31639L425.011 2.31639Z" fill="#9690A2" fill-opacity="0.7"/>
<path d="M442.011 57.4414L442.011 59.6914L444.011 59.6914L444.011 57.4414L442.011 57.4414Z" fill="#9690A2" fill-opacity="0.7"/>
<path d="M442.011 40.5664L442.011 38.3164L444.011 38.3164L444.011 40.5664L442.011 40.5664Z" fill="#9690A2" fill-opacity="0.7"/>
<path d="M459.011 57.4414L459.011 59.6914L461.011 59.6914L461.011 57.4414L459.011 57.4414Z" fill="#9690A2" fill-opacity="0.7"/>
<path d="M459.011 40.5664L459.011 38.3164L461.011 38.3164L461.011 40.5664L459.011 40.5664Z" fill="#9690A2" fill-opacity="0.7"/>
<path d="M442.011 19.1914L442.011 21.4414L444.011 21.4414L444.011 19.1914L442.011 19.1914Z" fill="#9690A2" fill-opacity="0.7"/>
<path d="M442.011 2.31638L442.011 0.0663845L444.011 0.0663844L444.011 2.31638L442.011 2.31638Z" fill="#9690A2" fill-opacity="0.7"/>
<path d="M459.011 19.1914L459.011 21.4414L461.011 21.4414L461.011 19.1914L459.011 19.1914Z" fill="#9690A2" fill-opacity="0.7"/>
<path d="M459.011 2.31638L459.011 0.0663837L461.011 0.0663836L461.011 2.31638L459.011 2.31638Z" fill="#9690A2" fill-opacity="0.7"/>
<path d="M476.011 136.191L476.011 133.941L478.011 133.941L478.011 136.191L476.011 136.191Z" fill="#9690A2" fill-opacity="0.7"/>
<path d="M476.011 117.066L476.011 114.816L478.011 114.816L478.011 117.066L476.011 117.066Z" fill="#9690A2" fill-opacity="0.7"/>
<path d="M493.011 133.941L493.011 136.191L495.011 136.191L495.011 133.941L493.011 133.941Z" fill="#9690A2" fill-opacity="0.7"/>
<path d="M493.011 117.066L493.011 114.816L495.011 114.816L495.011 117.066L493.011 117.066Z" fill="#9690A2" fill-opacity="0.7"/>
<path d="M476.011 95.6914L476.011 97.9414L478.011 97.9414L478.011 95.6914L476.011 95.6914Z" fill="#9690A2" fill-opacity="0.7"/>
<path d="M476.011 78.8164L476.011 76.5664L478.011 76.5664L478.011 78.8164L476.011 78.8164Z" fill="#9690A2" fill-opacity="0.7"/>
<path d="M493.011 95.6914L493.011 97.9414L495.011 97.9414L495.011 95.6914L493.011 95.6914Z" fill="#9690A2" fill-opacity="0.7"/>
<path d="M493.011 78.8164L493.011 76.5664L495.011 76.5664L495.011 78.8164L493.011 78.8164Z" fill="#9690A2" fill-opacity="0.7"/>
<path d="M510.011 133.941L510.011 136.191L512.011 136.191L512.011 133.941L510.011 133.941Z" fill="#9690A2" fill-opacity="0.7"/>
<path d="M510.011 117.066L510.011 114.816L512.011 114.816L512.011 117.066L510.011 117.066Z" fill="#9690A2" fill-opacity="0.7"/>
<path d="M510.011 95.6914L510.011 97.9414L512.011 97.9414L512.011 95.6914L510.011 95.6914Z" fill="#9690A2" fill-opacity="0.7"/>
<path d="M510.011 78.8164L510.011 76.5664L512.011 76.5664L512.011 78.8164L510.011 78.8164Z" fill="#9690A2" fill-opacity="0.7"/>
<path d="M476.011 59.6914L476.011 57.4414L478.011 57.4414L478.011 59.6914L476.011 59.6914Z" fill="#9690A2" fill-opacity="0.7"/>
<path d="M476.011 40.5664L476.011 38.3164L478.011 38.3164L478.011 40.5664L476.011 40.5664Z" fill="#9690A2" fill-opacity="0.7"/>
<path d="M493.011 57.4414L493.011 59.6914L495.011 59.6914L495.011 57.4414L493.011 57.4414Z" fill="#9690A2" fill-opacity="0.7"/>
<path d="M493.011 40.5664L493.011 38.3164L495.011 38.3164L495.011 40.5664L493.011 40.5664Z" fill="#9690A2" fill-opacity="0.7"/>
<path d="M476.011 19.1914L476.011 21.4414L478.011 21.4414L478.011 19.1914L476.011 19.1914Z" fill="#9690A2" fill-opacity="0.7"/>
<path d="M476.011 2.31638L476.011 0.0663828L478.011 0.0663827L478.011 2.31638L476.011 2.31638Z" fill="#9690A2" fill-opacity="0.7"/>
<path d="M493.011 19.1914L493.011 21.4414L495.011 21.4414L495.011 19.1914L493.011 19.1914Z" fill="#9690A2" fill-opacity="0.7"/>
<path d="M493.011 2.31638L493.011 0.066382L495.011 0.0663819L495.011 2.31638L493.011 2.31638Z" fill="#9690A2" fill-opacity="0.7"/>
<path d="M510.011 57.4414L510.011 59.6914L512.011 59.6914L512.011 57.4414L510.011 57.4414Z" fill="#9690A2" fill-opacity="0.7"/>
<path d="M510.011 40.5664L510.011 38.3164L512.011 38.3164L512.011 40.5664L510.011 40.5664Z" fill="#9690A2" fill-opacity="0.7"/>
<path d="M510.011 19.1914L510.011 21.4414L512.011 21.4414L512.011 19.1914L510.011 19.1914Z" fill="#9690A2" fill-opacity="0.7"/>
<path d="M510.011 2.31638L510.011 0.0663812L512.011 0.0663811L512.011 2.31638L510.011 2.31638Z" fill="#9690A2" fill-opacity="0.7"/>
</g>
</svg>
