<svg width="176" height="43" viewBox="0 0 176 43" fill="none" xmlns="http://www.w3.org/2000/svg">
<g clip-path="url(#clip0_862_41665)">
<path d="M28.8389 40.8137C28.8389 40.8137 31.2161 40.8987 34.0983 40.8349C38.5793 40.7499 44.3224 40.5377 44.3224 40.5377C44.3224 40.5377 37.0434 40.6437 33.7826 40.5377C31.2161 40.4527 28.9231 40.2615 28.9231 40.2615L28.8389 40.8137Z" fill="#DCDCDC"/>
<path d="M22.7388 40.6861C22.7388 40.6861 20.3404 41.1534 17.4584 41.0471C12.9774 40.8773 8.32812 40.6011 8.32812 40.6011C8.32812 40.6011 13.7137 40.6223 17.7739 40.6861C20.3404 40.7285 22.6546 40.2825 22.6546 40.2825L22.7388 40.6861Z" fill="#DCDCDC"/>
<path d="M23.3073 40.1336C23.244 40.7282 23.3703 41.1531 23.8121 41.7902C24.2329 42.385 25.2847 42.5973 25.2847 42.5973C25.2847 42.5973 24.4221 42.2788 23.9593 41.5777C23.7701 41.2805 23.6228 40.6432 23.6228 40.0698C23.6228 39.4539 23.7701 38.9229 23.7701 38.9229C23.7701 38.9229 23.3703 39.5813 23.3073 40.1336Z" fill="#DCDCDC"/>
<path d="M29.1554 40.1335C29.2605 40.7282 29.0921 41.153 28.6505 41.7903C28.2297 42.385 27.1777 42.5974 27.1777 42.5974C27.1777 42.5974 28.0403 42.2787 28.5032 41.5779C28.6925 41.2804 28.8607 40.6434 28.8397 40.0699C28.8397 39.5176 29.0501 39.5176 29.1554 40.1335Z" fill="#DCDCDC"/>
<path d="M33.5312 36.6296C33.5312 36.6296 35.0038 37.1181 35.614 37.8404C35.9925 38.2864 36.5817 39.497 36.5817 39.497C36.5817 39.497 36.287 38.1802 35.8454 37.7766C34.8775 36.8633 33.5312 36.6296 33.5312 36.6296Z" fill="#DCDCDC"/>
<path d="M54.6949 16.1749C54.2531 15.9413 57.0721 16.2386 56.9459 15.6439C56.8617 15.2191 55.2208 14.0297 55.1157 13.6261C55.0316 13.2438 56.1254 13.0314 55.9993 12.6915C55.915 12.4791 55.0526 12.8402 54.9473 12.6278C54.8212 12.3092 55.873 11.6083 55.6836 11.3322C55.5785 11.1623 55.2208 11.6083 54.4635 11.7995C53.8955 11.9481 52.8856 11.8419 52.8015 11.7145C52.6332 11.4596 52.5911 10.5675 52.5911 10.5675C52.5911 10.5675 52.0863 10.3976 51.7918 10.5463C51.5604 10.6525 51.5394 11.0348 51.4761 11.0985C51.4341 11.1198 50.7608 11.226 50.4033 10.9923C50.1086 10.8012 50.1299 10.2914 50.1087 10.2065C50.0456 10.0365 51.7285 9.67545 51.5604 9.65423C51.0133 9.56926 50.7188 8.86835 50.1509 8.67718C49.6038 8.48602 48.8044 8.54973 48.4257 8.33735C47.9629 8.03998 48.4889 7.61517 48.0261 7.4665C47.9208 7.42401 47.7525 7.40277 47.5421 7.31782C47.479 7.29658 47.3949 7.10542 47.3107 7.08418C47.2686 7.06293 46.869 7.21161 46.7427 7.19039C46.4062 7.12666 46.2379 7.10542 46.1748 6.97798C46.0485 6.74434 47.1425 5.74605 46.8268 5.68235C46.5954 5.63986 46.0275 5.95846 45.0388 5.74605C44.9545 5.72481 43.5029 6.38326 43.4189 6.10713C43.3346 5.83102 44.639 4.62033 44.3866 4.51414C44.0921 4.38669 43.2295 5.10886 43.1032 4.96017C42.7456 4.4929 42.6193 3.7495 42.4722 3.68577C42.3249 3.64329 40.9994 4.7053 40.1791 4.74779C39.8003 4.76901 39.6742 4.45042 39.5059 4.25925C39.3797 4.11058 39.1693 3.7495 39.1693 3.7495C39.1693 3.7495 38.959 4.06809 38.8116 4.23801C38.6012 4.4929 38.4329 4.85398 38.3278 4.74779C37.949 4.45042 38.6643 2.2627 37.4231 3.17602C37.2127 2.60254 36.2871 1.17945 36.2871 1.17945C36.2871 1.17945 34.9196 2.45386 34.8776 2.7937C34.7304 2.72998 33.8468 1.62549 33.8468 1.62549C33.8468 1.62549 33.2577 2.83618 33.1106 2.51758C32.4373 0.903334 32.4373 0.924575 32.4373 0.924575C32.4373 0.924575 31.9745 2.2627 31.9745 2.60254C31.9745 2.77246 31.4486 1.75294 31.2382 1.9441C31.0699 2.09278 30.8385 2.24146 30.544 2.41138C29.6814 2.87865 29.3237 1.51929 28.6717 1.75294C28.2298 1.90162 27.9984 3.06981 27.4936 3.13353C27.1989 3.17602 26.8203 2.56006 26.5889 2.60254C26.3575 2.64502 26.1892 3.19726 25.8737 3.30345C25.3688 3.45213 24.4009 2.17773 23.875 2.32641C23.4543 2.45386 23.0336 4.04685 23.0757 4.11058C23.0967 4.19553 23.812 4.85398 23.812 5.10886C23.812 5.30002 22.76 4.79025 22.76 5.0239C22.76 5.63986 22.8863 6.1921 22.781 6.17086C22.0448 6.04342 19.8359 3.43089 19.1837 3.64329C18.8892 3.7495 18.805 5.27878 18.5316 5.36373C18.3212 5.42746 18.0056 5.06638 17.6901 5.00265C17.5007 4.96017 17.5849 5.36373 17.1431 5.19381C16.7223 5.00265 16.2805 4.98141 16.0702 5.13009C15.6705 5.40622 15.8177 6.68061 15.8598 6.80807C15.7125 6.36202 14.8921 6.10713 14.8921 6.10713C14.8921 6.10713 14.5134 6.57442 14.4924 6.82929C14.1137 6.7231 13.4826 5.95846 13.4195 6.02218C13.3984 6.04342 13.0198 6.10713 12.9566 6.27705C12.7673 6.74434 12.9356 7.06293 12.9356 7.06293C12.9356 7.06293 12.2624 6.59566 12.031 6.61691C10.5373 6.78682 10.5584 7.78509 10.4321 7.84882C10.3059 7.91254 9.71687 6.99923 9.29612 7.10542C9.02265 7.16914 9.23302 7.63642 8.95953 7.72138C8.4967 7.87006 6.68749 7.76387 6.47712 8.16741C6.37192 8.48602 8.89641 8.1037 6.20363 10.0578C5.95117 10.2489 5.5725 10.3127 5.21487 10.4826C5.08864 10.5463 4.77309 10.9499 4.92034 11.3322C5.08864 11.5233 5.5725 11.4809 6.03533 11.5446C6.79267 11.6295 7.50795 12.819 7.40275 12.8615C7.2555 12.9464 6.14051 12.0331 5.48835 12.203C4.96242 12.3517 4.98346 12.5641 4.70997 12.5641C4.79412 12.7765 4.83618 12.9889 4.83618 13.1588C4.83618 13.4774 4.26818 13.35 4.01573 13.435C3.72121 13.5624 3.21631 12.4579 3.02697 12.6915C2.87972 12.8615 2.75348 13.0314 2.60623 13.2013C2.35377 13.4987 1.72265 12.8402 1.51228 13.1588C1.36502 13.4137 2.18548 14.3907 2.05924 14.6244C1.68058 15.3041 0.334182 14.7093 0.144845 15.8563C0.0186209 16.5997 0.839081 17.6405 1.38605 17.5555C1.53332 17.5343 1.70162 17.513 1.84888 17.4493C1.84888 17.4493 1.86991 17.4493 1.86991 17.4281C2.18548 17.2794 2.20652 16.9608 2.20652 16.7909C2.18548 16.621 1.82784 16.1749 2.01718 16.1324C2.22756 16.1112 2.54311 16.536 2.54311 16.536C2.54311 16.536 3.70018 18.5113 4.20506 18.6812C4.68893 18.8511 4.2261 17.3856 4.35234 17.0245C4.47855 16.6634 4.66789 16.1749 5.08864 16.09C5.71976 15.9837 7.00304 16.8971 6.87683 17.0245C6.75059 17.1732 6.20363 16.7909 5.5725 16.8121C5.04656 16.8334 4.79412 16.8546 4.81515 17.3006C4.83618 17.7891 4.98346 18.0865 4.68893 18.7237C4.43648 19.2972 3.74225 19.4033 3.72121 19.637C3.72121 19.7432 4.2261 20.0618 4.54167 19.807C4.79412 19.6583 4.83618 19.807 5.02552 19.9132C7.23446 21.1451 7.46587 18.1502 7.8235 18.2564C8.41255 18.4476 8.28633 18.8936 8.09699 19.3821C8.03388 19.5521 10.4532 20.0194 10.369 20.4228C10.2849 20.8053 8.32841 20.0406 8.01284 20.2954C7.65521 20.5929 8.34945 21.3149 9.00161 21.5062C10.6846 22.016 10.1166 21.0177 11.3368 21.5274C12.1572 21.8672 13.0408 22.6743 13.735 22.6957C15.1025 22.7381 14.261 20.9539 15.4601 20.4228C16.6382 19.892 16.1333 21.4211 16.4068 21.3575C16.9958 21.2087 16.6382 20.7203 17.1852 20.4654C18.6578 19.7858 18.8682 18.9149 19.2047 19.0211C19.3731 19.0848 19.4572 19.5095 20.0883 20.1468C20.1094 20.168 20.7616 21.0177 20.5512 21.2087C20.0883 21.6336 19.2047 21.4211 18.7209 21.5274C18.237 21.6336 15.3128 23.5452 16.1333 24.2248C16.3647 24.4161 16.8065 23.1629 17.9425 23.439C18.2791 23.524 18.8472 23.4602 19.1837 23.4178C19.983 23.2903 20.0253 22.6743 20.1514 22.3558C20.1934 22.2282 20.5091 21.7822 20.5932 21.8884C20.6773 21.9734 20.4038 22.2282 20.8456 22.6531C21.1401 22.9293 21.5609 23.0779 22.3182 23.6514C22.6339 23.885 22.8863 24.0974 23.1177 24.246C23.5806 24.5647 23.833 24.6921 24.0224 24.8833C24.3589 25.2231 24.5062 25.4992 24.5272 25.648C24.5903 26.0302 24.3379 26.3489 23.7489 26.7311C23.5385 26.8799 23.3071 26.9647 23.2018 27.1772C23.1808 27.3048 23.2228 27.4746 23.2651 27.5808C23.3702 27.772 23.4753 28.0268 23.6016 28.2393C23.7067 28.4305 23.833 28.6215 23.833 28.7489C23.833 29.1738 23.3702 29.3224 22.5918 29.4286C21.8344 29.5348 21.3505 29.195 21.3505 29.195C21.3505 29.195 21.2244 29.4074 21.1613 29.5986C21.0981 29.8534 21.0981 30.0871 21.0981 30.0871C21.0981 30.0871 21.4768 29.726 21.5819 29.7684C22.2551 30.0659 23.3702 29.5136 23.6226 29.5136C23.6857 29.5136 24.0013 29.641 23.854 30.1721C23.791 30.4057 23.6436 30.4269 23.5385 30.6393C23.1808 31.4676 24.3168 31.9137 24.2117 32.6571C24.0854 33.5492 23.833 33.8891 22.8653 34.5475C22.4025 34.8662 20.4881 35.0998 20.3408 35.4184C19.899 36.3105 19.92 36.4591 19.7939 36.5654C19.6676 36.6716 19.289 37.1812 19.0364 37.245C18.805 37.3086 18.0687 37.2874 17.7111 37.3937C17.3745 37.4787 16.7855 37.8185 16.6592 37.9671C16.533 38.1371 15.0604 38.8168 15.0604 38.8168C15.0604 38.8168 17.2903 39.1566 17.7952 39.0292C18.2791 38.9018 18.6999 38.9018 18.6999 38.9018C18.6999 38.9018 19.3941 38.9866 19.6676 38.9866C19.941 38.9866 20.8456 39.2628 21.4978 39.3265C22.15 39.3903 22.6969 39.1566 23.0547 38.9018C23.3491 38.6894 23.875 37.5849 25.4108 37.33C26.7151 37.0964 27.9142 38.0733 28.4192 38.3495C28.6506 38.477 29.2186 39.008 29.8077 39.1566C30.2705 39.2628 31.0699 39.284 31.3013 39.284C31.5327 39.284 32.9212 39.199 33.1526 39.199C33.384 39.199 34.0782 38.8804 34.2676 38.8804C34.4568 38.8804 34.7935 39.0292 34.7935 39.0292L35.3194 38.9866L35.7822 38.7318C35.7822 38.7318 34.8776 37.5423 34.0572 37.4149C33.6785 37.3512 33.0685 37.1812 32.6687 37.0538C31.7221 36.7566 30.9225 36.4379 30.607 36.3105C30.1232 36.0981 28.7768 35.7157 28.2509 34.9086C27.6407 33.9953 28.6084 33.0182 28.5874 33.0608C28.6927 32.9546 28.7768 32.4235 28.5874 31.9775C28.5243 31.8288 28.4613 31.7014 28.4613 31.6164C28.4823 31.3402 28.6084 31.2978 28.8188 31.2978C28.9661 31.2978 29.2606 31.2766 29.3869 31.2554C29.9548 31.1492 30.2915 30.9792 30.2915 30.9792C30.2915 30.9792 29.3869 31.1278 28.9031 31.0218C28.5453 30.9368 28.4192 30.7031 28.5033 30.4057C28.5453 30.2359 28.7768 29.8534 28.8608 29.6622C28.9661 29.4286 28.9661 29.4712 29.0292 29.3224C29.0923 29.1526 29.1975 29.0039 29.1555 28.8339C29.0712 28.5153 28.6506 28.5579 28.2719 28.2817C27.8721 27.9844 27.5777 27.6446 27.746 27.1986C27.9142 26.7311 28.7768 26.4339 29.3659 26.1152C29.5551 26.009 30.0812 25.7542 30.2705 25.648C30.4597 25.5418 30.8174 25.2869 31.0068 25.1593C31.2172 25.0319 31.3013 24.9471 31.6588 24.6709C32.29 24.1824 32.6057 24.5435 32.6898 24.9683C32.7528 25.2656 32.6057 25.6054 32.7738 25.8816C32.9842 26.2002 33.7415 26.3277 34.5201 26.1577C35.151 26.009 36.6028 26.1364 36.6028 26.1364C36.6028 26.1364 35.6981 26.009 34.8355 25.5206C34.2044 25.1593 33.994 24.6921 33.405 24.3949C33.2787 24.3311 32.7108 24.1186 32.5845 24.055C32.1849 23.8 31.8902 23.2691 31.9535 22.8867C32.1006 21.5486 32.4373 21.5062 32.8791 20.9539C32.9212 20.9115 32.7528 21.2301 32.7108 21.6336C32.6898 22.1434 32.9002 22.6107 32.9002 22.6107C32.9002 22.6107 33.1526 21.846 33.2577 21.3149C33.384 20.7627 33.5312 20.168 33.5944 20.1044C33.6575 20.0618 33.8468 20.083 33.9099 20.168C33.973 20.2318 34.0993 20.5716 33.9519 21.1025C33.7415 21.9098 33.6154 22.7805 33.6154 22.7805C33.6154 22.7805 34.3097 22.3982 34.6672 21.6124C34.8986 21.1239 35.0039 20.253 35.0459 20.253C35.3404 20.338 35.6139 20.5078 35.6139 20.8689C35.6349 21.3149 35.4457 22.207 35.4457 22.207C35.4457 22.207 37.7809 21.6548 38.0543 21.1875C38.4541 21.1663 38.3067 21.931 38.6643 21.9734C38.8326 21.9946 38.98 21.5486 39.1271 21.6548C40.1581 21.7398 40.7892 22.6957 41.1888 23.4816C41.4835 24.0762 42.0934 24.2248 42.1987 24.2036C42.4932 24.1612 42.3879 24.1612 42.3038 23.7364C42.2198 23.2691 42.4512 22.9293 42.8087 22.8867C43.503 22.7593 43.4399 22.8867 44.1551 23.3328C44.5127 23.5452 44.9967 22.7805 45.4806 23.0355C45.9644 23.2903 46.4693 24.5435 47.0793 24.6285C49.3724 24.9683 49.0359 24.2886 48.4467 23.6938C48.1102 23.354 47.437 22.9505 48.7624 22.4833C49.4777 22.2282 50.0035 22.016 50.8661 21.931C50.9502 21.931 49.0569 21.4211 49.2252 20.9327C49.7301 19.4671 51.413 21.8036 51.5182 21.846C51.6234 21.8884 53.2013 21.8884 53.8323 21.8036C55.0316 21.6336 55.936 21.2301 56.0834 21.0813C56.1044 21.0389 55.4312 20.8053 54.6739 20.1468C54.19 19.722 53.4958 19.4883 52.9066 19.0423C52.4018 18.66 52.2756 18.0015 51.0133 17.5768C50.4243 17.3856 48.6992 17.8104 47.8157 17.9166C47.6684 17.9378 47.5421 17.6829 47.458 17.6829C47.437 17.6829 46.7007 17.9378 46.4272 17.9378C45.7961 17.9378 45.2702 17.9166 45.1859 17.6829C45.1018 17.4281 47.3107 17.2581 46.6376 16.5147C46.1748 16.005 44.8494 15.9837 44.05 15.4952C43.9658 15.4527 43.4399 15.0917 43.3136 15.1129C43.1875 15.1342 42.9981 15.2616 42.6193 15.1766C41.778 15.0067 40.095 13.7535 40.095 13.7535C40.095 13.7535 41.3361 14.3907 42.0934 14.412C42.8507 14.4332 42.1145 13.9022 42.2198 13.9447C42.4512 14.0297 42.7667 14.412 43.1244 14.2845C43.5029 14.1359 43.2926 13.0526 43.2926 13.0526C43.2926 13.0526 43.7133 13.8385 43.7974 14.1571C43.9027 14.5182 44.1551 14.9642 44.4496 15.1129C45.2702 15.5377 46.3009 16.1537 47.2266 16.4723C47.3739 16.5147 46.8901 17.2581 47.0372 17.3006C47.1845 17.3431 47.5843 16.982 47.7525 17.0033C47.8578 17.0245 47.9839 17.2794 48.0892 17.3006C48.1943 17.3219 48.6781 16.6422 48.7624 16.6422C49.2462 16.6634 49.0359 17.0033 49.3513 17.0882C49.8562 17.2369 50.8029 17.1519 51.0133 17.1519C51.4341 17.1519 52.2546 17.2369 53.096 17.7892C53.8745 18.2989 54.5055 19.2122 55.2418 19.5733C56.6513 20.253 57.4088 19.9132 57.4718 19.7858C57.9557 18.9573 57.6402 17.7254 54.6949 16.1749ZM11.0422 15.3465C10.9371 15.1979 10.7687 14.5607 10.6004 14.4969C10.4321 14.4545 9.99036 14.858 9.61169 14.7306C9.23302 14.6244 8.70708 13.6261 8.70708 13.6261C8.70708 13.6261 9.35924 13.3712 9.71687 13.4987C10.0745 13.6261 10.7898 14.0297 10.9791 14.0721C11.1684 14.1146 11.5682 14.1146 11.9679 14.2633C12.3676 14.412 12.7042 15.2828 12.7042 15.2828L11.9048 15.3465C11.8837 15.3253 11.1474 15.4952 11.0422 15.3465ZM15.3759 18.66C15.3549 18.5326 14.5555 18.4901 14.4713 18.4051C14.3872 18.3202 13.5457 17.8953 13.5457 17.8953C13.5457 17.8953 12.7252 17.5555 12.599 17.5343C12.4728 17.513 12.3466 17.3643 12.5569 17.3643C12.7673 17.3643 13.4615 17.4068 13.4615 17.4068C13.4615 17.4068 13.5457 17.0457 13.8192 16.8121C14.1137 16.5785 14.2399 16.451 14.3241 16.3873C14.4082 16.3023 14.4924 17.1944 14.4924 17.1944C14.4924 17.1944 14.7448 17.7254 14.85 17.7679C14.9762 17.8316 15.6494 18.5326 15.7125 18.66C15.8177 18.8087 15.397 18.7874 15.3759 18.66ZM20.5932 18.6387C20.5932 18.6387 19.962 18.3839 19.8149 18.2352C19.6676 18.1077 19.3521 17.8953 19.2257 18.0015C19.1206 18.129 18.4474 18.1502 18.4474 18.1502C18.4474 18.1502 18.805 17.8953 18.8892 17.5768C18.9733 17.2581 18.195 16.3448 18.216 16.2811C18.237 16.1961 19.289 17.2794 19.5202 17.4705C19.6886 17.598 20.3198 18.1715 20.4038 18.2139C20.4881 18.2564 20.5932 18.6387 20.5932 18.6387ZM21.5399 18.0653C21.4768 17.9591 21.4768 17.598 21.2034 17.3006C20.9299 16.982 20.6563 16.4723 20.6563 16.4723L20.4249 16.1324L20.3828 15.7926C20.3828 15.7926 21.1823 16.1324 21.4348 16.3023C21.7082 16.4723 22.0868 17.1307 22.129 17.3856C22.1711 17.598 22.3182 18.1502 22.3182 18.1502C22.3182 18.1502 21.6029 18.1502 21.5399 18.0653ZM25.1162 22.0584C25.1162 22.0584 23.5595 20.9115 23.5385 20.253C23.5175 19.5945 23.4965 19.1485 23.7699 18.66C24.0434 18.1715 23.5175 16.5572 23.5175 16.5572C23.5175 16.6634 24.1485 17.1944 24.3168 17.6829C24.4852 18.1715 24.0644 18.8724 24.2117 19.7432C24.2958 19.9982 25.0321 20.6565 25.2635 21.1239C25.4949 21.5912 25.7263 22.5045 25.7263 22.5045L25.1162 22.0584ZM28.9241 19.1697C28.9241 18.9149 29.2606 18.2352 29.492 18.0015C29.7234 17.7679 30.3126 17.2369 30.3126 17.2369C30.3126 17.2369 30.3126 17.7467 30.1863 17.9378C30.0601 18.129 29.7865 18.2564 29.6814 18.6387C29.5551 19.0211 29.45 19.4033 29.4079 19.5307C29.3659 19.637 28.9241 19.9768 28.9241 19.9768C28.9241 19.9768 28.9241 19.4033 28.9241 19.1697ZM31.0699 21.2725C30.9436 21.8672 31.0068 22.292 30.565 23.2477C30.2073 24.055 29.5551 24.1824 29.2396 24.3949C29.1135 24.4797 28.2719 24.7983 28.2719 24.7983C28.2719 24.7983 29.429 23.3966 29.7865 22.6957C30.1652 21.9946 30.1232 21.1663 30.3546 20.5503C30.586 19.9344 32.332 18.8087 32.332 18.8087C32.332 18.8087 31.196 20.6991 31.0699 21.2725ZM40.4315 19.2972C41.2521 19.7432 42.0514 20.0194 42.0514 20.0194C42.0514 20.0194 42.0514 19.9556 42.1145 19.6158C42.1565 19.276 42.5142 19.276 42.6616 19.4883C42.8087 19.7008 42.8507 20.0618 42.8718 20.0618C42.9981 20.083 43.6503 19.8282 44.0921 19.9982C44.5339 20.168 44.9545 20.7203 45.0388 20.8477C45.3332 21.2937 46.322 22.1858 46.322 22.1858C46.322 22.1858 44.5759 20.9539 44.0711 20.6141C43.5872 20.2742 42.8087 20.8477 42.2618 20.7627C41.7149 20.6779 40.116 19.3821 39.6742 19.2547C39.2324 19.1273 38.6012 19.7646 38.6012 19.7646C38.6012 19.7646 38.6222 19.5521 38.6433 19.2122C38.6433 19.0211 38.0123 18.4263 37.276 18.0865C36.6869 17.8104 35.2774 17.8104 35.2774 17.8104C35.2774 17.8104 36.7289 17.2794 37.4862 17.5555C38.4541 17.9166 39.2955 18.1077 39.2955 18.1077L38.8326 17.8316L38.2227 17.3006C38.2227 17.3006 39.022 17.3856 39.2744 17.4918C39.5269 17.6192 39.9266 17.8529 39.9266 17.8529L40.2842 18.2777C40.2842 18.2777 38.7486 18.3626 38.8116 18.4051C38.8957 18.4688 38.959 18.4688 39.1904 18.5963C39.2114 18.5963 39.8003 18.9361 40.4315 19.2972ZM51.5182 13.7535C51.0976 13.8597 50.319 14.5182 50.2139 14.5819C50.1087 14.6456 49.8772 14.5182 50.0456 14.3695C50.2139 14.2208 50.5294 13.9659 50.6137 13.6898C50.6978 13.4137 50.6978 13.4774 50.6978 13.0951C50.6978 12.734 50.6557 12.6066 50.6768 12.5004C50.6768 12.3942 51.413 12.9677 51.413 12.9677C51.413 12.9677 51.9389 13.2013 52.0652 13.1801C52.1914 13.1588 53.1803 13.2863 53.3274 13.35C54.169 13.6261 51.9389 13.6473 51.5182 13.7535Z" fill="#DCDCDC"/>
<path d="M21.4554 35.397L17.1006 36.1404L19.4778 35.9068L20.5718 35.8218L21.3711 35.6944L21.4554 35.397Z" fill="#DCDCDC"/>
<path d="M50.0459 23.4601C50.0459 23.4601 50.4667 23.5663 50.572 23.7787C50.6771 24.0123 51.1189 24.7558 51.3503 24.862C51.5817 24.968 51.9394 25.1168 51.9394 25.1168C51.9394 25.1168 51.5186 24.1185 51.4134 23.9061C51.0768 23.3751 50.0459 23.4601 50.0459 23.4601Z" fill="#DCDCDC"/>
<path d="M53.9007 24.3446C53.9637 24.472 54.2792 24.642 54.2792 24.642C54.2792 24.642 54.2162 24.3446 54.1741 24.1534C54.1321 23.9624 53.9848 23.5375 53.9848 23.5375C53.9848 23.5375 53.8795 23.2827 53.7954 23.1553C53.6903 23.0277 53.0381 22.7092 53.0381 22.7092C53.0381 22.7092 53.1642 23.2189 53.1854 23.4525C53.2275 23.6649 53.8374 24.2172 53.9007 24.3446Z" fill="#DCDCDC"/>
<path d="M58.4661 22.9255L57.1248 21.5425C57.1248 21.5425 56.5467 21.09 56.5191 20.8145C56.4912 20.5391 56.5801 20.478 56.5801 20.478C56.5801 20.478 57.0315 20.7723 57.2998 20.8983C57.5683 21.024 57.775 21.0616 58.0385 21.3218C58.3857 21.6552 58.9296 23.2605 58.9296 23.2605L58.4661 22.9255Z" fill="#DCDCDC"/>
<path d="M44.9961 25.8817C44.7647 25.7543 44.4912 25.7329 44.3861 25.5843C44.2808 25.4357 44.2178 25.0108 44.2178 25.0108L44.2388 24.501C44.2388 24.501 44.8069 24.8196 44.9541 24.8834C45.1014 24.947 45.2908 25.0108 45.4589 25.1594C45.6273 25.3082 46.1111 26.6462 46.1111 26.6462C46.1111 26.6462 45.2275 26.0091 44.9961 25.8817Z" fill="#DCDCDC"/>
<path d="M12.1144 23.9276C12.1144 23.9276 10.9363 23.5453 10.7049 23.5027C10.4734 23.4603 9.44261 23.5453 9.106 23.7151C8.76941 23.8851 8.28554 23.9064 8.13829 23.8638C7.99101 23.8426 7.33887 23.7151 7.33887 23.7151C7.33887 23.7151 7.78064 23.5665 8.22242 23.3329C8.66421 23.1205 8.87459 22.9081 9.2112 22.7594C9.52675 22.6106 10.0527 22.5258 10.1368 22.5258C10.221 22.5258 10.8521 22.4832 11.2939 22.7594C11.7357 23.0355 12.2196 23.9276 12.1144 23.9276Z" fill="#DCDCDC"/>
<path d="M25.9999 38.1792C27.0939 38.1792 27.9775 38.9227 27.9775 40.027C27.9775 40.5581 27.8092 41.0467 27.4514 41.4077C27.0939 41.79 26.547 41.9812 25.9999 41.9812C25.432 41.9812 24.9061 41.7688 24.5483 41.3865C24.2329 41.0253 24.0225 40.5581 24.0225 40.027C24.0225 38.9227 24.9061 38.1792 25.9999 38.1792Z" fill="#DCDCDC"/>
<path d="M21.3502 3.02709L20.9927 2.70849L20.7402 1.92261L21.6237 2.68725L21.729 2.98461L21.3502 3.02709Z" fill="#DCDCDC"/>
<path d="M50.7814 10.5886C50.7814 10.5886 50.6131 10.5037 50.6763 10.4187C50.7394 10.3337 50.7814 10.2063 50.7814 10.2063C50.7814 10.2063 50.9708 10.1001 51.0339 10.1001C51.0969 10.1213 51.7281 10.1426 51.7281 10.1426C51.581 10.27 51.3073 10.355 51.3073 10.4612C51.3073 10.5674 51.0549 10.6311 51.0549 10.6311L50.7814 10.5886Z" fill="#DCDCDC"/>
<path d="M54.5477 9.99438C54.5477 9.99438 54.4844 10.5466 54.274 10.6104C54.0636 10.6741 53.9585 10.9077 53.643 10.9714C53.5167 10.9927 53.1592 10.8228 53.1592 10.8228C53.1592 10.8228 53.2433 10.5041 53.4747 10.3342C53.7061 10.1431 54.5477 9.99438 54.5477 9.99438Z" fill="#DCDCDC"/>
<path d="M3.67942 11.8628L2.41718 11.1831C2.41718 11.1831 1.93331 10.4609 1.89124 10.291C1.84916 10.1211 1.82812 9.54761 1.82812 9.54761L2.75377 10.376C2.75377 10.376 3.32177 10.6309 3.49009 10.6946C3.65838 10.7583 3.9529 10.9707 3.9529 10.9707L3.67942 11.8628Z" fill="#DCDCDC"/>
<path d="M9.61134 6.21335C9.61134 6.21335 9.19059 6.19213 9.00126 6.04344C8.8119 5.89476 8.58049 5.57616 8.53843 5.46995C8.51739 5.36376 8.37012 4.81152 8.37012 4.81152L9.14851 5.19384C9.14851 5.19384 9.46407 5.27879 9.63238 5.42749C9.80068 5.57617 9.92689 5.80981 9.92689 5.80981L9.99001 6.2346H9.61134V6.21335Z" fill="#DCDCDC"/>
<path d="M14.282 5.70432L13.4615 5.55564C13.4615 5.55564 12.9987 5.19456 12.9356 4.98216C12.8725 4.76976 12.1572 3.70776 12.1572 3.70776L13.3984 4.13257L14.1768 4.66357L14.282 5.70432Z" fill="#DCDCDC"/>
<path d="M18.0894 4.81102L18.1525 4.06762L17.7318 3.74903L17.0586 3.2605L17.1007 3.94019C17.1007 3.94019 17.2479 4.11011 17.2479 4.25878C17.2479 4.6411 18.0894 4.81102 18.0894 4.81102Z" fill="#DCDCDC"/>
</g>
<path d="M77.0666 29.6633C75.6712 29.6633 74.5902 29.3107 73.8236 28.6053C73.0569 27.9 72.6736 26.865 72.6736 25.5003V17.7033C72.6736 16.354 73.0876 15.3267 73.9156 14.6213C74.7436 13.916 75.8706 13.5633 77.2966 13.5633H80.6776V15.1043H77.0666C76.3612 15.1043 75.7862 15.3113 75.3416 15.7253C74.9122 16.124 74.6976 16.6607 74.6976 17.3353V25.9143C74.6976 26.6043 74.9046 27.1487 75.3186 27.5473C75.7326 27.946 76.2846 28.1453 76.9746 28.1453H79.1136V21.8203H77.0436V20.3023H81.1376V29.6633H77.0666ZM84.0111 17.7033H85.4371L85.6441 18.5543L86.2191 18.2783C86.7098 18.033 87.1161 17.849 87.4381 17.7263C87.7755 17.6037 88.1128 17.5423 88.4501 17.5423V18.8993C88.2508 18.8993 87.9825 18.9607 87.6451 19.0833C87.3078 19.1907 86.7098 19.4513 85.8511 19.8653V29.6633H84.0111V17.7033ZM92.9024 29.6633C92.0591 29.6633 91.3844 29.4103 90.8784 28.9043C90.3878 28.3983 90.1424 27.716 90.1424 26.8573V20.7393C90.1424 19.7427 90.4184 18.9607 90.9704 18.3933C91.5224 17.826 92.3428 17.5423 93.4314 17.5423C94.5201 17.5423 95.3328 17.826 95.8694 18.3933C96.4214 18.9607 96.6974 19.7427 96.6974 20.7393V21.7973C96.6974 22.4413 96.5134 22.932 96.1454 23.2693C95.7774 23.5913 95.2944 23.8367 94.6964 24.0053L91.9824 24.7643V27.0183C91.9824 27.3863 92.0898 27.693 92.3044 27.9383C92.5344 28.1683 92.8258 28.2833 93.1784 28.2833H95.6624V29.6633H92.9024ZM93.3854 22.9243C93.8914 22.7863 94.2288 22.6867 94.3974 22.6253C94.5814 22.5487 94.7041 22.4413 94.7654 22.3033C94.8268 22.1653 94.8574 21.9353 94.8574 21.6133V20.3483C94.8574 19.8577 94.7271 19.4973 94.4664 19.2673C94.2211 19.0373 93.8761 18.9223 93.4314 18.9223C93.0021 18.9223 92.6494 19.045 92.3734 19.2903C92.1128 19.5357 91.9824 19.8883 91.9824 20.3483V23.3153L93.3854 22.9243ZM101.312 29.6633C100.76 29.6633 100.246 29.5253 99.771 29.2493C99.311 28.9733 98.943 28.5977 98.667 28.1223C98.4063 27.647 98.276 27.1103 98.276 26.5123V25.3163C98.276 24.5957 98.4523 23.99 98.805 23.4993C99.173 23.0087 99.6253 22.6637 100.162 22.4643L103.014 21.4063V20.3253C103.014 19.9573 102.899 19.6583 102.669 19.4283C102.454 19.183 102.171 19.0603 101.818 19.0603H99.219V17.7033H101.979C102.822 17.7033 103.489 17.9563 103.98 18.4623C104.486 18.953 104.739 19.6277 104.739 20.4863V29.6633H101.312ZM103.014 28.2603V22.8553L100.99 23.6143C100.591 23.7677 100.308 23.9747 100.139 24.2353C99.9857 24.496 99.909 24.91 99.909 25.4773V26.7653C99.909 27.1793 100.062 27.532 100.369 27.8233C100.676 28.1147 101.044 28.2603 101.473 28.2603H103.014ZM110.954 29.6633C110.111 29.6633 109.444 29.4103 108.953 28.9043C108.463 28.3983 108.217 27.716 108.217 26.8573V19.0833H106.837V17.7033H108.217V14.2303L110.057 13.5403V17.7033H111.897V19.0833H110.057V27.0183C110.057 27.3863 110.157 27.693 110.356 27.9383C110.571 28.1683 110.855 28.2833 111.207 28.2833H111.897V29.6633H110.954ZM116.466 29.6633C115.622 29.6633 114.948 29.4103 114.442 28.9043C113.951 28.3983 113.706 27.716 113.706 26.8573V20.7393C113.706 19.7427 113.982 18.9607 114.534 18.3933C115.086 17.826 115.906 17.5423 116.995 17.5423C118.083 17.5423 118.896 17.826 119.433 18.3933C119.985 18.9607 120.261 19.7427 120.261 20.7393V21.7973C120.261 22.4413 120.077 22.932 119.709 23.2693C119.341 23.5913 118.858 23.8367 118.26 24.0053L115.546 24.7643V27.0183C115.546 27.3863 115.653 27.693 115.868 27.9383C116.098 28.1683 116.389 28.2833 116.742 28.2833H119.226V29.6633H116.466ZM116.949 22.9243C117.455 22.7863 117.792 22.6867 117.961 22.6253C118.145 22.5487 118.267 22.4413 118.329 22.3033C118.39 22.1653 118.421 21.9353 118.421 21.6133V20.3483C118.421 19.8577 118.29 19.4973 118.03 19.2673C117.784 19.0373 117.439 18.9223 116.995 18.9223C116.565 18.9223 116.213 19.045 115.937 19.2903C115.676 19.5357 115.546 19.8883 115.546 20.3483V23.3153L116.949 22.9243ZM126.54 13.5633H130.611C133.417 13.5633 134.82 14.9893 134.82 17.8413C134.82 19.3287 134.414 20.494 133.601 21.3373C132.804 22.1653 131.662 22.5793 130.174 22.5793H128.564V29.6633H126.54V13.5633ZM130.036 21.0613C130.91 21.0613 131.585 20.7623 132.06 20.1643C132.551 19.5663 132.796 18.792 132.796 17.8413C132.796 16.9367 132.559 16.2543 132.083 15.7943C131.623 15.319 130.941 15.0813 130.036 15.0813H128.564V21.0613H130.036ZM139.4 29.6633C138.557 29.6633 137.882 29.4103 137.376 28.9043C136.885 28.3983 136.64 27.716 136.64 26.8573V20.7393C136.64 19.7427 136.916 18.9607 137.468 18.3933C138.02 17.826 138.84 17.5423 139.929 17.5423C141.018 17.5423 141.83 17.826 142.367 18.3933C142.919 18.9607 143.195 19.7427 143.195 20.7393V21.7973C143.195 22.4413 143.011 22.932 142.643 23.2693C142.275 23.5913 141.792 23.8367 141.194 24.0053L138.48 24.7643V27.0183C138.48 27.3863 138.587 27.693 138.802 27.9383C139.032 28.1683 139.323 28.2833 139.676 28.2833H142.16V29.6633H139.4ZM139.883 22.9243C140.389 22.7863 140.726 22.6867 140.895 22.6253C141.079 22.5487 141.202 22.4413 141.263 22.3033C141.324 22.1653 141.355 21.9353 141.355 21.6133V20.3483C141.355 19.8577 141.225 19.4973 140.964 19.2673C140.719 19.0373 140.374 18.9223 139.929 18.9223C139.5 18.9223 139.147 19.045 138.871 19.2903C138.61 19.5357 138.48 19.8883 138.48 20.3483V23.3153L139.883 22.9243ZM148.293 29.8243C147.219 29.8243 146.384 29.556 145.786 29.0193C145.203 28.4673 144.912 27.7083 144.912 26.7423V20.6243C144.912 19.6583 145.203 18.907 145.786 18.3703C146.384 17.8183 147.219 17.5423 148.293 17.5423C149.366 17.5423 150.194 17.8183 150.777 18.3703C151.375 18.907 151.674 19.6583 151.674 20.6243V26.7423C151.674 27.7083 151.375 28.4673 150.777 29.0193C150.194 29.556 149.366 29.8243 148.293 29.8243ZM148.293 28.3983C148.783 28.3983 149.167 28.2603 149.443 27.9843C149.734 27.693 149.88 27.279 149.88 26.7423V20.6243C149.88 20.0877 149.734 19.6813 149.443 19.4053C149.167 19.114 148.783 18.9683 148.293 18.9683C147.802 18.9683 147.411 19.114 147.12 19.4053C146.844 19.6813 146.706 20.0877 146.706 20.6243V26.7423C146.706 27.279 146.844 27.693 147.12 27.9843C147.411 28.2603 147.802 28.3983 148.293 28.3983ZM154.319 17.7033H158.045C158.889 17.7033 159.602 17.9793 160.184 18.5313C160.782 19.0833 161.081 19.7733 161.081 20.6013V26.7883C161.081 27.6163 160.79 28.3063 160.207 28.8583C159.625 29.395 158.912 29.6633 158.068 29.6633H156.159V33.3433H154.319V17.7033ZM157.677 28.3063C158.107 28.3063 158.475 28.1607 158.781 27.8693C159.088 27.578 159.241 27.2177 159.241 26.7883V20.6013C159.241 20.172 159.088 19.8117 158.781 19.5203C158.475 19.229 158.107 19.0833 157.677 19.0833H156.159V28.3063H157.677ZM163.627 29.6633V13.5633H165.467V29.6633H163.627ZM170.945 29.6633C170.102 29.6633 169.427 29.4103 168.921 28.9043C168.431 28.3983 168.185 27.716 168.185 26.8573V20.7393C168.185 19.7427 168.461 18.9607 169.013 18.3933C169.565 17.826 170.386 17.5423 171.474 17.5423C172.563 17.5423 173.376 17.826 173.912 18.3933C174.464 18.9607 174.74 19.7427 174.74 20.7393V21.7973C174.74 22.4413 174.556 22.932 174.188 23.2693C173.82 23.5913 173.337 23.8367 172.739 24.0053L170.025 24.7643V27.0183C170.025 27.3863 170.133 27.693 170.347 27.9383C170.577 28.1683 170.869 28.2833 171.221 28.2833H173.705V29.6633H170.945ZM171.428 22.9243C171.934 22.7863 172.272 22.6867 172.44 22.6253C172.624 22.5487 172.747 22.4413 172.808 22.3033C172.87 22.1653 172.9 21.9353 172.9 21.6133V20.3483C172.9 19.8577 172.77 19.4973 172.509 19.2673C172.264 19.0373 171.919 18.9223 171.474 18.9223C171.045 18.9223 170.692 19.045 170.416 19.2903C170.156 19.5357 170.025 19.8883 170.025 20.3483V23.3153L171.428 22.9243Z" fill="#DCDCDC"/>
<defs>
<clipPath id="clip0_862_41665">
<rect width="59.3746" height="41.6729" fill="white" transform="translate(0.131836 0.924561)"/>
</clipPath>
</defs>
</svg>
