<svg width="330" height="361" viewBox="0 0 330 361" fill="none" xmlns="http://www.w3.org/2000/svg">
<path d="M271.24 301.21L207.74 300.09L168.05 322.83L127.87 299.83L63.4805 299.2L167.41 360.29L271.24 301.21Z" fill="white"/>
<path d="M18.5703 219.39L51.5103 165.09L51.8503 119.36L91.9403 96.2196L124.9 40.8896L19.7903 99.9496L18.5703 219.39Z" fill="white"/>
<path d="M316.451 223.34L284.961 168.19L285.841 122.46L246.371 98.2698L214.891 42.0898L318.391 103.9L316.451 223.34Z" fill="white"/>
<path d="M242.071 130.29L150.461 283.26L190.141 284.08L202.931 260.88L279.151 261.37L292.071 282.9H329.771L242.081 130.28L242.071 130.29ZM241.581 193.51L259.541 228.2L221.491 227.96L241.581 193.5V193.51Z" fill="white"/>
<path d="M136.43 55.61L0 283.53L130.03 282.81L228.92 117.43L169.99 0L147.06 36.78L187.55 111.14L103.18 252.39L63.05 253.2L157.59 94.9L136.43 55.61Z" fill="white"/>
</svg>
